<svg width="1889" height="2334" viewBox="0 0 1889 2334" fill="none" xmlns="http://www.w3.org/2000/svg">
    <rect y="1701" width="469.926" height="309.463" rx="80" fill="#9747FF"/>
    <path d="M138.751 1821.18L158.183 1878.05H158.967L178.399 1821.18H189.785L164.66 1891H152.489L127.364 1821.18H138.751ZM196.841 1891V1838.64H207.034V1891H196.841ZM201.989 1830.56C200.216 1830.56 198.693 1829.97 197.421 1828.78C196.171 1827.58 195.546 1826.15 195.546 1824.49C195.546 1822.81 196.171 1821.37 197.421 1820.19C198.693 1818.99 200.216 1818.39 201.989 1818.39C203.762 1818.39 205.273 1818.99 206.523 1820.19C207.796 1821.37 208.432 1822.81 208.432 1824.49C208.432 1826.15 207.796 1827.58 206.523 1828.78C205.273 1829.97 203.762 1830.56 201.989 1830.56ZM241.108 1892.06C235.948 1892.06 231.505 1890.95 227.778 1888.75C224.073 1886.52 221.21 1883.4 219.187 1879.38C217.187 1875.33 216.187 1870.59 216.187 1865.16C216.187 1859.8 217.187 1855.07 219.187 1850.98C221.21 1846.89 224.028 1843.69 227.642 1841.4C231.278 1839.1 235.528 1837.95 240.392 1837.95C243.346 1837.95 246.21 1838.44 248.983 1839.42C251.755 1840.4 254.244 1841.93 256.448 1844.02C258.653 1846.11 260.392 1848.83 261.664 1852.17C262.937 1855.49 263.573 1859.52 263.573 1864.27V1867.89H221.948V1860.25H253.585C253.585 1857.57 253.039 1855.19 251.948 1853.12C250.858 1851.03 249.323 1849.39 247.346 1848.18C245.392 1846.98 243.096 1846.38 240.46 1846.38C237.596 1846.38 235.096 1847.08 232.96 1848.49C230.846 1849.87 229.21 1851.69 228.051 1853.94C226.914 1856.17 226.346 1858.59 226.346 1861.2V1867.17C226.346 1870.67 226.96 1873.65 228.187 1876.1C229.437 1878.56 231.176 1880.43 233.403 1881.73C235.63 1883 238.233 1883.64 241.21 1883.64C243.142 1883.64 244.903 1883.36 246.494 1882.82C248.085 1882.25 249.46 1881.41 250.619 1880.3C251.778 1879.18 252.664 1877.81 253.278 1876.17L262.926 1877.91C262.153 1880.75 260.767 1883.24 258.767 1885.38C256.789 1887.49 254.301 1889.14 251.301 1890.32C248.323 1891.48 244.926 1892.06 241.108 1892.06ZM283.934 1891L268.525 1838.64H279.059L289.32 1877.09H289.831L300.127 1838.64H310.661L320.888 1876.92H321.4L331.593 1838.64H342.127L326.752 1891H316.354L305.718 1853.19H304.934L294.297 1891H283.934Z" fill="white"/>
    <rect x="1074" y="1701" width="815" height="309" rx="80" fill="#9747FF"/>
    <path d="M1248.64 1821.18L1268.07 1878.05H1268.85L1288.28 1821.18H1299.67L1274.55 1891H1262.37L1237.25 1821.18H1248.64ZM1306.73 1891V1838.64H1316.92V1891H1306.73ZM1311.87 1830.56C1310.1 1830.56 1308.58 1829.97 1307.31 1828.78C1306.06 1827.58 1305.43 1826.15 1305.43 1824.49C1305.43 1822.81 1306.06 1821.37 1307.31 1820.19C1308.58 1818.99 1310.1 1818.39 1311.87 1818.39C1313.65 1818.39 1315.16 1818.99 1316.41 1820.19C1317.68 1821.37 1318.32 1822.81 1318.32 1824.49C1318.32 1826.15 1317.68 1827.58 1316.41 1828.78C1315.16 1829.97 1313.65 1830.56 1311.87 1830.56ZM1350.99 1892.06C1345.83 1892.06 1341.39 1890.95 1337.66 1888.75C1333.96 1886.52 1331.09 1883.4 1329.07 1879.38C1327.07 1875.33 1326.07 1870.59 1326.07 1865.16C1326.07 1859.8 1327.07 1855.07 1329.07 1850.98C1331.09 1846.89 1333.91 1843.69 1337.53 1841.4C1341.16 1839.1 1345.41 1837.95 1350.28 1837.95C1353.23 1837.95 1356.09 1838.44 1358.87 1839.42C1361.64 1840.4 1364.13 1841.93 1366.33 1844.02C1368.54 1846.11 1370.28 1848.83 1371.55 1852.17C1372.82 1855.49 1373.46 1859.52 1373.46 1864.27V1867.89H1331.83V1860.25H1363.47C1363.47 1857.57 1362.92 1855.19 1361.83 1853.12C1360.74 1851.03 1359.21 1849.39 1357.23 1848.18C1355.28 1846.98 1352.98 1846.38 1350.34 1846.38C1347.48 1846.38 1344.98 1847.08 1342.84 1848.49C1340.73 1849.87 1339.09 1851.69 1337.94 1853.94C1336.8 1856.17 1336.23 1858.59 1336.23 1861.2V1867.17C1336.23 1870.67 1336.84 1873.65 1338.07 1876.1C1339.32 1878.56 1341.06 1880.43 1343.29 1881.73C1345.52 1883 1348.12 1883.64 1351.09 1883.64C1353.03 1883.64 1354.79 1883.36 1356.38 1882.82C1357.97 1882.25 1359.34 1881.41 1360.5 1880.3C1361.66 1879.18 1362.55 1877.81 1363.16 1876.17L1372.81 1877.91C1372.04 1880.75 1370.65 1883.24 1368.65 1885.38C1366.67 1887.49 1364.19 1889.14 1361.19 1890.32C1358.21 1891.48 1354.81 1892.06 1350.99 1892.06ZM1393.82 1891L1378.41 1838.64H1388.94L1399.21 1877.09H1399.72L1410.01 1838.64H1420.55L1430.77 1876.92H1431.28L1441.48 1838.64H1452.01L1436.64 1891H1426.24L1415.6 1853.19H1414.82L1404.18 1891H1393.82ZM1460.3 1821.18H1473.08L1495.31 1875.45H1496.12L1518.35 1821.18H1531.14V1891H1521.11V1840.48H1520.47L1499.88 1890.9H1491.56L1470.97 1840.44H1470.32V1891H1460.3V1821.18ZM1565.48 1892.06C1560.57 1892.06 1556.29 1890.93 1552.63 1888.68C1548.97 1886.43 1546.13 1883.28 1544.11 1879.24C1542.08 1875.19 1541.07 1870.47 1541.07 1865.06C1541.07 1859.62 1542.08 1854.87 1544.11 1850.81C1546.13 1846.74 1548.97 1843.58 1552.63 1841.33C1556.29 1839.08 1560.57 1837.95 1565.48 1837.95C1570.39 1837.95 1574.68 1839.08 1578.33 1841.33C1581.99 1843.58 1584.83 1846.74 1586.86 1850.81C1588.88 1854.87 1589.89 1859.62 1589.89 1865.06C1589.89 1870.47 1588.88 1875.19 1586.86 1879.24C1584.83 1883.28 1581.99 1886.43 1578.33 1888.68C1574.68 1890.93 1570.39 1892.06 1565.48 1892.06ZM1565.52 1883.5C1568.7 1883.5 1571.33 1882.66 1573.43 1880.98C1575.52 1879.3 1577.06 1877.06 1578.06 1874.26C1579.08 1871.47 1579.6 1868.39 1579.6 1865.02C1579.6 1861.68 1579.08 1858.61 1578.06 1855.82C1577.06 1853 1575.52 1850.74 1573.43 1849.03C1571.33 1847.33 1568.7 1846.48 1565.52 1846.48C1562.31 1846.48 1559.65 1847.33 1557.54 1849.03C1555.45 1850.74 1553.89 1853 1552.87 1855.82C1551.87 1858.61 1551.37 1861.68 1551.37 1865.02C1551.37 1868.39 1551.87 1871.47 1552.87 1874.26C1553.89 1877.06 1555.45 1879.3 1557.54 1880.98C1559.65 1882.66 1562.31 1883.5 1565.52 1883.5ZM1618.66 1892.02C1614.44 1892.02 1610.66 1890.94 1607.35 1888.78C1604.05 1886.6 1601.46 1883.5 1599.57 1879.48C1597.71 1875.43 1596.78 1870.58 1596.78 1864.92C1596.78 1859.26 1597.72 1854.42 1599.61 1850.4C1601.52 1846.37 1604.13 1843.3 1607.45 1841.16C1610.77 1839.02 1614.53 1837.95 1618.73 1837.95C1621.98 1837.95 1624.6 1838.5 1626.57 1839.59C1628.57 1840.66 1630.12 1841.91 1631.21 1843.34C1632.32 1844.77 1633.19 1846.03 1633.8 1847.12H1634.41V1821.18H1644.61V1891H1634.65V1882.85H1633.8C1633.19 1883.97 1632.3 1885.24 1631.14 1886.67C1630 1888.1 1628.44 1889.35 1626.44 1890.42C1624.44 1891.49 1621.85 1892.02 1618.66 1892.02ZM1620.91 1883.33C1623.85 1883.33 1626.32 1882.56 1628.35 1881.01C1630.39 1879.44 1631.94 1877.27 1632.98 1874.5C1634.05 1871.73 1634.58 1868.5 1634.58 1864.82C1634.58 1861.18 1634.06 1858 1633.02 1855.27C1631.97 1852.55 1630.44 1850.42 1628.41 1848.9C1626.39 1847.37 1623.89 1846.61 1620.91 1846.61C1617.85 1846.61 1615.29 1847.41 1613.24 1849C1611.2 1850.59 1609.65 1852.76 1608.61 1855.51C1607.58 1858.26 1607.07 1861.36 1607.07 1864.82C1607.07 1868.32 1607.6 1871.47 1608.64 1874.26C1609.69 1877.06 1611.23 1879.27 1613.28 1880.91C1615.35 1882.52 1617.89 1883.33 1620.91 1883.33ZM1679.52 1892.06C1674.36 1892.06 1669.91 1890.95 1666.19 1888.75C1662.48 1886.52 1659.62 1883.4 1657.59 1879.38C1655.59 1875.33 1654.59 1870.59 1654.59 1865.16C1654.59 1859.8 1655.59 1855.07 1657.59 1850.98C1659.62 1846.89 1662.44 1843.69 1666.05 1841.4C1669.69 1839.1 1673.94 1837.95 1678.8 1837.95C1681.75 1837.95 1684.62 1838.44 1687.39 1839.42C1690.16 1840.4 1692.65 1841.93 1694.86 1844.02C1697.06 1846.11 1698.8 1848.83 1700.07 1852.17C1701.34 1855.49 1701.98 1859.52 1701.98 1864.27V1867.89H1660.36V1860.25H1691.99C1691.99 1857.57 1691.45 1855.19 1690.36 1853.12C1689.27 1851.03 1687.73 1849.39 1685.75 1848.18C1683.8 1846.98 1681.5 1846.38 1678.87 1846.38C1676 1846.38 1673.5 1847.08 1671.37 1848.49C1669.25 1849.87 1667.62 1851.69 1666.46 1853.94C1665.32 1856.17 1664.75 1858.59 1664.75 1861.2V1867.17C1664.75 1870.67 1665.37 1873.65 1666.59 1876.1C1667.84 1878.56 1669.58 1880.43 1671.81 1881.73C1674.04 1883 1676.64 1883.64 1679.62 1883.64C1681.55 1883.64 1683.31 1883.36 1684.9 1882.82C1686.49 1882.25 1687.87 1881.41 1689.03 1880.3C1690.19 1879.18 1691.07 1877.81 1691.69 1876.17L1701.33 1877.91C1700.56 1880.75 1699.17 1883.24 1697.17 1885.38C1695.2 1887.49 1692.71 1889.14 1689.71 1890.32C1686.73 1891.48 1683.33 1892.06 1679.52 1892.06ZM1721.28 1821.18V1891H1711.08V1821.18H1721.28Z" fill="white"/>
    <path d="M473.926 1850.5C471.164 1850.5 468.926 1852.74 468.926 1855.5C468.926 1858.26 471.164 1860.5 473.926 1860.5V1850.5ZM568.223 1860.5C570.985 1860.5 573.223 1858.26 573.223 1855.5C573.223 1852.74 570.985 1850.5 568.223 1850.5V1860.5ZM936.223 1850.5C933.462 1850.5 931.223 1852.74 931.223 1855.5C931.223 1858.26 933.462 1860.5 936.223 1860.5V1850.5ZM1073.54 1859.04C1075.49 1857.08 1075.49 1853.92 1073.54 1851.96L1041.72 1820.14C1039.76 1818.19 1036.6 1818.19 1034.64 1820.14C1032.69 1822.1 1032.69 1825.26 1034.64 1827.22L1062.93 1855.5L1034.64 1883.78C1032.69 1885.74 1032.69 1888.9 1034.64 1890.86C1036.6 1892.81 1039.76 1892.81 1041.72 1890.86L1073.54 1859.04ZM473.926 1860.5H568.223V1850.5H473.926V1860.5ZM936.223 1860.5H1070V1850.5H936.223V1860.5Z" fill="#B3B3B3"/>
    <path d="M614.246 1884.5V1840.86H622.456V1847.8H622.911C623.706 1845.45 625.107 1843.6 627.115 1842.26C629.142 1840.89 631.433 1840.21 633.99 1840.21C634.52 1840.21 635.145 1840.23 635.865 1840.27C636.604 1840.3 637.181 1840.35 637.598 1840.41V1848.53C637.257 1848.44 636.651 1848.34 635.78 1848.22C634.909 1848.09 634.037 1848.02 633.166 1848.02C631.159 1848.02 629.369 1848.45 627.797 1849.3C626.244 1850.13 625.013 1851.3 624.104 1852.8C623.195 1854.27 622.74 1855.96 622.74 1857.85V1884.5H614.246ZM661.313 1885.38C657.014 1885.38 653.311 1884.46 650.205 1882.62C647.118 1880.77 644.732 1878.16 643.046 1874.81C641.379 1871.44 640.546 1867.49 640.546 1862.97C640.546 1858.5 641.379 1854.56 643.046 1851.15C644.732 1847.74 647.08 1845.08 650.092 1843.16C653.122 1841.25 656.664 1840.3 660.717 1840.3C663.179 1840.3 665.565 1840.7 667.876 1841.52C670.186 1842.33 672.26 1843.61 674.097 1845.35C675.934 1847.09 677.383 1849.36 678.444 1852.14C679.504 1854.91 680.035 1858.27 680.035 1862.23V1865.24H645.347V1858.88H671.711C671.711 1856.64 671.256 1854.66 670.347 1852.94C669.438 1851.2 668.16 1849.82 666.512 1848.82C664.883 1847.81 662.97 1847.31 660.773 1847.31C658.387 1847.31 656.304 1847.9 654.523 1849.07C652.762 1850.23 651.398 1851.74 650.432 1853.62C649.486 1855.48 649.012 1857.49 649.012 1859.67V1864.64C649.012 1867.56 649.523 1870.04 650.546 1872.09C651.588 1874.13 653.037 1875.69 654.893 1876.77C656.749 1877.83 658.917 1878.36 661.398 1878.36C663.008 1878.36 664.476 1878.14 665.802 1877.68C667.128 1877.21 668.273 1876.51 669.239 1875.58C670.205 1874.65 670.944 1873.51 671.455 1872.14L679.495 1873.59C678.851 1875.96 677.696 1878.03 676.029 1879.81C674.381 1881.57 672.307 1882.95 669.807 1883.93C667.326 1884.9 664.495 1885.38 661.313 1885.38ZM718.04 1900.86V1877.71H717.528C717.017 1878.64 716.278 1879.7 715.312 1880.89C714.365 1882.09 713.059 1883.13 711.392 1884.02C709.725 1884.91 707.566 1885.35 704.915 1885.35C701.392 1885.35 698.248 1884.45 695.483 1882.65C692.737 1880.84 690.578 1878.25 689.006 1874.9C687.453 1871.53 686.676 1867.48 686.676 1862.77C686.676 1858.05 687.462 1854.02 689.034 1850.66C690.625 1847.31 692.803 1844.75 695.568 1842.97C698.333 1841.19 701.468 1840.3 704.972 1840.3C707.68 1840.3 709.858 1840.75 711.506 1841.66C713.172 1842.55 714.46 1843.59 715.369 1844.78C716.297 1845.98 717.017 1847.03 717.528 1847.94H718.239V1840.86H726.534V1900.86H718.04ZM706.79 1878.11C709.233 1878.11 711.297 1877.46 712.983 1876.18C714.687 1874.87 715.975 1873.06 716.847 1870.75C717.737 1868.44 718.182 1865.75 718.182 1862.68C718.182 1859.65 717.746 1857 716.875 1854.73C716.004 1852.45 714.725 1850.68 713.04 1849.41C711.354 1848.15 709.271 1847.51 706.79 1847.51C704.233 1847.51 702.102 1848.17 700.398 1849.5C698.693 1850.83 697.405 1852.63 696.534 1854.93C695.682 1857.22 695.256 1859.8 695.256 1862.68C695.256 1865.6 695.691 1868.22 696.562 1870.55C697.434 1872.88 698.722 1874.73 700.426 1876.09C702.15 1877.44 704.271 1878.11 706.79 1878.11ZM764.717 1866.4V1840.86H773.239V1884.5H764.887V1876.94H764.432C763.429 1879.27 761.819 1881.21 759.603 1882.77C757.406 1884.3 754.669 1885.07 751.393 1885.07C748.59 1885.07 746.109 1884.45 743.949 1883.22C741.809 1881.97 740.124 1880.12 738.893 1877.68C737.681 1875.24 737.074 1872.22 737.074 1868.62V1840.86H745.569V1867.6C745.569 1870.57 746.393 1872.94 748.04 1874.7C749.688 1876.46 751.828 1877.34 754.461 1877.34C756.052 1877.34 757.633 1876.94 759.205 1876.15C760.796 1875.35 762.112 1874.15 763.154 1872.54C764.215 1870.93 764.735 1868.88 764.717 1866.4ZM802.579 1885.38C798.28 1885.38 794.578 1884.46 791.471 1882.62C788.384 1880.77 785.998 1878.16 784.312 1874.81C782.646 1871.44 781.812 1867.49 781.812 1862.97C781.812 1858.5 782.646 1854.56 784.312 1851.15C785.998 1847.74 788.346 1845.08 791.358 1843.16C794.388 1841.25 797.93 1840.3 801.983 1840.3C804.445 1840.3 806.831 1840.7 809.142 1841.52C811.453 1842.33 813.526 1843.61 815.364 1845.35C817.201 1847.09 818.65 1849.36 819.71 1852.14C820.771 1854.91 821.301 1858.27 821.301 1862.23V1865.24H786.614V1858.88H812.977C812.977 1856.64 812.523 1854.66 811.614 1852.94C810.704 1851.2 809.426 1849.82 807.778 1848.82C806.149 1847.81 804.237 1847.31 802.04 1847.31C799.653 1847.31 797.57 1847.9 795.79 1849.07C794.028 1850.23 792.665 1851.74 791.699 1853.62C790.752 1855.48 790.278 1857.49 790.278 1859.67V1864.64C790.278 1867.56 790.79 1870.04 791.812 1872.09C792.854 1874.13 794.303 1875.69 796.159 1876.77C798.015 1877.83 800.184 1878.36 802.665 1878.36C804.275 1878.36 805.742 1878.14 807.068 1877.68C808.394 1877.21 809.54 1876.51 810.506 1875.58C811.471 1874.65 812.21 1873.51 812.721 1872.14L820.761 1873.59C820.117 1875.96 818.962 1878.03 817.295 1879.81C815.648 1881.57 813.574 1882.95 811.074 1883.93C808.593 1884.9 805.761 1885.38 802.579 1885.38ZM862.545 1851.52L854.846 1852.88C854.524 1851.9 854.012 1850.96 853.312 1850.07C852.63 1849.18 851.702 1848.45 850.528 1847.88C849.353 1847.31 847.886 1847.03 846.124 1847.03C843.719 1847.03 841.711 1847.57 840.101 1848.65C838.492 1849.71 837.687 1851.08 837.687 1852.77C837.687 1854.23 838.226 1855.4 839.306 1856.29C840.386 1857.18 842.128 1857.91 844.533 1858.48L851.465 1860.07C855.48 1861 858.473 1862.43 860.442 1864.36C862.412 1866.29 863.397 1868.8 863.397 1871.89C863.397 1874.5 862.639 1876.83 861.124 1878.88C859.628 1880.9 857.535 1882.49 854.846 1883.65C852.175 1884.8 849.079 1885.38 845.556 1885.38C840.67 1885.38 836.683 1884.34 833.596 1882.26C830.509 1880.15 828.615 1877.17 827.914 1873.31L836.124 1872.06C836.636 1874.2 837.687 1875.82 839.278 1876.91C840.868 1877.99 842.942 1878.53 845.499 1878.53C848.283 1878.53 850.509 1877.96 852.175 1876.8C853.842 1875.63 854.675 1874.2 854.675 1872.51C854.675 1871.15 854.164 1870 853.141 1869.07C852.137 1868.15 850.594 1867.45 848.511 1866.97L841.124 1865.35C837.052 1864.42 834.041 1862.95 832.09 1860.92C830.158 1858.89 829.192 1856.33 829.192 1853.22C829.192 1850.65 829.912 1848.39 831.351 1846.46C832.791 1844.53 834.779 1843.02 837.317 1841.94C839.855 1840.84 842.762 1840.3 846.039 1840.3C850.755 1840.3 854.467 1841.32 857.175 1843.36C859.884 1845.39 861.673 1848.11 862.545 1851.52ZM892.226 1840.86V1847.68H868.39V1840.86H892.226ZM874.782 1830.41H883.277V1871.69C883.277 1873.34 883.523 1874.58 884.015 1875.41C884.508 1876.22 885.142 1876.78 885.919 1877.09C886.714 1877.37 887.576 1877.51 888.504 1877.51C889.186 1877.51 889.782 1877.46 890.294 1877.37C890.805 1877.27 891.203 1877.2 891.487 1877.14L893.021 1884.16C892.529 1884.35 891.828 1884.54 890.919 1884.73C890.01 1884.94 888.873 1885.05 887.51 1885.07C885.275 1885.11 883.192 1884.71 881.26 1883.88C879.328 1883.04 877.765 1881.75 876.572 1880.01C875.379 1878.27 874.782 1876.08 874.782 1873.45V1830.41Z" fill="black"/>
    <path d="M1135.73 2261C1132.97 2261 1130.73 2263.24 1130.73 2266C1130.73 2268.76 1132.97 2271 1135.73 2271V2261ZM580.729 2271C583.491 2271 585.729 2268.76 585.729 2266C585.729 2263.24 583.491 2261 580.729 2261V2271ZM238.498 2010.46C236.546 2008.51 233.38 2008.51 231.427 2010.46L199.608 2042.28C197.655 2044.24 197.655 2047.4 199.608 2049.36C201.56 2051.31 204.726 2051.31 206.679 2049.36L234.963 2021.07L263.247 2049.36C265.2 2051.31 268.366 2051.31 270.318 2049.36C272.271 2047.4 272.271 2044.24 270.318 2042.28L238.498 2010.46ZM1481.5 2015C1484.26 2015 1486.5 2012.76 1486.5 2010C1486.5 2007.24 1484.26 2005 1481.5 2005V2015ZM1143.98 2271C1146.74 2271 1148.98 2268.76 1148.98 2266C1148.98 2263.24 1146.74 2261 1143.98 2261V2271ZM1154.29 2261C1151.53 2261 1149.29 2263.24 1149.29 2266C1149.29 2268.76 1151.53 2271 1154.29 2271V2261ZM1170.79 2271C1173.56 2271 1175.79 2268.76 1175.79 2266C1175.79 2263.24 1173.56 2261 1170.79 2261V2271ZM1181.11 2261C1178.35 2261 1176.11 2263.24 1176.11 2266C1176.11 2268.76 1178.35 2271 1181.11 2271V2261ZM1197.61 2271C1200.37 2271 1202.61 2268.76 1202.61 2266C1202.61 2263.24 1200.37 2261 1197.61 2261V2271ZM1207.92 2261C1205.16 2261 1202.92 2263.24 1202.92 2266C1202.92 2268.76 1205.16 2271 1207.92 2271V2261ZM1224.42 2271C1227.18 2271 1229.42 2268.76 1229.42 2266C1229.42 2263.24 1227.18 2261 1224.42 2261V2271ZM1234.73 2261C1231.97 2261 1229.73 2263.24 1229.73 2266C1229.73 2268.76 1231.97 2271 1234.73 2271V2261ZM1251.24 2271C1254 2271 1256.24 2268.76 1256.24 2266C1256.24 2263.24 1254 2261 1251.24 2261V2271ZM1261.55 2261C1258.79 2261 1256.55 2263.24 1256.55 2266C1256.55 2268.76 1258.79 2271 1261.55 2271V2261ZM1278.05 2271C1280.81 2271 1283.05 2268.76 1283.05 2266C1283.05 2263.24 1280.81 2261 1278.05 2261V2271ZM1288.36 2261C1285.6 2261 1283.36 2263.24 1283.36 2266C1283.36 2268.76 1285.6 2271 1288.36 2271V2261ZM1304.86 2271C1307.62 2271 1309.86 2268.76 1309.86 2266C1309.86 2263.24 1307.62 2261 1304.86 2261V2271ZM1315.18 2261C1312.41 2261 1310.18 2263.24 1310.18 2266C1310.18 2268.76 1312.41 2271 1315.18 2271V2261ZM1331.68 2271C1334.44 2271 1336.68 2268.76 1336.68 2266C1336.68 2263.24 1334.44 2261 1331.68 2261V2271ZM1341.99 2261C1339.23 2261 1336.99 2263.24 1336.99 2266C1336.99 2268.76 1339.23 2271 1341.99 2271V2261ZM1358.49 2271C1361.25 2271 1363.49 2268.76 1363.49 2266C1363.49 2263.24 1361.25 2261 1358.49 2261V2271ZM1368.8 2261C1366.04 2261 1363.8 2263.24 1363.8 2266C1363.8 2268.76 1366.04 2271 1368.8 2271V2261ZM1385.3 2271C1388.07 2271 1390.3 2268.76 1390.3 2266C1390.3 2263.24 1388.07 2261 1385.3 2261V2271ZM1395.62 2261C1392.86 2261 1390.62 2263.24 1390.62 2266C1390.62 2268.76 1392.86 2271 1395.62 2271V2261ZM1412.12 2271C1414.88 2271 1417.12 2268.76 1417.12 2266C1417.12 2263.24 1414.88 2261 1412.12 2261V2271ZM1422.43 2261C1419.67 2261 1417.43 2263.24 1417.43 2266C1417.43 2268.76 1419.67 2271 1422.43 2271V2261ZM1438.93 2271C1441.69 2271 1443.93 2268.76 1443.93 2266C1443.93 2263.24 1441.69 2261 1438.93 2261V2271ZM1449.25 2261C1446.48 2261 1444.25 2263.24 1444.25 2266C1444.25 2268.76 1446.48 2271 1449.25 2271V2261ZM1470.98 2267.68C1473.42 2266.4 1474.36 2263.37 1473.08 2260.93C1471.79 2258.48 1468.77 2257.54 1466.32 2258.83L1470.98 2267.68ZM1474.33 2250.83C1473.04 2253.27 1473.98 2256.3 1476.42 2257.58C1478.87 2258.87 1481.89 2257.93 1483.18 2255.48L1474.33 2250.83ZM1486.5 2234.07C1486.5 2231.31 1484.26 2229.07 1481.5 2229.07C1478.73 2229.07 1476.5 2231.31 1476.5 2234.07H1486.5ZM1476.5 2224.15C1476.5 2226.92 1478.73 2229.15 1481.5 2229.15C1484.26 2229.15 1486.5 2226.92 1486.5 2224.15H1476.5ZM1486.5 2208.29C1486.5 2205.53 1484.26 2203.29 1481.5 2203.29C1478.73 2203.29 1476.5 2205.53 1476.5 2208.29H1486.5ZM1476.5 2198.38C1476.5 2201.14 1478.73 2203.38 1481.5 2203.38C1484.26 2203.38 1486.5 2201.14 1486.5 2198.38H1476.5ZM1486.5 2182.51C1486.5 2179.75 1484.26 2177.51 1481.5 2177.51C1478.73 2177.51 1476.5 2179.75 1476.5 2182.51H1486.5ZM1476.5 2172.6C1476.5 2175.36 1478.73 2177.6 1481.5 2177.6C1484.26 2177.6 1486.5 2175.36 1486.5 2172.6H1476.5ZM1486.5 2156.74C1486.5 2153.98 1484.26 2151.74 1481.5 2151.74C1478.73 2151.74 1476.5 2153.98 1476.5 2156.74H1486.5ZM1476.5 2146.82C1476.5 2149.58 1478.73 2151.82 1481.5 2151.82C1484.26 2151.82 1486.5 2149.58 1486.5 2146.82H1476.5ZM1486.5 2130.96C1486.5 2128.2 1484.26 2125.96 1481.5 2125.96C1478.73 2125.96 1476.5 2128.2 1476.5 2130.96H1486.5ZM1476.5 2121.04C1476.5 2123.81 1478.73 2126.04 1481.5 2126.04C1484.26 2126.04 1486.5 2123.81 1486.5 2121.04H1476.5ZM1486.5 2105.18C1486.5 2102.42 1484.26 2100.18 1481.5 2100.18C1478.73 2100.18 1476.5 2102.42 1476.5 2105.18H1486.5ZM1476.5 2095.27C1476.5 2098.03 1478.73 2100.27 1481.5 2100.27C1484.26 2100.27 1486.5 2098.03 1486.5 2095.27H1476.5ZM1486.5 2079.4C1486.5 2076.64 1484.26 2074.4 1481.5 2074.4C1478.73 2074.4 1476.5 2076.64 1476.5 2079.4H1486.5ZM1476.5 2069.49C1476.5 2072.25 1478.73 2074.49 1481.5 2074.49C1484.26 2074.49 1486.5 2072.25 1486.5 2069.49H1476.5ZM1486.5 2053.63C1486.5 2050.87 1484.26 2048.63 1481.5 2048.63C1478.73 2048.63 1476.5 2050.87 1476.5 2053.63H1486.5ZM1476.5 2043.71C1476.5 2046.47 1478.73 2048.71 1481.5 2048.71C1484.26 2048.71 1486.5 2046.47 1486.5 2043.71H1476.5ZM1486.5 2027.85C1486.5 2025.09 1484.26 2022.85 1481.5 2022.85C1478.73 2022.85 1476.5 2025.09 1476.5 2027.85H1486.5ZM1476.5 2017.94C1476.5 2020.7 1478.73 2022.94 1481.5 2022.94C1484.26 2022.94 1486.5 2020.7 1486.5 2017.94H1476.5ZM1485.92 2012.33C1487.21 2009.89 1486.27 2006.86 1483.82 2005.58C1481.38 2004.29 1478.36 2005.23 1477.07 2007.67L1485.92 2012.33ZM1479.17 2005.58C1476.73 2006.86 1475.79 2009.88 1477.07 2012.33C1478.36 2014.77 1481.38 2015.71 1483.83 2014.43L1479.17 2005.58ZM229.963 2021.79C229.963 2024.56 232.201 2026.79 234.963 2026.79C237.724 2026.79 239.963 2024.56 239.963 2021.79H229.963ZM239.963 2031.54C239.963 2028.78 237.724 2026.54 234.963 2026.54C232.201 2026.54 229.963 2028.78 229.963 2031.54H239.963ZM229.963 2047.13C229.963 2049.89 232.201 2052.13 234.963 2052.13C237.724 2052.13 239.963 2049.89 239.963 2047.13H229.963ZM239.963 2056.87C239.963 2054.11 237.724 2051.87 234.963 2051.87C232.201 2051.87 229.963 2054.11 229.963 2056.87H239.963ZM229.963 2072.46C229.963 2075.22 232.201 2077.46 234.963 2077.46C237.724 2077.46 239.963 2075.22 239.963 2072.46H229.963ZM239.963 2082.21C239.963 2079.44 237.724 2077.21 234.963 2077.21C232.201 2077.21 229.963 2079.44 229.963 2082.21H239.963ZM229.963 2097.79C229.963 2100.56 232.201 2102.79 234.963 2102.79C237.724 2102.79 239.963 2100.56 239.963 2097.79H229.963ZM239.963 2107.54C239.963 2104.78 237.724 2102.54 234.963 2102.54C232.201 2102.54 229.963 2104.78 229.963 2107.54H239.963ZM229.963 2123.13C229.963 2125.89 232.201 2128.13 234.963 2128.13C237.724 2128.13 239.963 2125.89 239.963 2123.13H229.963ZM239.963 2132.87C239.963 2130.11 237.724 2127.87 234.963 2127.87C232.201 2127.87 229.963 2130.11 229.963 2132.87H239.963ZM229.963 2148.46C229.963 2151.22 232.201 2153.46 234.963 2153.46C237.724 2153.46 239.963 2151.22 239.963 2148.46H229.963ZM239.963 2158.21C239.963 2155.44 237.724 2153.21 234.963 2153.21C232.201 2153.21 229.963 2155.44 229.963 2158.21H239.963ZM229.963 2173.79C229.963 2176.56 232.201 2178.79 234.963 2178.79C237.724 2178.79 239.963 2176.56 239.963 2173.79H229.963ZM239.963 2183.54C239.963 2180.78 237.724 2178.54 234.963 2178.54C232.201 2178.54 229.963 2180.78 229.963 2183.54H239.963ZM229.963 2199.13C229.963 2201.89 232.201 2204.13 234.963 2204.13C237.724 2204.13 239.963 2201.89 239.963 2199.13H229.963ZM239.963 2208.87C239.963 2206.11 237.724 2203.87 234.963 2203.87C232.201 2203.87 229.963 2206.11 229.963 2208.87H239.963ZM229.963 2224.46C229.963 2227.22 232.201 2229.46 234.963 2229.46C237.724 2229.46 239.963 2227.22 239.963 2224.46H229.963ZM239.963 2234.21C239.963 2231.44 237.724 2229.21 234.963 2229.21C232.201 2229.21 229.963 2231.44 229.963 2234.21H239.963ZM233.282 2255.48C234.568 2257.93 237.591 2258.87 240.035 2257.58C242.479 2256.3 243.418 2253.27 242.133 2250.83L233.282 2255.48ZM250.135 2258.83C247.691 2257.54 244.667 2258.48 243.382 2260.93C242.097 2263.37 243.036 2266.4 245.48 2267.68L250.135 2258.83ZM267.213 2271C269.975 2271 272.213 2268.76 272.213 2266C272.213 2263.24 269.975 2261 267.213 2261V2271ZM277.526 2261C274.765 2261 272.526 2263.24 272.526 2266C272.526 2268.76 274.765 2271 277.526 2271V2261ZM294.027 2271C296.789 2271 299.027 2268.76 299.027 2266C299.027 2263.24 296.789 2261 294.027 2261V2271ZM304.34 2261C301.579 2261 299.34 2263.24 299.34 2266C299.34 2268.76 301.579 2271 304.34 2271V2261ZM320.841 2271C323.603 2271 325.841 2268.76 325.841 2266C325.841 2263.24 323.603 2261 320.841 2261V2271ZM331.154 2261C328.393 2261 326.154 2263.24 326.154 2266C326.154 2268.76 328.393 2271 331.154 2271V2261ZM347.655 2271C350.416 2271 352.655 2268.76 352.655 2266C352.655 2263.24 350.416 2261 347.655 2261V2271ZM357.968 2261C355.207 2261 352.968 2263.24 352.968 2266C352.968 2268.76 355.207 2271 357.968 2271V2261ZM374.469 2271C377.23 2271 379.469 2268.76 379.469 2266C379.469 2263.24 377.23 2261 374.469 2261V2271ZM384.782 2261C382.02 2261 379.782 2263.24 379.782 2266C379.782 2268.76 382.02 2271 384.782 2271V2261ZM401.283 2271C404.044 2271 406.283 2268.76 406.283 2266C406.283 2263.24 404.044 2261 401.283 2261V2271ZM411.596 2261C408.834 2261 406.596 2263.24 406.596 2266C406.596 2268.76 408.834 2271 411.596 2271V2261ZM428.097 2271C430.858 2271 433.097 2268.76 433.097 2266C433.097 2263.24 430.858 2261 428.097 2261V2271ZM438.41 2261C435.648 2261 433.41 2263.24 433.41 2266C433.41 2268.76 435.648 2271 438.41 2271V2261ZM454.911 2271C457.672 2271 459.911 2268.76 459.911 2266C459.911 2263.24 457.672 2261 454.911 2261V2271ZM465.224 2261C462.462 2261 460.224 2263.24 460.224 2266C460.224 2268.76 462.462 2271 465.224 2271V2261ZM481.724 2271C484.486 2271 486.724 2268.76 486.724 2266C486.724 2263.24 484.486 2261 481.724 2261V2271ZM492.037 2261C489.276 2261 487.037 2263.24 487.037 2266C487.037 2268.76 489.276 2271 492.037 2271V2261ZM508.538 2271C511.3 2271 513.538 2268.76 513.538 2266C513.538 2263.24 511.3 2261 508.538 2261V2271ZM518.851 2261C516.09 2261 513.851 2263.24 513.851 2266C513.851 2268.76 516.09 2271 518.851 2271V2261ZM535.352 2271C538.114 2271 540.352 2268.76 540.352 2266C540.352 2263.24 538.114 2261 535.352 2261V2271ZM545.665 2261C542.904 2261 540.665 2263.24 540.665 2266C540.665 2268.76 542.904 2271 545.665 2271V2261ZM562.166 2271C564.927 2271 567.166 2268.76 567.166 2266C567.166 2263.24 564.927 2261 562.166 2261V2271ZM572.479 2261C569.718 2261 567.479 2263.24 567.479 2266C567.479 2268.76 569.718 2271 572.479 2271V2261ZM1135.73 2271H1143.98V2261H1135.73V2271ZM1154.29 2271H1170.79V2261H1154.29V2271ZM1181.11 2271H1197.61V2261H1181.11V2271ZM1207.92 2271H1224.42V2261H1207.92V2271ZM1234.73 2271H1251.24V2261H1234.73V2271ZM1261.55 2271H1278.05V2261H1261.55V2271ZM1288.36 2271H1304.86V2261H1288.36V2271ZM1315.18 2271H1331.68V2261H1315.18V2271ZM1341.99 2271H1358.49V2261H1341.99V2271ZM1368.8 2271H1385.3V2261H1368.8V2271ZM1395.62 2271H1412.12V2261H1395.62V2271ZM1422.43 2271H1438.93V2261H1422.43V2271ZM1449.25 2271H1457.5V2261H1449.25V2271ZM1457.5 2271C1462.35 2271 1466.95 2269.8 1470.98 2267.68L1466.32 2258.83C1463.69 2260.21 1460.69 2261 1457.5 2261V2271ZM1483.18 2255.48C1485.3 2251.45 1486.5 2246.86 1486.5 2242H1476.5C1476.5 2245.2 1475.71 2248.2 1474.33 2250.83L1483.18 2255.48ZM1486.5 2242V2234.07H1476.5V2242H1486.5ZM1486.5 2224.15V2208.29H1476.5V2224.15H1486.5ZM1486.5 2198.38V2182.51H1476.5V2198.38H1486.5ZM1486.5 2172.6V2156.74H1476.5V2172.6H1486.5ZM1486.5 2146.82V2130.96H1476.5V2146.82H1486.5ZM1486.5 2121.04V2105.18H1476.5V2121.04H1486.5ZM1486.5 2095.27V2079.4H1476.5V2095.27H1486.5ZM1486.5 2069.49V2053.63H1476.5V2069.49H1486.5ZM1486.5 2043.71V2027.85H1476.5V2043.71H1486.5ZM1486.5 2017.94V2010H1476.5V2017.94H1486.5ZM1486.5 2010C1486.5 2010.83 1486.29 2011.63 1485.92 2012.33L1477.07 2007.67C1476.7 2008.38 1476.5 2009.17 1476.5 2010H1486.5ZM1483.83 2014.43C1483.13 2014.79 1482.33 2015 1481.5 2015V2005C1480.67 2005 1479.87 2005.21 1479.17 2005.58L1483.83 2014.43ZM229.963 2014V2021.79H239.963V2014H229.963ZM229.963 2031.54V2047.13H239.963V2031.54H229.963ZM229.963 2056.87V2072.46H239.963V2056.87H229.963ZM229.963 2082.21V2097.79H239.963V2082.21H229.963ZM229.963 2107.54V2123.13H239.963V2107.54H229.963ZM229.963 2132.87V2148.46H239.963V2132.87H229.963ZM229.963 2158.21V2173.79H239.963V2158.21H229.963ZM229.963 2183.54V2199.13H239.963V2183.54H229.963ZM229.963 2208.87V2224.46H239.963V2208.87H229.963ZM229.963 2234.21V2242H239.963V2234.21H229.963ZM229.963 2242C229.963 2246.86 231.161 2251.45 233.282 2255.48L242.133 2250.83C240.748 2248.2 239.963 2245.2 239.963 2242H229.963ZM245.48 2267.68C249.513 2269.8 254.106 2271 258.963 2271V2261C255.766 2261 252.767 2260.21 250.135 2258.83L245.48 2267.68ZM258.963 2271H267.213V2261H258.963V2271ZM277.526 2271H294.027V2261H277.526V2271ZM304.34 2271H320.841V2261H304.34V2271ZM331.154 2271H347.655V2261H331.154V2271ZM357.968 2271H374.469V2261H357.968V2271ZM384.782 2271H401.283V2261H384.782V2271ZM411.596 2271H428.097V2261H411.596V2271ZM438.41 2271H454.911V2261H438.41V2271ZM465.224 2271H481.724V2261H465.224V2271ZM492.037 2271H508.538V2261H492.037V2271ZM518.851 2271H535.352V2261H518.851V2271ZM545.665 2271H562.166V2261H545.665V2271ZM572.479 2271H580.729V2261H572.479V2271Z" fill="#B3B3B3"/>
    <path d="M659.252 2262.02L651.553 2263.38C651.231 2262.4 650.72 2261.46 650.019 2260.57C649.337 2259.68 648.409 2258.95 647.235 2258.38C646.061 2257.81 644.593 2257.53 642.832 2257.53C640.426 2257.53 638.419 2258.07 636.809 2259.15C635.199 2260.21 634.394 2261.58 634.394 2263.27C634.394 2264.73 634.934 2265.9 636.013 2266.79C637.093 2267.68 638.835 2268.41 641.241 2268.98L648.172 2270.57C652.188 2271.5 655.18 2272.93 657.15 2274.86C659.119 2276.79 660.104 2279.3 660.104 2282.39C660.104 2285 659.347 2287.33 657.832 2289.38C656.335 2291.4 654.243 2292.99 651.553 2294.15C648.883 2295.3 645.786 2295.88 642.263 2295.88C637.377 2295.88 633.39 2294.84 630.303 2292.76C627.216 2290.65 625.322 2287.67 624.621 2283.81L632.832 2282.56C633.343 2284.7 634.394 2286.32 635.985 2287.41C637.576 2288.49 639.65 2289.03 642.207 2289.03C644.991 2289.03 647.216 2288.46 648.883 2287.3C650.549 2286.13 651.383 2284.7 651.383 2283.01C651.383 2281.65 650.871 2280.5 649.849 2279.57C648.845 2278.65 647.301 2277.95 645.218 2277.47L637.832 2275.85C633.76 2274.92 630.748 2273.45 628.797 2271.42C626.866 2269.39 625.9 2266.83 625.9 2263.72C625.9 2261.15 626.619 2258.89 628.059 2256.96C629.498 2255.03 631.487 2253.52 634.025 2252.44C636.563 2251.34 639.47 2250.8 642.746 2250.8C647.462 2250.8 651.174 2251.82 653.883 2253.86C656.591 2255.89 658.381 2258.61 659.252 2262.02ZM688.933 2251.36V2258.18H665.098V2251.36H688.933ZM671.49 2240.91H679.984V2282.19C679.984 2283.84 680.23 2285.08 680.723 2285.91C681.215 2286.72 681.85 2287.28 682.626 2287.59C683.422 2287.87 684.283 2288.01 685.212 2288.01C685.893 2288.01 686.49 2287.96 687.001 2287.87C687.513 2287.77 687.91 2287.7 688.194 2287.64L689.729 2294.66C689.236 2294.85 688.535 2295.04 687.626 2295.23C686.717 2295.44 685.581 2295.55 684.217 2295.57C681.982 2295.61 679.899 2295.21 677.967 2294.38C676.035 2293.54 674.473 2292.25 673.28 2290.51C672.087 2288.77 671.49 2286.58 671.49 2283.95V2240.91ZM710.148 2295.97C707.383 2295.97 704.883 2295.45 702.648 2294.43C700.413 2293.39 698.643 2291.88 697.336 2289.91C696.048 2287.95 695.404 2285.53 695.404 2282.67C695.404 2280.21 695.877 2278.18 696.824 2276.59C697.771 2275 699.05 2273.74 700.66 2272.81C702.269 2271.88 704.069 2271.18 706.057 2270.71C708.046 2270.24 710.073 2269.88 712.137 2269.63C714.751 2269.33 716.872 2269.08 718.501 2268.89C720.129 2268.68 721.313 2268.35 722.052 2267.9C722.79 2267.44 723.16 2266.7 723.16 2265.68V2265.48C723.16 2263 722.459 2261.08 721.057 2259.72C719.675 2258.35 717.61 2257.67 714.864 2257.67C712.004 2257.67 709.751 2258.3 708.103 2259.57C706.474 2260.82 705.347 2262.22 704.722 2263.75L696.739 2261.93C697.686 2259.28 699.069 2257.14 700.887 2255.51C702.724 2253.86 704.836 2252.67 707.222 2251.93C709.608 2251.17 712.118 2250.8 714.751 2250.8C716.493 2250.8 718.34 2251 720.29 2251.42C722.26 2251.82 724.097 2252.56 725.802 2253.64C727.525 2254.72 728.936 2256.26 730.035 2258.27C731.133 2260.26 731.682 2262.84 731.682 2266.02V2295H723.387V2289.03H723.046C722.497 2290.13 721.673 2291.21 720.574 2292.27C719.476 2293.33 718.065 2294.21 716.341 2294.91C714.618 2295.62 712.554 2295.97 710.148 2295.97ZM711.995 2289.15C714.343 2289.15 716.351 2288.68 718.018 2287.76C719.703 2286.83 720.982 2285.62 721.853 2284.12C722.743 2282.6 723.188 2280.98 723.188 2279.26V2273.64C722.885 2273.94 722.298 2274.22 721.427 2274.49C720.574 2274.73 719.599 2274.95 718.501 2275.14C717.402 2275.31 716.332 2275.47 715.29 2275.62C714.249 2275.76 713.377 2275.87 712.677 2275.97C711.029 2276.17 709.523 2276.52 708.16 2277.02C706.815 2277.51 705.735 2278.22 704.921 2279.15C704.126 2280.06 703.728 2281.27 703.728 2282.78C703.728 2284.89 704.504 2286.48 706.057 2287.56C707.61 2288.62 709.59 2289.15 711.995 2289.15ZM762.486 2251.36V2258.18H738.65V2251.36H762.486ZM745.042 2240.91H753.537V2282.19C753.537 2283.84 753.783 2285.08 754.275 2285.91C754.768 2286.72 755.402 2287.28 756.179 2287.59C756.974 2287.87 757.836 2288.01 758.764 2288.01C759.446 2288.01 760.042 2287.96 760.554 2287.87C761.065 2287.77 761.463 2287.7 761.747 2287.64L763.281 2294.66C762.789 2294.85 762.088 2295.04 761.179 2295.23C760.27 2295.44 759.133 2295.55 757.77 2295.57C755.535 2295.61 753.452 2295.21 751.52 2294.38C749.588 2293.54 748.025 2292.25 746.832 2290.51C745.639 2288.77 745.042 2286.58 745.042 2283.95V2240.91ZM789.34 2295.88C785.041 2295.88 781.338 2294.96 778.232 2293.12C775.145 2291.27 772.759 2288.66 771.073 2285.31C769.406 2281.94 768.573 2277.99 768.573 2273.47C768.573 2269 769.406 2265.06 771.073 2261.65C772.759 2258.24 775.107 2255.58 778.118 2253.66C781.149 2251.75 784.69 2250.8 788.743 2250.8C791.205 2250.8 793.592 2251.2 795.902 2252.02C798.213 2252.83 800.287 2254.11 802.124 2255.85C803.961 2257.59 805.41 2259.86 806.471 2262.64C807.531 2265.41 808.062 2268.77 808.062 2272.73V2275.74H773.374V2269.38H799.738C799.738 2267.14 799.283 2265.16 798.374 2263.44C797.465 2261.7 796.187 2260.32 794.539 2259.32C792.91 2258.31 790.997 2257.81 788.8 2257.81C786.414 2257.81 784.33 2258.4 782.55 2259.57C780.789 2260.73 779.425 2262.24 778.459 2264.12C777.512 2265.98 777.039 2267.99 777.039 2270.17V2275.14C777.039 2278.06 777.55 2280.54 778.573 2282.59C779.615 2284.63 781.063 2286.19 782.92 2287.27C784.776 2288.33 786.944 2288.86 789.425 2288.86C791.035 2288.86 792.503 2288.64 793.829 2288.18C795.154 2287.71 796.3 2287.01 797.266 2286.08C798.232 2285.15 798.971 2284.01 799.482 2282.64L807.522 2284.09C806.878 2286.46 805.723 2288.53 804.056 2290.31C802.408 2292.07 800.334 2293.45 797.834 2294.43C795.353 2295.4 792.522 2295.88 789.34 2295.88ZM864.54 2276.9V2251.36H873.063V2295H864.711V2287.44H864.256C863.252 2289.77 861.642 2291.71 859.427 2293.27C857.23 2294.8 854.493 2295.57 851.216 2295.57C848.413 2295.57 845.932 2294.95 843.773 2293.72C841.633 2292.47 839.947 2290.62 838.716 2288.18C837.504 2285.74 836.898 2282.72 836.898 2279.12V2251.36H845.392V2278.1C845.392 2281.07 846.216 2283.44 847.864 2285.2C849.512 2286.96 851.652 2287.84 854.285 2287.84C855.875 2287.84 857.457 2287.44 859.029 2286.65C860.62 2285.85 861.936 2284.65 862.978 2283.04C864.038 2281.43 864.559 2279.38 864.54 2276.9ZM883.596 2311.36V2251.36H891.892V2258.44H892.602C893.094 2257.53 893.805 2256.48 894.733 2255.28C895.661 2254.09 896.949 2253.05 898.596 2252.16C900.244 2251.25 902.422 2250.8 905.13 2250.8C908.653 2250.8 911.797 2251.69 914.562 2253.47C917.327 2255.25 919.496 2257.81 921.068 2261.16C922.659 2264.52 923.454 2268.55 923.454 2273.27C923.454 2277.98 922.668 2282.03 921.096 2285.4C919.524 2288.75 917.365 2291.34 914.619 2293.15C911.873 2294.95 908.738 2295.85 905.216 2295.85C902.564 2295.85 900.396 2295.41 898.71 2294.52C897.043 2293.63 895.736 2292.59 894.789 2291.39C893.842 2290.2 893.113 2289.14 892.602 2288.21H892.091V2311.36H883.596ZM891.92 2273.18C891.92 2276.25 892.365 2278.94 893.255 2281.25C894.146 2283.56 895.433 2285.37 897.119 2286.68C898.805 2287.96 900.869 2288.61 903.312 2288.61C905.85 2288.61 907.971 2287.94 909.676 2286.59C911.38 2285.23 912.668 2283.38 913.539 2281.05C914.43 2278.72 914.875 2276.1 914.875 2273.18C914.875 2270.3 914.439 2267.72 913.568 2265.43C912.716 2263.13 911.428 2261.33 909.704 2260C908 2258.67 905.869 2258.01 903.312 2258.01C900.85 2258.01 898.767 2258.65 897.062 2259.91C895.377 2261.18 894.098 2262.95 893.227 2265.23C892.356 2267.5 891.92 2270.15 891.92 2273.18ZM948.426 2295.85C944.904 2295.85 941.76 2294.95 938.995 2293.15C936.248 2291.34 934.089 2288.75 932.517 2285.4C930.964 2282.03 930.188 2277.98 930.188 2273.27C930.188 2268.55 930.974 2264.52 932.546 2261.16C934.137 2257.81 936.315 2255.25 939.08 2253.47C941.845 2251.69 944.98 2250.8 948.483 2250.8C951.192 2250.8 953.37 2251.25 955.017 2252.16C956.684 2253.05 957.972 2254.09 958.881 2255.28C959.809 2256.48 960.529 2257.53 961.04 2258.44H961.551V2236.82H970.046V2295H961.75V2288.21H961.04C960.529 2289.14 959.79 2290.2 958.824 2291.39C957.877 2292.59 956.57 2293.63 954.904 2294.52C953.237 2295.41 951.078 2295.85 948.426 2295.85ZM950.301 2288.61C952.745 2288.61 954.809 2287.96 956.495 2286.68C958.199 2285.37 959.487 2283.56 960.358 2281.25C961.248 2278.94 961.694 2276.25 961.694 2273.18C961.694 2270.15 961.258 2267.5 960.387 2265.23C959.516 2262.95 958.237 2261.18 956.551 2259.91C954.866 2258.65 952.783 2258.01 950.301 2258.01C947.745 2258.01 945.614 2258.67 943.909 2260C942.205 2261.33 940.917 2263.13 940.046 2265.43C939.194 2267.72 938.767 2270.3 938.767 2273.18C938.767 2276.1 939.203 2278.72 940.074 2281.05C940.945 2283.38 942.233 2285.23 943.938 2286.59C945.661 2287.94 947.783 2288.61 950.301 2288.61ZM993.988 2295.97C991.223 2295.97 988.723 2295.45 986.488 2294.43C984.253 2293.39 982.483 2291.88 981.176 2289.91C979.888 2287.95 979.244 2285.53 979.244 2282.67C979.244 2280.21 979.717 2278.18 980.664 2276.59C981.611 2275 982.89 2273.74 984.5 2272.81C986.109 2271.88 987.909 2271.18 989.897 2270.71C991.886 2270.24 993.912 2269.88 995.977 2269.63C998.591 2269.33 1000.71 2269.08 1002.34 2268.89C1003.97 2268.68 1005.15 2268.35 1005.89 2267.9C1006.63 2267.44 1007 2266.7 1007 2265.68V2265.48C1007 2263 1006.3 2261.08 1004.9 2259.72C1003.51 2258.35 1001.45 2257.67 998.704 2257.67C995.844 2257.67 993.591 2258.3 991.943 2259.57C990.314 2260.82 989.187 2262.22 988.562 2263.75L980.579 2261.93C981.526 2259.28 982.909 2257.14 984.727 2255.51C986.564 2253.86 988.676 2252.67 991.062 2251.93C993.448 2251.17 995.958 2250.8 998.591 2250.8C1000.33 2250.8 1002.18 2251 1004.13 2251.42C1006.1 2251.82 1007.94 2252.56 1009.64 2253.64C1011.37 2254.72 1012.78 2256.26 1013.87 2258.27C1014.97 2260.26 1015.52 2262.84 1015.52 2266.02V2295H1007.23V2289.03H1006.89C1006.34 2290.13 1005.51 2291.21 1004.41 2292.27C1003.32 2293.33 1001.9 2294.21 1000.18 2294.91C998.458 2295.62 996.394 2295.97 993.988 2295.97ZM995.835 2289.15C998.183 2289.15 1000.19 2288.68 1001.86 2287.76C1003.54 2286.83 1004.82 2285.62 1005.69 2284.12C1006.58 2282.6 1007.03 2280.98 1007.03 2279.26V2273.64C1006.72 2273.94 1006.14 2274.22 1005.27 2274.49C1004.41 2274.73 1003.44 2274.95 1002.34 2275.14C1001.24 2275.31 1000.17 2275.47 999.13 2275.62C998.089 2275.76 997.217 2275.87 996.517 2275.97C994.869 2276.17 993.363 2276.52 992 2277.02C990.655 2277.51 989.575 2278.22 988.761 2279.15C987.966 2280.06 987.568 2281.27 987.568 2282.78C987.568 2284.89 988.344 2286.48 989.897 2287.56C991.45 2288.62 993.43 2289.15 995.835 2289.15ZM1046.33 2251.36V2258.18H1022.49V2251.36H1046.33ZM1028.88 2240.91H1037.38V2282.19C1037.38 2283.84 1037.62 2285.08 1038.12 2285.91C1038.61 2286.72 1039.24 2287.28 1040.02 2287.59C1040.81 2287.87 1041.68 2288.01 1042.6 2288.01C1043.29 2288.01 1043.88 2287.96 1044.39 2287.87C1044.91 2287.77 1045.3 2287.7 1045.59 2287.64L1047.12 2294.66C1046.63 2294.85 1045.93 2295.04 1045.02 2295.23C1044.11 2295.44 1042.97 2295.55 1041.61 2295.57C1039.37 2295.61 1037.29 2295.21 1035.36 2294.38C1033.43 2293.54 1031.87 2292.25 1030.67 2290.51C1029.48 2288.77 1028.88 2286.58 1028.88 2283.95V2240.91ZM1073.18 2295.88C1068.88 2295.88 1065.18 2294.96 1062.07 2293.12C1058.98 2291.27 1056.6 2288.66 1054.91 2285.31C1053.25 2281.94 1052.41 2277.99 1052.41 2273.47C1052.41 2269 1053.25 2265.06 1054.91 2261.65C1056.6 2258.24 1058.95 2255.58 1061.96 2253.66C1064.99 2251.75 1068.53 2250.8 1072.58 2250.8C1075.05 2250.8 1077.43 2251.2 1079.74 2252.02C1082.05 2252.83 1084.13 2254.11 1085.96 2255.85C1087.8 2257.59 1089.25 2259.86 1090.31 2262.64C1091.37 2265.41 1091.9 2268.77 1091.9 2272.73V2275.74H1057.21V2269.38H1083.58C1083.58 2267.14 1083.12 2265.16 1082.21 2263.44C1081.3 2261.7 1080.03 2260.32 1078.38 2259.32C1076.75 2258.31 1074.84 2257.81 1072.64 2257.81C1070.25 2257.81 1068.17 2258.4 1066.39 2259.57C1064.63 2260.73 1063.27 2262.24 1062.3 2264.12C1061.35 2265.98 1060.88 2267.99 1060.88 2270.17V2275.14C1060.88 2278.06 1061.39 2280.54 1062.41 2282.59C1063.45 2284.63 1064.9 2286.19 1066.76 2287.27C1068.62 2288.33 1070.78 2288.86 1073.27 2288.86C1074.88 2288.86 1076.34 2288.64 1077.67 2288.18C1078.99 2287.71 1080.14 2287.01 1081.11 2286.08C1082.07 2285.15 1082.81 2284.01 1083.32 2282.64L1091.36 2284.09C1090.72 2286.46 1089.56 2288.53 1087.9 2290.31C1086.25 2292.07 1084.17 2293.45 1081.67 2294.43C1079.19 2295.4 1076.36 2295.88 1073.18 2295.88Z" fill="black"/>
    <rect x="1074" y="1134" width="815" height="309" rx="80" fill="#9747FF"/>
    <path d="M1342.93 1254.18H1353.49V1300.1C1353.49 1304.99 1352.35 1309.32 1350.05 1313.09C1347.76 1316.84 1344.53 1319.8 1340.37 1321.95C1336.21 1324.09 1331.34 1325.16 1325.74 1325.16C1320.18 1325.16 1315.31 1324.09 1311.15 1321.95C1306.99 1319.8 1303.77 1316.84 1301.47 1313.09C1299.18 1309.32 1298.03 1304.99 1298.03 1300.1V1254.18H1308.56V1299.25C1308.56 1302.41 1309.26 1305.22 1310.64 1307.67C1312.05 1310.12 1314.04 1312.06 1316.61 1313.47C1319.18 1314.85 1322.22 1315.55 1325.74 1315.55C1329.29 1315.55 1332.35 1314.85 1334.92 1313.47C1337.51 1312.06 1339.48 1310.12 1340.85 1307.67C1342.23 1305.22 1342.93 1302.41 1342.93 1299.25V1254.18ZM1405.02 1284.42L1395.78 1286.06C1395.4 1284.87 1394.78 1283.75 1393.94 1282.68C1393.12 1281.61 1392.01 1280.74 1390.6 1280.06C1389.19 1279.37 1387.43 1279.03 1385.32 1279.03C1382.43 1279.03 1380.02 1279.68 1378.09 1280.98C1376.16 1282.25 1375.19 1283.9 1375.19 1285.92C1375.19 1287.67 1375.84 1289.08 1377.14 1290.15C1378.43 1291.22 1380.52 1292.09 1383.41 1292.77L1391.73 1294.68C1396.55 1295.8 1400.14 1297.51 1402.5 1299.83C1404.86 1302.15 1406.05 1305.16 1406.05 1308.86C1406.05 1312 1405.14 1314.8 1403.32 1317.25C1401.52 1319.68 1399.01 1321.59 1395.78 1322.98C1392.58 1324.36 1388.86 1325.06 1384.64 1325.06C1378.77 1325.06 1373.99 1323.81 1370.28 1321.31C1366.58 1318.78 1364.31 1315.2 1363.47 1310.57L1373.32 1309.07C1373.93 1311.64 1375.19 1313.58 1377.1 1314.9C1379.01 1316.19 1381.5 1316.84 1384.57 1316.84C1387.91 1316.84 1390.58 1316.15 1392.58 1314.76C1394.58 1313.35 1395.58 1311.64 1395.58 1309.61C1395.58 1307.98 1394.97 1306.6 1393.74 1305.49C1392.53 1304.37 1390.68 1303.53 1388.18 1302.97L1379.32 1301.02C1374.43 1299.91 1370.82 1298.14 1368.48 1295.7C1366.16 1293.27 1365 1290.19 1365 1286.47C1365 1283.37 1365.86 1280.67 1367.59 1278.35C1369.32 1276.03 1371.7 1274.23 1374.75 1272.93C1377.8 1271.61 1381.28 1270.95 1385.22 1270.95C1390.87 1270.95 1395.33 1272.18 1398.58 1274.64C1401.83 1277.07 1403.98 1280.33 1405.02 1284.42ZM1437.61 1325.06C1432.45 1325.06 1428.01 1323.95 1424.28 1321.75C1420.58 1319.52 1417.72 1316.4 1415.69 1312.38C1413.69 1308.33 1412.69 1303.59 1412.69 1298.16C1412.69 1292.8 1413.69 1288.07 1415.69 1283.98C1417.72 1279.89 1420.53 1276.69 1424.15 1274.4C1427.78 1272.1 1432.03 1270.95 1436.9 1270.95C1439.85 1270.95 1442.72 1271.44 1445.49 1272.42C1448.26 1273.4 1450.75 1274.93 1452.95 1277.02C1455.16 1279.11 1456.9 1281.83 1458.17 1285.17C1459.44 1288.49 1460.08 1292.52 1460.08 1297.27V1300.89H1418.45V1293.25H1450.09C1450.09 1290.57 1449.54 1288.19 1448.45 1286.12C1447.36 1284.03 1445.83 1282.39 1443.85 1281.18C1441.9 1279.98 1439.6 1279.38 1436.97 1279.38C1434.1 1279.38 1431.6 1280.08 1429.47 1281.49C1427.35 1282.87 1425.72 1284.69 1424.56 1286.94C1423.42 1289.17 1422.85 1291.59 1422.85 1294.2V1300.17C1422.85 1303.67 1423.47 1306.65 1424.69 1309.1C1425.94 1311.56 1427.68 1313.43 1429.91 1314.73C1432.14 1316 1434.74 1316.64 1437.72 1316.64C1439.65 1316.64 1441.41 1316.36 1443 1315.82C1444.59 1315.25 1445.97 1314.41 1447.12 1313.3C1448.28 1312.18 1449.17 1310.81 1449.78 1309.17L1459.43 1310.91C1458.66 1313.75 1457.27 1316.24 1455.27 1318.38C1453.29 1320.49 1450.81 1322.14 1447.81 1323.32C1444.83 1324.48 1441.43 1325.06 1437.61 1325.06ZM1491.24 1325.06C1486.17 1325.06 1481.81 1323.91 1478.15 1321.61C1474.51 1319.3 1471.71 1316.1 1469.76 1312.03C1467.81 1307.97 1466.83 1303.31 1466.83 1298.06C1466.83 1292.74 1467.83 1288.05 1469.83 1283.98C1471.83 1279.89 1474.65 1276.69 1478.28 1274.4C1481.92 1272.1 1486.2 1270.95 1491.13 1270.95C1495.11 1270.95 1498.66 1271.69 1501.77 1273.17C1504.88 1274.62 1507.4 1276.67 1509.31 1279.31C1511.24 1281.94 1512.38 1285.02 1512.75 1288.55H1502.83C1502.28 1286.09 1501.03 1283.98 1499.08 1282.2C1497.15 1280.43 1494.56 1279.55 1491.31 1279.55C1488.46 1279.55 1485.98 1280.3 1483.84 1281.8C1481.73 1283.27 1480.08 1285.39 1478.9 1288.14C1477.71 1290.86 1477.12 1294.09 1477.12 1297.82C1477.12 1301.64 1477.7 1304.93 1478.86 1307.7C1480.02 1310.48 1481.66 1312.62 1483.77 1314.15C1485.91 1315.67 1488.42 1316.43 1491.31 1316.43C1493.24 1316.43 1494.99 1316.08 1496.56 1315.38C1498.15 1314.65 1499.48 1313.61 1500.54 1312.27C1501.63 1310.93 1502.4 1309.32 1502.83 1307.43H1512.75C1512.38 1310.82 1511.28 1313.84 1509.44 1316.5C1507.6 1319.16 1505.13 1321.25 1502.04 1322.77C1498.98 1324.3 1495.37 1325.06 1491.24 1325.06ZM1536.68 1325.16C1533.36 1325.16 1530.36 1324.55 1527.68 1323.32C1525 1322.07 1522.87 1320.26 1521.3 1317.9C1519.76 1315.53 1518.99 1312.64 1518.99 1309.2C1518.99 1306.25 1519.55 1303.82 1520.69 1301.91C1521.83 1300 1523.36 1298.49 1525.29 1297.38C1527.23 1296.26 1529.38 1295.42 1531.77 1294.85C1534.16 1294.28 1536.59 1293.85 1539.07 1293.56C1542.2 1293.19 1544.75 1292.9 1546.7 1292.67C1548.66 1292.42 1550.08 1292.02 1550.96 1291.48C1551.85 1290.93 1552.29 1290.05 1552.29 1288.82V1288.58C1552.29 1285.6 1551.45 1283.3 1549.77 1281.66C1548.11 1280.02 1545.63 1279.2 1542.34 1279.2C1538.91 1279.2 1536.2 1279.97 1534.23 1281.49C1532.27 1282.99 1530.92 1284.66 1530.17 1286.5L1520.59 1284.32C1521.73 1281.14 1523.38 1278.57 1525.57 1276.61C1527.77 1274.64 1530.3 1273.2 1533.17 1272.32C1536.03 1271.41 1539.04 1270.95 1542.2 1270.95C1544.29 1270.95 1546.51 1271.2 1548.85 1271.7C1551.21 1272.18 1553.42 1273.07 1555.46 1274.36C1557.53 1275.66 1559.23 1277.51 1560.54 1279.92C1561.86 1282.31 1562.52 1285.41 1562.52 1289.23V1324H1552.57V1316.84H1552.16C1551.5 1318.16 1550.51 1319.45 1549.19 1320.73C1547.87 1322 1546.18 1323.06 1544.11 1323.9C1542.04 1324.74 1539.57 1325.16 1536.68 1325.16ZM1538.9 1316.98C1541.71 1316.98 1544.12 1316.42 1546.12 1315.31C1548.15 1314.19 1549.68 1312.74 1550.73 1310.94C1551.79 1309.12 1552.33 1307.18 1552.33 1305.11V1298.36C1551.96 1298.73 1551.26 1299.07 1550.21 1299.39C1549.19 1299.68 1548.02 1299.94 1546.7 1300.17C1545.38 1300.37 1544.1 1300.57 1542.85 1300.75C1541.6 1300.91 1540.55 1301.05 1539.71 1301.16C1537.74 1301.41 1535.93 1301.83 1534.29 1302.42C1532.68 1303.01 1531.38 1303.86 1530.41 1304.98C1529.45 1306.07 1528.98 1307.52 1528.98 1309.34C1528.98 1311.86 1529.91 1313.77 1531.77 1315.07C1533.63 1316.34 1536.01 1316.98 1538.9 1316.98ZM1613.13 1284.42L1603.89 1286.06C1603.5 1284.87 1602.89 1283.75 1602.05 1282.68C1601.23 1281.61 1600.12 1280.74 1598.71 1280.06C1597.3 1279.37 1595.54 1279.03 1593.42 1279.03C1590.54 1279.03 1588.13 1279.68 1586.2 1280.98C1584.26 1282.25 1583.3 1283.9 1583.3 1285.92C1583.3 1287.67 1583.95 1289.08 1585.24 1290.15C1586.54 1291.22 1588.63 1292.09 1591.51 1292.77L1599.83 1294.68C1604.65 1295.8 1608.24 1297.51 1610.61 1299.83C1612.97 1302.15 1614.15 1305.16 1614.15 1308.86C1614.15 1312 1613.24 1314.8 1611.42 1317.25C1609.63 1319.68 1607.12 1321.59 1603.89 1322.98C1600.68 1324.36 1596.97 1325.06 1592.74 1325.06C1586.88 1325.06 1582.09 1323.81 1578.39 1321.31C1574.68 1318.78 1572.41 1315.2 1571.57 1310.57L1581.42 1309.07C1582.04 1311.64 1583.3 1313.58 1585.21 1314.9C1587.12 1316.19 1589.61 1316.84 1592.67 1316.84C1596.01 1316.84 1598.68 1316.15 1600.68 1314.76C1602.68 1313.35 1603.68 1311.64 1603.68 1309.61C1603.68 1307.98 1603.07 1306.6 1601.84 1305.49C1600.64 1304.37 1598.79 1303.53 1596.29 1302.97L1587.42 1301.02C1582.54 1299.91 1578.92 1298.14 1576.58 1295.7C1574.26 1293.27 1573.11 1290.19 1573.11 1286.47C1573.11 1283.37 1573.97 1280.67 1575.7 1278.35C1577.42 1276.03 1579.81 1274.23 1582.86 1272.93C1585.9 1271.61 1589.39 1270.95 1593.32 1270.95C1598.98 1270.95 1603.43 1272.18 1606.68 1274.64C1609.93 1277.07 1612.08 1280.33 1613.13 1284.42ZM1645.72 1325.06C1640.56 1325.06 1636.12 1323.95 1632.39 1321.75C1628.68 1319.52 1625.82 1316.4 1623.8 1312.38C1621.8 1308.33 1620.8 1303.59 1620.8 1298.16C1620.8 1292.8 1621.8 1288.07 1623.8 1283.98C1625.82 1279.89 1628.64 1276.69 1632.25 1274.4C1635.89 1272.1 1640.14 1270.95 1645 1270.95C1647.96 1270.95 1650.82 1271.44 1653.59 1272.42C1656.37 1273.4 1658.85 1274.93 1661.06 1277.02C1663.26 1279.11 1665 1281.83 1666.28 1285.17C1667.55 1288.49 1668.18 1292.52 1668.18 1297.27V1300.89H1626.56V1293.25H1658.2C1658.2 1290.57 1657.65 1288.19 1656.56 1286.12C1655.47 1284.03 1653.93 1282.39 1651.96 1281.18C1650 1279.98 1647.71 1279.38 1645.07 1279.38C1642.21 1279.38 1639.71 1280.08 1637.57 1281.49C1635.46 1282.87 1633.82 1284.69 1632.66 1286.94C1631.53 1289.17 1630.96 1291.59 1630.96 1294.2V1300.17C1630.96 1303.67 1631.57 1306.65 1632.8 1309.1C1634.05 1311.56 1635.79 1313.43 1638.01 1314.73C1640.24 1316 1642.84 1316.64 1645.82 1316.64C1647.75 1316.64 1649.51 1316.36 1651.1 1315.82C1652.7 1315.25 1654.07 1314.41 1655.23 1313.3C1656.39 1312.18 1657.28 1310.81 1657.89 1309.17L1667.54 1310.91C1666.76 1313.75 1665.38 1316.24 1663.38 1318.38C1661.4 1320.49 1658.91 1322.14 1655.91 1323.32C1652.93 1324.48 1649.54 1325.06 1645.72 1325.06Z" fill="white"/>
    <path d="M1477.96 1700.54C1479.92 1702.49 1483.08 1702.49 1485.04 1700.54L1516.86 1668.72C1518.81 1666.76 1518.81 1663.6 1516.86 1661.64C1514.9 1659.69 1511.74 1659.69 1509.78 1661.64L1481.5 1689.93L1453.22 1661.64C1451.26 1659.69 1448.1 1659.69 1446.14 1661.64C1444.19 1663.6 1444.19 1666.76 1446.14 1668.72L1477.96 1700.54ZM1486.5 1447C1486.5 1444.24 1484.26 1442 1481.5 1442C1478.74 1442 1476.5 1444.24 1476.5 1447H1486.5ZM1486.5 1697V1447H1476.5V1697H1486.5Z" fill="#B3B3B3"/>
    <rect x="1074" y="567" width="815" height="309" rx="80" fill="#9747FF"/>
    <path d="M1251.18 757V687.182H1276.07C1281.48 687.182 1285.97 688.114 1289.54 689.977C1293.13 691.841 1295.81 694.42 1297.58 697.716C1299.36 700.989 1300.24 704.773 1300.24 709.068C1300.24 713.341 1299.34 717.102 1297.55 720.352C1295.78 723.58 1293.09 726.091 1289.5 727.886C1285.93 729.682 1281.45 730.58 1276.04 730.58H1257.18V721.511H1275.08C1278.49 721.511 1281.26 721.023 1283.4 720.045C1285.56 719.068 1287.14 717.648 1288.14 715.784C1289.14 713.92 1289.64 711.682 1289.64 709.068C1289.64 706.432 1289.13 704.148 1288.11 702.216C1287.11 700.284 1285.53 698.807 1283.37 697.784C1281.23 696.739 1278.42 696.216 1274.95 696.216H1261.72V757H1251.18ZM1285.65 725.5L1302.9 757H1290.9L1273.99 725.5H1285.65ZM1331.95 758.057C1326.79 758.057 1322.34 756.955 1318.62 754.75C1314.91 752.523 1312.05 749.398 1310.02 745.375C1308.02 741.33 1307.02 736.591 1307.02 731.159C1307.02 725.795 1308.02 721.068 1310.02 716.977C1312.05 712.886 1314.87 709.693 1318.48 707.398C1322.12 705.102 1326.37 703.955 1331.23 703.955C1334.18 703.955 1337.05 704.443 1339.82 705.42C1342.59 706.398 1345.08 707.932 1347.29 710.023C1349.49 712.114 1351.23 714.83 1352.5 718.17C1353.77 721.489 1354.41 725.523 1354.41 730.273V733.886H1312.79V726.25H1344.42C1344.42 723.568 1343.88 721.193 1342.79 719.125C1341.7 717.034 1340.16 715.386 1338.18 714.182C1336.23 712.977 1333.93 712.375 1331.3 712.375C1328.43 712.375 1325.93 713.08 1323.8 714.489C1321.68 715.875 1320.05 717.693 1318.89 719.943C1317.75 722.17 1317.18 724.591 1317.18 727.205V733.17C1317.18 736.67 1317.8 739.648 1319.02 742.102C1320.27 744.557 1322.01 746.432 1324.24 747.727C1326.47 749 1329.07 749.636 1332.05 749.636C1333.98 749.636 1335.74 749.364 1337.33 748.818C1338.92 748.25 1340.3 747.409 1341.46 746.295C1342.62 745.182 1343.5 743.807 1344.12 742.17L1353.76 743.909C1352.99 746.75 1351.6 749.239 1349.6 751.375C1347.63 753.489 1345.14 755.136 1342.14 756.318C1339.16 757.477 1335.76 758.057 1331.95 758.057ZM1363.51 776.636V704.636H1373.47V713.125H1374.32C1374.91 712.034 1375.76 710.773 1376.88 709.341C1377.99 707.909 1379.54 706.659 1381.51 705.591C1383.49 704.5 1386.1 703.955 1389.35 703.955C1393.58 703.955 1397.35 705.023 1400.67 707.159C1403.99 709.295 1406.59 712.375 1408.48 716.398C1410.39 720.42 1411.34 725.261 1411.34 730.92C1411.34 736.58 1410.4 741.432 1408.51 745.477C1406.63 749.5 1404.04 752.602 1400.74 754.784C1397.44 756.943 1393.68 758.023 1389.46 758.023C1386.27 758.023 1383.67 757.489 1381.65 756.42C1379.65 755.352 1378.08 754.102 1376.94 752.67C1375.81 751.239 1374.93 749.966 1374.32 748.852H1373.71V776.636H1363.51ZM1373.5 730.818C1373.5 734.5 1374.04 737.727 1375.1 740.5C1376.17 743.273 1377.72 745.443 1379.74 747.011C1381.76 748.557 1384.24 749.33 1387.17 749.33C1390.22 749.33 1392.76 748.523 1394.81 746.909C1396.85 745.273 1398.4 743.057 1399.44 740.261C1400.51 737.466 1401.05 734.318 1401.05 730.818C1401.05 727.364 1400.52 724.261 1399.48 721.511C1398.46 718.761 1396.91 716.591 1394.84 715C1392.8 713.409 1390.24 712.614 1387.17 712.614C1384.22 712.614 1381.72 713.375 1379.67 714.898C1377.65 716.42 1376.12 718.545 1375.07 721.273C1374.02 724 1373.5 727.182 1373.5 730.818ZM1442.61 758.057C1437.7 758.057 1433.42 756.932 1429.76 754.682C1426.1 752.432 1423.26 749.284 1421.24 745.239C1419.21 741.193 1418.2 736.466 1418.2 731.057C1418.2 725.625 1419.21 720.875 1421.24 716.807C1423.26 712.739 1426.1 709.58 1429.76 707.33C1433.42 705.08 1437.7 703.955 1442.61 703.955C1447.52 703.955 1451.8 705.08 1455.46 707.33C1459.12 709.58 1461.96 712.739 1463.99 716.807C1466.01 720.875 1467.02 725.625 1467.02 731.057C1467.02 736.466 1466.01 741.193 1463.99 745.239C1461.96 749.284 1459.12 752.432 1455.46 754.682C1451.8 756.932 1447.52 758.057 1442.61 758.057ZM1442.65 749.5C1445.83 749.5 1448.46 748.659 1450.55 746.977C1452.65 745.295 1454.19 743.057 1455.19 740.261C1456.21 737.466 1456.73 734.386 1456.73 731.023C1456.73 727.682 1456.21 724.614 1455.19 721.818C1454.19 719 1452.65 716.739 1450.55 715.034C1448.46 713.33 1445.83 712.477 1442.65 712.477C1439.44 712.477 1436.78 713.33 1434.67 715.034C1432.58 716.739 1431.02 719 1430 721.818C1429 724.614 1428.5 727.682 1428.5 731.023C1428.5 734.386 1429 737.466 1430 740.261C1431.02 743.057 1432.58 745.295 1434.67 746.977C1436.78 748.659 1439.44 749.5 1442.65 749.5ZM1515.43 717.42L1506.19 719.057C1505.8 717.875 1505.19 716.75 1504.35 715.682C1503.53 714.614 1502.42 713.739 1501.01 713.057C1499.6 712.375 1497.84 712.034 1495.72 712.034C1492.84 712.034 1490.43 712.682 1488.5 713.977C1486.57 715.25 1485.6 716.898 1485.6 718.92C1485.6 720.67 1486.25 722.08 1487.54 723.148C1488.84 724.216 1490.93 725.091 1493.82 725.773L1502.13 727.682C1506.95 728.795 1510.54 730.511 1512.91 732.83C1515.27 735.148 1516.45 738.159 1516.45 741.864C1516.45 745 1515.54 747.795 1513.72 750.25C1511.93 752.682 1509.42 754.591 1506.19 755.977C1502.99 757.364 1499.27 758.057 1495.04 758.057C1489.18 758.057 1484.4 756.807 1480.69 754.307C1476.99 751.784 1474.71 748.205 1473.87 743.568L1483.72 742.068C1484.34 744.636 1485.6 746.58 1487.51 747.898C1489.42 749.193 1491.91 749.841 1494.97 749.841C1498.32 749.841 1500.99 749.148 1502.99 747.761C1504.99 746.352 1505.99 744.636 1505.99 742.614C1505.99 740.977 1505.37 739.602 1504.15 738.489C1502.94 737.375 1501.09 736.534 1498.59 735.966L1489.72 734.023C1484.84 732.909 1481.22 731.136 1478.88 728.705C1476.57 726.273 1475.41 723.193 1475.41 719.466C1475.41 716.375 1476.27 713.67 1478 711.352C1479.72 709.034 1482.11 707.227 1485.16 705.932C1488.2 704.614 1491.69 703.955 1495.62 703.955C1501.28 703.955 1505.74 705.182 1508.99 707.636C1512.24 710.068 1514.38 713.33 1515.43 717.42ZM1525.45 757V704.636H1535.64V757H1525.45ZM1530.6 696.557C1528.83 696.557 1527.3 695.966 1526.03 694.784C1524.78 693.58 1524.16 692.148 1524.16 690.489C1524.16 688.807 1524.78 687.375 1526.03 686.193C1527.3 684.989 1528.83 684.386 1530.6 684.386C1532.37 684.386 1533.88 684.989 1535.13 686.193C1536.41 687.375 1537.04 688.807 1537.04 690.489C1537.04 692.148 1536.41 693.58 1535.13 694.784C1533.88 695.966 1532.37 696.557 1530.6 696.557ZM1571.59 704.636V712.818H1542.99V704.636H1571.59ZM1550.66 692.091H1560.85V741.625C1560.85 743.602 1561.15 745.091 1561.74 746.091C1562.33 747.068 1563.09 747.739 1564.02 748.102C1564.98 748.443 1566.01 748.614 1567.13 748.614C1567.95 748.614 1568.66 748.557 1569.27 748.443C1569.89 748.33 1570.37 748.239 1570.71 748.17L1572.55 756.591C1571.96 756.818 1571.12 757.045 1570.02 757.273C1568.93 757.523 1567.57 757.659 1565.93 757.682C1563.25 757.727 1560.75 757.25 1558.43 756.25C1556.12 755.25 1554.24 753.705 1552.81 751.614C1551.38 749.523 1550.66 746.898 1550.66 743.739V692.091ZM1602.15 758.057C1597.25 758.057 1592.96 756.932 1589.3 754.682C1585.64 752.432 1582.8 749.284 1580.78 745.239C1578.76 741.193 1577.75 736.466 1577.75 731.057C1577.75 725.625 1578.76 720.875 1580.78 716.807C1582.8 712.739 1585.64 709.58 1589.3 707.33C1592.96 705.08 1597.25 703.955 1602.15 703.955C1607.06 703.955 1611.35 705.08 1615.01 707.33C1618.67 709.58 1621.51 712.739 1623.53 716.807C1625.55 720.875 1626.56 725.625 1626.56 731.057C1626.56 736.466 1625.55 741.193 1623.53 745.239C1621.51 749.284 1618.67 752.432 1615.01 754.682C1611.35 756.932 1607.06 758.057 1602.15 758.057ZM1602.19 749.5C1605.37 749.5 1608.01 748.659 1610.1 746.977C1612.19 745.295 1613.73 743.057 1614.73 740.261C1615.76 737.466 1616.27 734.386 1616.27 731.023C1616.27 727.682 1615.76 724.614 1614.73 721.818C1613.73 719 1612.19 716.739 1610.1 715.034C1608.01 713.33 1605.37 712.477 1602.19 712.477C1598.98 712.477 1596.33 713.33 1594.21 715.034C1592.12 716.739 1590.56 719 1589.54 721.818C1588.54 724.614 1588.04 727.682 1588.04 731.023C1588.04 734.386 1588.54 737.466 1589.54 740.261C1590.56 743.057 1592.12 745.295 1594.21 746.977C1596.33 748.659 1598.98 749.5 1602.19 749.5ZM1635.73 757V704.636H1645.59V712.955H1646.13C1647.09 710.136 1648.77 707.92 1651.18 706.307C1653.61 704.67 1656.36 703.852 1659.43 703.852C1660.06 703.852 1660.81 703.875 1661.68 703.92C1662.56 703.966 1663.26 704.023 1663.76 704.091V713.841C1663.35 713.727 1662.62 713.602 1661.57 713.466C1660.53 713.307 1659.48 713.227 1658.44 713.227C1656.03 713.227 1653.88 713.739 1651.99 714.761C1650.13 715.761 1648.65 717.159 1647.56 718.955C1646.47 720.727 1645.93 722.75 1645.93 725.023V757H1635.73ZM1678.41 776.636C1676.88 776.636 1675.5 776.511 1674.25 776.261C1673 776.034 1672.07 775.784 1671.45 775.511L1673.91 767.159C1675.77 767.659 1677.43 767.875 1678.88 767.807C1680.34 767.739 1681.62 767.193 1682.74 766.17C1683.87 765.148 1684.87 763.477 1685.74 761.159L1687 757.682L1667.84 704.636H1678.75L1692.01 745.273H1692.55L1705.82 704.636H1716.76L1695.18 763.989C1694.18 766.716 1692.91 769.023 1691.36 770.909C1689.82 772.818 1687.97 774.25 1685.84 775.205C1683.7 776.159 1681.22 776.636 1678.41 776.636Z" fill="white"/>
    <path d="M1477.96 1133.54C1479.92 1135.49 1483.08 1135.49 1485.04 1133.54L1516.86 1101.72C1518.81 1099.76 1518.81 1096.6 1516.86 1094.64C1514.9 1092.69 1511.74 1092.69 1509.78 1094.64L1481.5 1122.93L1453.22 1094.64C1451.26 1092.69 1448.1 1092.69 1446.14 1094.64C1444.19 1096.6 1444.19 1099.76 1446.14 1101.72L1477.96 1133.54ZM1486.5 880C1486.5 877.239 1484.26 875 1481.5 875C1478.74 875 1476.5 877.239 1476.5 880H1486.5ZM1486.5 1130V880H1476.5V1130H1486.5Z" fill="#B3B3B3"/>
    <rect x="1074" width="815" height="309" rx="80" fill="#9747FF"/>
    <path d="M1258.46 190H1235.86V120.182H1259.17C1266.02 120.182 1271.89 121.58 1276.8 124.375C1281.71 127.148 1285.47 131.136 1288.08 136.341C1290.72 141.523 1292.04 147.739 1292.04 154.989C1292.04 162.261 1290.71 168.511 1288.05 173.739C1285.41 178.966 1281.6 182.989 1276.6 185.807C1271.6 188.602 1265.55 190 1258.46 190ZM1246.39 180.795H1257.88C1263.2 180.795 1267.62 179.795 1271.14 177.795C1274.66 175.773 1277.3 172.852 1279.05 169.034C1280.8 165.193 1281.67 160.511 1281.67 154.989C1281.67 149.511 1280.8 144.864 1279.05 141.045C1277.32 137.227 1274.74 134.33 1271.31 132.352C1267.88 130.375 1263.62 129.386 1258.53 129.386H1246.39V180.795ZM1317.35 191.159C1314.03 191.159 1311.03 190.545 1308.35 189.318C1305.67 188.068 1303.54 186.261 1301.98 183.898C1300.43 181.534 1299.66 178.636 1299.66 175.205C1299.66 172.25 1300.23 169.818 1301.36 167.909C1302.5 166 1304.03 164.489 1305.96 163.375C1307.9 162.261 1310.05 161.42 1312.44 160.852C1314.83 160.284 1317.26 159.852 1319.74 159.557C1322.87 159.193 1325.42 158.898 1327.37 158.67C1329.33 158.42 1330.75 158.023 1331.63 157.477C1332.52 156.932 1332.96 156.045 1332.96 154.818V154.58C1332.96 151.602 1332.12 149.295 1330.44 147.659C1328.78 146.023 1326.3 145.205 1323.01 145.205C1319.58 145.205 1316.87 145.966 1314.9 147.489C1312.94 148.989 1311.59 150.659 1310.84 152.5L1301.26 150.318C1302.4 147.136 1304.05 144.568 1306.24 142.614C1308.44 140.636 1310.98 139.205 1313.84 138.318C1316.7 137.409 1319.71 136.955 1322.87 136.955C1324.96 136.955 1327.18 137.205 1329.52 137.705C1331.88 138.182 1334.09 139.068 1336.13 140.364C1338.2 141.659 1339.9 143.511 1341.21 145.92C1342.53 148.307 1343.19 151.409 1343.19 155.227V190H1333.24V182.841H1332.83C1332.17 184.159 1331.18 185.455 1329.86 186.727C1328.54 188 1326.85 189.057 1324.78 189.898C1322.71 190.739 1320.24 191.159 1317.35 191.159ZM1319.57 182.977C1322.38 182.977 1324.79 182.42 1326.79 181.307C1328.82 180.193 1330.35 178.739 1331.4 176.943C1332.46 175.125 1333 173.182 1333 171.114V164.364C1332.63 164.727 1331.93 165.068 1330.88 165.386C1329.86 165.682 1328.69 165.943 1327.37 166.17C1326.05 166.375 1324.77 166.568 1323.52 166.75C1322.27 166.909 1321.23 167.045 1320.38 167.159C1318.41 167.409 1316.6 167.83 1314.96 168.42C1313.35 169.011 1312.05 169.864 1311.08 170.977C1310.12 172.068 1309.65 173.523 1309.65 175.341C1309.65 177.864 1310.58 179.773 1312.44 181.068C1314.3 182.341 1316.68 182.977 1319.57 182.977ZM1379 137.636V145.818H1350.4V137.636H1379ZM1358.07 125.091H1368.26V174.625C1368.26 176.602 1368.56 178.091 1369.15 179.091C1369.74 180.068 1370.5 180.739 1371.43 181.102C1372.39 181.443 1373.42 181.614 1374.54 181.614C1375.36 181.614 1376.07 181.557 1376.68 181.443C1377.3 181.33 1377.78 181.239 1378.12 181.17L1379.96 189.591C1379.37 189.818 1378.53 190.045 1377.43 190.273C1376.34 190.523 1374.98 190.659 1373.34 190.682C1370.66 190.727 1368.16 190.25 1365.84 189.25C1363.53 188.25 1361.65 186.705 1360.22 184.614C1358.79 182.523 1358.07 179.898 1358.07 176.739V125.091ZM1403.31 191.159C1399.99 191.159 1396.99 190.545 1394.31 189.318C1391.63 188.068 1389.5 186.261 1387.93 183.898C1386.39 181.534 1385.62 178.636 1385.62 175.205C1385.62 172.25 1386.18 169.818 1387.32 167.909C1388.46 166 1389.99 164.489 1391.92 163.375C1393.85 162.261 1396.01 161.42 1398.4 160.852C1400.79 160.284 1403.22 159.852 1405.7 159.557C1408.83 159.193 1411.38 158.898 1413.33 158.67C1415.29 158.42 1416.71 158.023 1417.59 157.477C1418.48 156.932 1418.92 156.045 1418.92 154.818V154.58C1418.92 151.602 1418.08 149.295 1416.4 147.659C1414.74 146.023 1412.26 145.205 1408.97 145.205C1405.54 145.205 1402.83 145.966 1400.85 147.489C1398.9 148.989 1397.55 150.659 1396.8 152.5L1387.22 150.318C1388.35 147.136 1390.01 144.568 1392.2 142.614C1394.4 140.636 1396.93 139.205 1399.8 138.318C1402.66 137.409 1405.67 136.955 1408.83 136.955C1410.92 136.955 1413.14 137.205 1415.48 137.705C1417.84 138.182 1420.05 139.068 1422.09 140.364C1424.16 141.659 1425.85 143.511 1427.17 145.92C1428.49 148.307 1429.15 151.409 1429.15 155.227V190H1419.2V182.841H1418.79C1418.13 184.159 1417.14 185.455 1415.82 186.727C1414.5 188 1412.81 189.057 1410.74 189.898C1408.67 190.739 1406.2 191.159 1403.31 191.159ZM1405.53 182.977C1408.34 182.977 1410.75 182.42 1412.75 181.307C1414.78 180.193 1416.31 178.739 1417.35 176.943C1418.42 175.125 1418.96 173.182 1418.96 171.114V164.364C1418.59 164.727 1417.89 165.068 1416.84 165.386C1415.82 165.682 1414.65 165.943 1413.33 166.17C1412.01 166.375 1410.73 166.568 1409.48 166.75C1408.23 166.909 1407.18 167.045 1406.34 167.159C1404.37 167.409 1402.56 167.83 1400.92 168.42C1399.31 169.011 1398.01 169.864 1397.04 170.977C1396.08 172.068 1395.6 173.523 1395.6 175.341C1395.6 177.864 1396.54 179.773 1398.4 181.068C1400.26 182.341 1402.64 182.977 1405.53 182.977ZM1479.76 150.42L1470.52 152.057C1470.13 150.875 1469.52 149.75 1468.68 148.682C1467.86 147.614 1466.75 146.739 1465.34 146.057C1463.93 145.375 1462.17 145.034 1460.05 145.034C1457.17 145.034 1454.76 145.682 1452.83 146.977C1450.89 148.25 1449.93 149.898 1449.93 151.92C1449.93 153.67 1450.58 155.08 1451.87 156.148C1453.17 157.216 1455.26 158.091 1458.14 158.773L1466.46 160.682C1471.28 161.795 1474.87 163.511 1477.23 165.83C1479.6 168.148 1480.78 171.159 1480.78 174.864C1480.78 178 1479.87 180.795 1478.05 183.25C1476.26 185.682 1473.75 187.591 1470.52 188.977C1467.31 190.364 1463.6 191.057 1459.37 191.057C1453.51 191.057 1448.72 189.807 1445.02 187.307C1441.31 184.784 1439.04 181.205 1438.2 176.568L1448.05 175.068C1448.67 177.636 1449.93 179.58 1451.84 180.898C1453.75 182.193 1456.23 182.841 1459.3 182.841C1462.64 182.841 1465.31 182.148 1467.31 180.761C1469.31 179.352 1470.31 177.636 1470.31 175.614C1470.31 173.977 1469.7 172.602 1468.47 171.489C1467.27 170.375 1465.42 169.534 1462.92 168.966L1454.05 167.023C1449.17 165.909 1445.55 164.136 1443.21 161.705C1440.89 159.273 1439.73 156.193 1439.73 152.466C1439.73 149.375 1440.6 146.67 1442.33 144.352C1444.05 142.034 1446.44 140.227 1449.48 138.932C1452.53 137.614 1456.02 136.955 1459.95 136.955C1465.61 136.955 1470.06 138.182 1473.31 140.636C1476.56 143.068 1478.71 146.33 1479.76 150.42ZM1511.84 191.057C1506.93 191.057 1502.64 189.932 1498.98 187.682C1495.32 185.432 1492.48 182.284 1490.46 178.239C1488.44 174.193 1487.43 169.466 1487.43 164.057C1487.43 158.625 1488.44 153.875 1490.46 149.807C1492.48 145.739 1495.32 142.58 1498.98 140.33C1502.64 138.08 1506.93 136.955 1511.84 136.955C1516.75 136.955 1521.03 138.08 1524.69 140.33C1528.35 142.58 1531.19 145.739 1533.21 149.807C1535.23 153.875 1536.25 158.625 1536.25 164.057C1536.25 169.466 1535.23 174.193 1533.21 178.239C1531.19 182.284 1528.35 185.432 1524.69 187.682C1521.03 189.932 1516.75 191.057 1511.84 191.057ZM1511.87 182.5C1515.05 182.5 1517.69 181.659 1519.78 179.977C1521.87 178.295 1523.42 176.057 1524.42 173.261C1525.44 170.466 1525.95 167.386 1525.95 164.023C1525.95 160.682 1525.44 157.614 1524.42 154.818C1523.42 152 1521.87 149.739 1519.78 148.034C1517.69 146.33 1515.05 145.477 1511.87 145.477C1508.67 145.477 1506.01 146.33 1503.89 148.034C1501.8 149.739 1500.25 152 1499.22 154.818C1498.22 157.614 1497.72 160.682 1497.72 164.023C1497.72 167.386 1498.22 170.466 1499.22 173.261C1500.25 176.057 1501.8 178.295 1503.89 179.977C1506.01 181.659 1508.67 182.5 1511.87 182.5ZM1578.59 168.284V137.636H1588.81V190H1578.79V180.932H1578.24C1577.04 183.727 1575.11 186.057 1572.45 187.92C1569.81 189.761 1566.53 190.682 1562.6 190.682C1559.23 190.682 1556.26 189.943 1553.67 188.466C1551.1 186.966 1549.07 184.75 1547.6 181.818C1546.14 178.886 1545.42 175.261 1545.42 170.943V137.636H1555.61V169.716C1555.61 173.284 1556.6 176.125 1558.57 178.239C1560.55 180.352 1563.12 181.409 1566.28 181.409C1568.19 181.409 1570.09 180.932 1571.97 179.977C1573.88 179.023 1575.46 177.58 1576.71 175.648C1577.98 173.716 1578.61 171.261 1578.59 168.284ZM1600.3 190V137.636H1610.15V145.955H1610.7C1611.65 143.136 1613.34 140.92 1615.74 139.307C1618.18 137.67 1620.93 136.852 1623.99 136.852C1624.63 136.852 1625.38 136.875 1626.24 136.92C1627.13 136.966 1627.82 137.023 1628.32 137.091V146.841C1627.91 146.727 1627.19 146.602 1626.14 146.466C1625.1 146.307 1624.05 146.227 1623.01 146.227C1620.6 146.227 1618.45 146.739 1616.56 147.761C1614.7 148.761 1613.22 150.159 1612.13 151.955C1611.04 153.727 1610.49 155.75 1610.49 158.023V190H1600.3ZM1655.12 191.057C1650.05 191.057 1645.69 189.909 1642.03 187.614C1638.39 185.295 1635.6 182.102 1633.64 178.034C1631.69 173.966 1630.71 169.307 1630.71 164.057C1630.71 158.739 1631.71 154.045 1633.71 149.977C1635.71 145.886 1638.53 142.693 1642.16 140.398C1645.8 138.102 1650.08 136.955 1655.02 136.955C1658.99 136.955 1662.54 137.693 1665.65 139.17C1668.77 140.625 1671.28 142.67 1673.19 145.307C1675.12 147.943 1676.27 151.023 1676.63 154.545H1666.71C1666.16 152.091 1664.91 149.977 1662.96 148.205C1661.03 146.432 1658.44 145.545 1655.19 145.545C1652.35 145.545 1649.86 146.295 1647.72 147.795C1645.61 149.273 1643.96 151.386 1642.78 154.136C1641.6 156.864 1641 160.091 1641 163.818C1641 167.636 1641.58 170.932 1642.74 173.705C1643.9 176.477 1645.54 178.625 1647.65 180.148C1649.79 181.67 1652.3 182.432 1655.19 182.432C1657.12 182.432 1658.87 182.08 1660.44 181.375C1662.03 180.648 1663.36 179.614 1664.43 178.273C1665.52 176.932 1666.28 175.318 1666.71 173.432H1676.63C1676.27 176.818 1675.16 179.841 1673.32 182.5C1671.48 185.159 1669.02 187.25 1665.93 188.773C1662.86 190.295 1659.25 191.057 1655.12 191.057ZM1707.89 191.057C1702.73 191.057 1698.29 189.955 1694.56 187.75C1690.86 185.523 1687.99 182.398 1685.97 178.375C1683.97 174.33 1682.97 169.591 1682.97 164.159C1682.97 158.795 1683.97 154.068 1685.97 149.977C1687.99 145.886 1690.81 142.693 1694.42 140.398C1698.06 138.102 1702.31 136.955 1707.17 136.955C1710.13 136.955 1712.99 137.443 1715.77 138.42C1718.54 139.398 1721.03 140.932 1723.23 143.023C1725.44 145.114 1727.17 147.83 1728.45 151.17C1729.72 154.489 1730.36 158.523 1730.36 163.273V166.886H1688.73V159.25H1720.37C1720.37 156.568 1719.82 154.193 1718.73 152.125C1717.64 150.034 1716.11 148.386 1714.13 147.182C1712.17 145.977 1709.88 145.375 1707.24 145.375C1704.38 145.375 1701.88 146.08 1699.74 147.489C1697.63 148.875 1695.99 150.693 1694.83 152.943C1693.7 155.17 1693.13 157.591 1693.13 160.205V166.17C1693.13 169.67 1693.74 172.648 1694.97 175.102C1696.22 177.557 1697.96 179.432 1700.19 180.727C1702.41 182 1705.02 182.636 1707.99 182.636C1709.92 182.636 1711.69 182.364 1713.28 181.818C1714.87 181.25 1716.24 180.409 1717.4 179.295C1718.56 178.182 1719.45 176.807 1720.06 175.17L1729.71 176.909C1728.94 179.75 1727.55 182.239 1725.55 184.375C1723.57 186.489 1721.08 188.136 1718.08 189.318C1715.11 190.477 1711.71 191.057 1707.89 191.057Z" fill="white"/>
    <path d="M1477.96 566.536C1479.92 568.488 1483.08 568.488 1485.04 566.536L1516.86 534.716C1518.81 532.763 1518.81 529.597 1516.86 527.645C1514.9 525.692 1511.74 525.692 1509.78 527.645L1481.5 555.929L1453.22 527.645C1451.26 525.692 1448.1 525.692 1446.14 527.645C1444.19 529.597 1444.19 532.763 1446.14 534.716L1477.96 566.536ZM1486.5 313C1486.5 310.239 1484.26 308 1481.5 308C1478.74 308 1476.5 310.239 1476.5 313H1486.5ZM1486.5 563V313H1476.5V563H1486.5Z" fill="#B3B3B3"/>
</svg>
