<svg xmlns="http://www.w3.org/2000/svg" width="2645" height="633" fill="none" viewBox="0 0 2645 633">
    <rect width="469.926" height="309.463" fill="#9747FF" rx="80" />
    <path fill="#fff"
        d="M138.751 120.182L158.183 177.045H158.967L178.399 120.182H189.785L164.66 190H152.489L127.364 120.182H138.751ZM196.841 190V137.636H207.034V190H196.841ZM201.989 129.557C200.216 129.557 198.693 128.966 197.421 127.784C196.171 126.58 195.546 125.148 195.546 123.489C195.546 121.807 196.171 120.375 197.421 119.193C198.693 117.989 200.216 117.386 201.989 117.386C203.762 117.386 205.273 117.989 206.523 119.193C207.796 120.375 208.432 121.807 208.432 123.489C208.432 125.148 207.796 126.58 206.523 127.784C205.273 128.966 203.762 129.557 201.989 129.557ZM241.108 191.057C235.948 191.057 231.505 189.955 227.778 187.75C224.073 185.523 221.21 182.398 219.187 178.375C217.187 174.33 216.187 169.591 216.187 164.159C216.187 158.795 217.187 154.068 219.187 149.977C221.21 145.886 224.028 142.693 227.642 140.398C231.278 138.102 235.528 136.955 240.392 136.955C243.346 136.955 246.21 137.443 248.983 138.42C251.755 139.398 254.244 140.932 256.448 143.023C258.653 145.114 260.392 147.83 261.664 151.17C262.937 154.489 263.573 158.523 263.573 163.273V166.886H221.948V159.25H253.585C253.585 156.568 253.039 154.193 251.948 152.125C250.858 150.034 249.323 148.386 247.346 147.182C245.392 145.977 243.096 145.375 240.46 145.375C237.596 145.375 235.096 146.08 232.96 147.489C230.846 148.875 229.21 150.693 228.051 152.943C226.914 155.17 226.346 157.591 226.346 160.205V166.17C226.346 169.67 226.96 172.648 228.187 175.102C229.437 177.557 231.176 179.432 233.403 180.727C235.63 182 238.233 182.636 241.21 182.636C243.142 182.636 244.903 182.364 246.494 181.818C248.085 181.25 249.46 180.409 250.619 179.295C251.778 178.182 252.664 176.807 253.278 175.17L262.926 176.909C262.153 179.75 260.767 182.239 258.767 184.375C256.789 186.489 254.301 188.136 251.301 189.318C248.323 190.477 244.926 191.057 241.108 191.057ZM283.934 190L268.525 137.636H279.059L289.32 176.091H289.831L300.127 137.636H310.661L320.888 175.92H321.4L331.593 137.636H342.127L326.752 190H316.354L305.718 152.193H304.934L294.297 190H283.934Z" />
    <rect width="815" height="309" x="1074" fill="#9747FF" rx="80" />
    <path fill="#fff"
        d="M1248.64 120.182L1268.07 177.045H1268.85L1288.28 120.182H1299.67L1274.55 190H1262.37L1237.25 120.182H1248.64ZM1306.73 190V137.636H1316.92V190H1306.73ZM1311.87 129.557C1310.1 129.557 1308.58 128.966 1307.31 127.784C1306.06 126.58 1305.43 125.148 1305.43 123.489C1305.43 121.807 1306.06 120.375 1307.31 119.193C1308.58 117.989 1310.1 117.386 1311.87 117.386C1313.65 117.386 1315.16 117.989 1316.41 119.193C1317.68 120.375 1318.32 121.807 1318.32 123.489C1318.32 125.148 1317.68 126.58 1316.41 127.784C1315.16 128.966 1313.65 129.557 1311.87 129.557ZM1350.99 191.057C1345.83 191.057 1341.39 189.955 1337.66 187.75C1333.96 185.523 1331.09 182.398 1329.07 178.375C1327.07 174.33 1326.07 169.591 1326.07 164.159C1326.07 158.795 1327.07 154.068 1329.07 149.977C1331.09 145.886 1333.91 142.693 1337.53 140.398C1341.16 138.102 1345.41 136.955 1350.28 136.955C1353.23 136.955 1356.09 137.443 1358.87 138.42C1361.64 139.398 1364.13 140.932 1366.33 143.023C1368.54 145.114 1370.28 147.83 1371.55 151.17C1372.82 154.489 1373.46 158.523 1373.46 163.273V166.886H1331.83V159.25H1363.47C1363.47 156.568 1362.92 154.193 1361.83 152.125C1360.74 150.034 1359.21 148.386 1357.23 147.182C1355.28 145.977 1352.98 145.375 1350.34 145.375C1347.48 145.375 1344.98 146.08 1342.84 147.489C1340.73 148.875 1339.09 150.693 1337.94 152.943C1336.8 155.17 1336.23 157.591 1336.23 160.205V166.17C1336.23 169.67 1336.84 172.648 1338.07 175.102C1339.32 177.557 1341.06 179.432 1343.29 180.727C1345.52 182 1348.12 182.636 1351.09 182.636C1353.03 182.636 1354.79 182.364 1356.38 181.818C1357.97 181.25 1359.34 180.409 1360.5 179.295C1361.66 178.182 1362.55 176.807 1363.16 175.17L1372.81 176.909C1372.04 179.75 1370.65 182.239 1368.65 184.375C1366.67 186.489 1364.19 188.136 1361.19 189.318C1358.21 190.477 1354.81 191.057 1350.99 191.057ZM1393.82 190L1378.41 137.636H1388.94L1399.21 176.091H1399.72L1410.01 137.636H1420.55L1430.77 175.92H1431.28L1441.48 137.636H1452.01L1436.64 190H1426.24L1415.6 152.193H1414.82L1404.18 190H1393.82ZM1460.3 120.182H1473.08L1495.31 174.455H1496.12L1518.35 120.182H1531.14V190H1521.11V139.477H1520.47L1499.88 189.898H1491.56L1470.97 139.443H1470.32V190H1460.3V120.182ZM1565.48 191.057C1560.57 191.057 1556.29 189.932 1552.63 187.682C1548.97 185.432 1546.13 182.284 1544.11 178.239C1542.08 174.193 1541.07 169.466 1541.07 164.057C1541.07 158.625 1542.08 153.875 1544.11 149.807C1546.13 145.739 1548.97 142.58 1552.63 140.33C1556.29 138.08 1560.57 136.955 1565.48 136.955C1570.39 136.955 1574.68 138.08 1578.33 140.33C1581.99 142.58 1584.83 145.739 1586.86 149.807C1588.88 153.875 1589.89 158.625 1589.89 164.057C1589.89 169.466 1588.88 174.193 1586.86 178.239C1584.83 182.284 1581.99 185.432 1578.33 187.682C1574.68 189.932 1570.39 191.057 1565.48 191.057ZM1565.52 182.5C1568.7 182.5 1571.33 181.659 1573.43 179.977C1575.52 178.295 1577.06 176.057 1578.06 173.261C1579.08 170.466 1579.6 167.386 1579.6 164.023C1579.6 160.682 1579.08 157.614 1578.06 154.818C1577.06 152 1575.52 149.739 1573.43 148.034C1571.33 146.33 1568.7 145.477 1565.52 145.477C1562.31 145.477 1559.65 146.33 1557.54 148.034C1555.45 149.739 1553.89 152 1552.87 154.818C1551.87 157.614 1551.37 160.682 1551.37 164.023C1551.37 167.386 1551.87 170.466 1552.87 173.261C1553.89 176.057 1555.45 178.295 1557.54 179.977C1559.65 181.659 1562.31 182.5 1565.52 182.5ZM1618.66 191.023C1614.44 191.023 1610.66 189.943 1607.35 187.784C1604.05 185.602 1601.46 182.5 1599.57 178.477C1597.71 174.432 1596.78 169.58 1596.78 163.92C1596.78 158.261 1597.72 153.42 1599.61 149.398C1601.52 145.375 1604.13 142.295 1607.45 140.159C1610.77 138.023 1614.53 136.955 1618.73 136.955C1621.98 136.955 1624.6 137.5 1626.57 138.591C1628.57 139.659 1630.12 140.909 1631.21 142.341C1632.32 143.773 1633.19 145.034 1633.8 146.125H1634.41V120.182H1644.61V190H1634.65V181.852H1633.8C1633.19 182.966 1632.3 184.239 1631.14 185.67C1630 187.102 1628.44 188.352 1626.44 189.42C1624.44 190.489 1621.85 191.023 1618.66 191.023ZM1620.91 182.33C1623.85 182.33 1626.32 181.557 1628.35 180.011C1630.39 178.443 1631.94 176.273 1632.98 173.5C1634.05 170.727 1634.58 167.5 1634.58 163.818C1634.58 160.182 1634.06 157 1633.02 154.273C1631.97 151.545 1630.44 149.42 1628.41 147.898C1626.39 146.375 1623.89 145.614 1620.91 145.614C1617.85 145.614 1615.29 146.409 1613.24 148C1611.2 149.591 1609.65 151.761 1608.61 154.511C1607.58 157.261 1607.07 160.364 1607.07 163.818C1607.07 167.318 1607.6 170.466 1608.64 173.261C1609.69 176.057 1611.23 178.273 1613.28 179.909C1615.35 181.523 1617.89 182.33 1620.91 182.33ZM1679.52 191.057C1674.36 191.057 1669.91 189.955 1666.19 187.75C1662.48 185.523 1659.62 182.398 1657.59 178.375C1655.59 174.33 1654.59 169.591 1654.59 164.159C1654.59 158.795 1655.59 154.068 1657.59 149.977C1659.62 145.886 1662.44 142.693 1666.05 140.398C1669.69 138.102 1673.94 136.955 1678.8 136.955C1681.75 136.955 1684.62 137.443 1687.39 138.42C1690.16 139.398 1692.65 140.932 1694.86 143.023C1697.06 145.114 1698.8 147.83 1700.07 151.17C1701.34 154.489 1701.98 158.523 1701.98 163.273V166.886H1660.36V159.25H1691.99C1691.99 156.568 1691.45 154.193 1690.36 152.125C1689.27 150.034 1687.73 148.386 1685.75 147.182C1683.8 145.977 1681.5 145.375 1678.87 145.375C1676 145.375 1673.5 146.08 1671.37 147.489C1669.25 148.875 1667.62 150.693 1666.46 152.943C1665.32 155.17 1664.75 157.591 1664.75 160.205V166.17C1664.75 169.67 1665.37 172.648 1666.59 175.102C1667.84 177.557 1669.58 179.432 1671.81 180.727C1674.04 182 1676.64 182.636 1679.62 182.636C1681.55 182.636 1683.31 182.364 1684.9 181.818C1686.49 181.25 1687.87 180.409 1689.03 179.295C1690.19 178.182 1691.07 176.807 1691.69 175.17L1701.33 176.909C1700.56 179.75 1699.17 182.239 1697.17 184.375C1695.2 186.489 1692.71 188.136 1689.71 189.318C1686.73 190.477 1683.33 191.057 1679.52 191.057ZM1721.28 120.182V190H1711.08V120.182H1721.28Z" />
    <path fill="#B3B3B3"
        d="M473.926 149.5C471.164 149.5 468.926 151.739 468.926 154.5C468.926 157.261 471.164 159.5 473.926 159.5V149.5ZM568.223 159.5C570.985 159.5 573.223 157.261 573.223 154.5C573.223 151.739 570.985 149.5 568.223 149.5V159.5ZM936.223 149.5C933.462 149.5 931.223 151.739 931.223 154.5C931.223 157.261 933.462 159.5 936.223 159.5V149.5ZM1073.54 158.036C1075.49 156.083 1075.49 152.917 1073.54 150.964L1041.72 119.145C1039.76 117.192 1036.6 117.192 1034.64 119.145C1032.69 121.097 1032.69 124.263 1034.64 126.216L1062.93 154.5L1034.64 182.784C1032.69 184.737 1032.69 187.903 1034.64 189.855C1036.6 191.808 1039.76 191.808 1041.72 189.855L1073.54 158.036ZM473.926 159.5H568.223V149.5H473.926V159.5ZM936.223 159.5H1070V149.5H936.223V159.5Z" />
    <path fill="#000"
        d="M614.246 183.5V139.864H622.456V146.795H622.911C623.706 144.447 625.107 142.6 627.115 141.256C629.142 139.892 631.433 139.21 633.99 139.21C634.52 139.21 635.145 139.229 635.865 139.267C636.604 139.305 637.181 139.352 637.598 139.409V147.534C637.257 147.439 636.651 147.335 635.78 147.222C634.909 147.089 634.037 147.023 633.166 147.023C631.159 147.023 629.369 147.449 627.797 148.301C626.244 149.134 625.013 150.299 624.104 151.795C623.195 153.273 622.74 154.958 622.74 156.852V183.5H614.246ZM661.313 184.381C657.014 184.381 653.311 183.462 650.205 181.625C647.118 179.769 644.732 177.165 643.046 173.812C641.379 170.441 640.546 166.492 640.546 161.966C640.546 157.496 641.379 153.557 643.046 150.148C644.732 146.739 647.08 144.078 650.092 142.165C653.122 140.252 656.664 139.295 660.717 139.295C663.179 139.295 665.565 139.703 667.876 140.517C670.186 141.331 672.26 142.61 674.097 144.352C675.934 146.095 677.383 148.358 678.444 151.142C679.504 153.907 680.035 157.269 680.035 161.227V164.239H645.347V157.875H671.711C671.711 155.64 671.256 153.661 670.347 151.938C669.438 150.195 668.16 148.822 666.512 147.818C664.883 146.814 662.97 146.312 660.773 146.312C658.387 146.312 656.304 146.9 654.523 148.074C652.762 149.229 651.398 150.744 650.432 152.619C649.486 154.475 649.012 156.492 649.012 158.67V163.642C649.012 166.559 649.523 169.04 650.546 171.085C651.588 173.131 653.037 174.693 654.893 175.773C656.749 176.833 658.917 177.364 661.398 177.364C663.008 177.364 664.476 177.136 665.802 176.682C667.128 176.208 668.273 175.508 669.239 174.58C670.205 173.652 670.944 172.506 671.455 171.142L679.495 172.591C678.851 174.958 677.696 177.032 676.029 178.812C674.381 180.574 672.307 181.947 669.807 182.932C667.326 183.898 664.495 184.381 661.313 184.381ZM718.04 199.864V176.71H717.528C717.017 177.638 716.278 178.699 715.312 179.892C714.365 181.085 713.059 182.127 711.392 183.017C709.725 183.907 707.566 184.352 704.915 184.352C701.392 184.352 698.248 183.453 695.483 181.653C692.737 179.835 690.578 177.25 689.006 173.898C687.453 170.527 686.676 166.483 686.676 161.767C686.676 157.051 687.462 153.017 689.034 149.665C690.625 146.312 692.803 143.746 695.568 141.966C698.333 140.186 701.468 139.295 704.972 139.295C707.68 139.295 709.858 139.75 711.506 140.659C713.172 141.549 714.46 142.591 715.369 143.784C716.297 144.977 717.017 146.028 717.528 146.938H718.239V139.864H726.534V199.864H718.04ZM706.79 177.108C709.233 177.108 711.297 176.464 712.983 175.176C714.687 173.869 715.975 172.061 716.847 169.75C717.737 167.439 718.182 164.75 718.182 161.682C718.182 158.652 717.746 156 716.875 153.727C716.004 151.455 714.725 149.684 713.04 148.415C711.354 147.146 709.271 146.511 706.79 146.511C704.233 146.511 702.102 147.174 700.398 148.5C698.693 149.826 697.405 151.634 696.534 153.926C695.682 156.218 695.256 158.803 695.256 161.682C695.256 164.598 695.691 167.222 696.562 169.551C697.434 171.881 698.722 173.727 700.426 175.091C702.15 176.436 704.271 177.108 706.79 177.108ZM764.717 165.403V139.864H773.239V183.5H764.887V175.943H764.432C763.429 178.273 761.819 180.214 759.603 181.767C757.406 183.301 754.669 184.068 751.393 184.068C748.59 184.068 746.109 183.453 743.949 182.222C741.809 180.972 740.124 179.125 738.893 176.682C737.681 174.239 737.074 171.218 737.074 167.619V139.864H745.569V166.597C745.569 169.57 746.393 171.937 748.04 173.699C749.688 175.46 751.828 176.341 754.461 176.341C756.052 176.341 757.633 175.943 759.205 175.148C760.796 174.352 762.112 173.15 763.154 171.54C764.215 169.93 764.735 167.884 764.717 165.403ZM802.579 184.381C798.28 184.381 794.578 183.462 791.471 181.625C788.384 179.769 785.998 177.165 784.312 173.812C782.646 170.441 781.812 166.492 781.812 161.966C781.812 157.496 782.646 153.557 784.312 150.148C785.998 146.739 788.346 144.078 791.358 142.165C794.388 140.252 797.93 139.295 801.983 139.295C804.445 139.295 806.831 139.703 809.142 140.517C811.453 141.331 813.526 142.61 815.364 144.352C817.201 146.095 818.65 148.358 819.71 151.142C820.771 153.907 821.301 157.269 821.301 161.227V164.239H786.614V157.875H812.977C812.977 155.64 812.523 153.661 811.614 151.938C810.704 150.195 809.426 148.822 807.778 147.818C806.149 146.814 804.237 146.312 802.04 146.312C799.653 146.312 797.57 146.9 795.79 148.074C794.028 149.229 792.665 150.744 791.699 152.619C790.752 154.475 790.278 156.492 790.278 158.67V163.642C790.278 166.559 790.79 169.04 791.812 171.085C792.854 173.131 794.303 174.693 796.159 175.773C798.015 176.833 800.184 177.364 802.665 177.364C804.275 177.364 805.742 177.136 807.068 176.682C808.394 176.208 809.54 175.508 810.506 174.58C811.471 173.652 812.21 172.506 812.721 171.142L820.761 172.591C820.117 174.958 818.962 177.032 817.295 178.812C815.648 180.574 813.574 181.947 811.074 182.932C808.593 183.898 805.761 184.381 802.579 184.381ZM862.545 150.517L854.846 151.881C854.524 150.896 854.012 149.958 853.312 149.068C852.63 148.178 851.702 147.449 850.528 146.881C849.353 146.312 847.886 146.028 846.124 146.028C843.719 146.028 841.711 146.568 840.101 147.648C838.492 148.708 837.687 150.081 837.687 151.767C837.687 153.225 838.226 154.4 839.306 155.29C840.386 156.18 842.128 156.909 844.533 157.477L851.465 159.068C855.48 159.996 858.473 161.426 860.442 163.358C862.412 165.29 863.397 167.799 863.397 170.886C863.397 173.5 862.639 175.83 861.124 177.875C859.628 179.902 857.535 181.492 854.846 182.648C852.175 183.803 849.079 184.381 845.556 184.381C840.67 184.381 836.683 183.339 833.596 181.256C830.509 179.153 828.615 176.17 827.914 172.307L836.124 171.057C836.636 173.197 837.687 174.816 839.278 175.915C840.868 176.994 842.942 177.534 845.499 177.534C848.283 177.534 850.509 176.956 852.175 175.801C853.842 174.627 854.675 173.197 854.675 171.511C854.675 170.148 854.164 169.002 853.141 168.074C852.137 167.146 850.594 166.445 848.511 165.972L841.124 164.352C837.052 163.424 834.041 161.947 832.09 159.92C830.158 157.894 829.192 155.328 829.192 152.222C829.192 149.646 829.912 147.392 831.351 145.46C832.791 143.528 834.779 142.023 837.317 140.943C839.855 139.845 842.762 139.295 846.039 139.295C850.755 139.295 854.467 140.318 857.175 142.364C859.884 144.39 861.673 147.108 862.545 150.517ZM892.226 139.864V146.682H868.39V139.864H892.226ZM874.782 129.409H883.277V170.688C883.277 172.335 883.523 173.576 884.015 174.409C884.508 175.223 885.142 175.782 885.919 176.085C886.714 176.369 887.576 176.511 888.504 176.511C889.186 176.511 889.782 176.464 890.294 176.369C890.805 176.275 891.203 176.199 891.487 176.142L893.021 183.159C892.529 183.348 891.828 183.538 890.919 183.727C890.01 183.936 888.873 184.049 887.51 184.068C885.275 184.106 883.192 183.708 881.26 182.875C879.328 182.042 877.765 180.754 876.572 179.011C875.379 177.269 874.782 175.081 874.782 172.449V129.409Z" />
    <rect width="555" height="309" x="2090" fill="#9747FF" rx="80" />
    <path fill="#fff"
        d="M2237.41 120.182H2250.2L2272.43 174.455H2273.24L2295.47 120.182H2308.26V190H2298.23V139.477H2297.59L2276.99 189.898H2268.68L2248.09 139.443H2247.44V190H2237.41V120.182ZM2342.6 191.057C2337.69 191.057 2333.41 189.932 2329.75 187.682C2326.09 185.432 2323.25 182.284 2321.23 178.239C2319.2 174.193 2318.19 169.466 2318.19 164.057C2318.19 158.625 2319.2 153.875 2321.23 149.807C2323.25 145.739 2326.09 142.58 2329.75 140.33C2333.41 138.08 2337.69 136.955 2342.6 136.955C2347.51 136.955 2351.79 138.08 2355.45 140.33C2359.11 142.58 2361.95 145.739 2363.98 149.807C2366 153.875 2367.01 158.625 2367.01 164.057C2367.01 169.466 2366 174.193 2363.98 178.239C2361.95 182.284 2359.11 185.432 2355.45 187.682C2351.79 189.932 2347.51 191.057 2342.6 191.057ZM2342.64 182.5C2345.82 182.5 2348.45 181.659 2350.54 179.977C2352.64 178.295 2354.18 176.057 2355.18 173.261C2356.2 170.466 2356.72 167.386 2356.72 164.023C2356.72 160.682 2356.2 157.614 2355.18 154.818C2354.18 152 2352.64 149.739 2350.54 148.034C2348.45 146.33 2345.82 145.477 2342.64 145.477C2339.43 145.477 2336.77 146.33 2334.66 148.034C2332.57 149.739 2331.01 152 2329.99 154.818C2328.99 157.614 2328.49 160.682 2328.49 164.023C2328.49 167.386 2328.99 170.466 2329.99 173.261C2331.01 176.057 2332.57 178.295 2334.66 179.977C2336.77 181.659 2339.43 182.5 2342.64 182.5ZM2395.78 191.023C2391.56 191.023 2387.78 189.943 2384.46 187.784C2381.17 185.602 2378.58 182.5 2376.69 178.477C2374.83 174.432 2373.9 169.58 2373.9 163.92C2373.9 158.261 2374.84 153.42 2376.73 149.398C2378.63 145.375 2381.25 142.295 2384.57 140.159C2387.88 138.023 2391.65 136.955 2395.85 136.955C2399.1 136.955 2401.71 137.5 2403.69 138.591C2405.69 139.659 2407.24 140.909 2408.33 142.341C2409.44 143.773 2410.31 145.034 2410.92 146.125H2411.53V120.182H2421.73V190H2411.77V181.852H2410.92C2410.31 182.966 2409.42 184.239 2408.26 185.67C2407.12 187.102 2405.56 188.352 2403.56 189.42C2401.56 190.489 2398.96 191.023 2395.78 191.023ZM2398.03 182.33C2400.96 182.33 2403.44 181.557 2405.46 180.011C2407.51 178.443 2409.06 176.273 2410.1 173.5C2411.17 170.727 2411.7 167.5 2411.7 163.818C2411.7 160.182 2411.18 157 2410.13 154.273C2409.09 151.545 2407.56 149.42 2405.53 147.898C2403.51 146.375 2401.01 145.614 2398.03 145.614C2394.96 145.614 2392.41 146.409 2390.36 148C2388.32 149.591 2386.77 151.761 2385.73 154.511C2384.7 157.261 2384.19 160.364 2384.19 163.818C2384.19 167.318 2384.71 170.466 2385.76 173.261C2386.81 176.057 2388.35 178.273 2390.4 179.909C2392.46 181.523 2395.01 182.33 2398.03 182.33ZM2456.63 191.057C2451.48 191.057 2447.03 189.955 2443.3 187.75C2439.6 185.523 2436.74 182.398 2434.71 178.375C2432.71 174.33 2431.71 169.591 2431.71 164.159C2431.71 158.795 2432.71 154.068 2434.71 149.977C2436.74 145.886 2439.55 142.693 2443.17 140.398C2446.8 138.102 2451.05 136.955 2455.92 136.955C2458.87 136.955 2461.74 137.443 2464.51 138.42C2467.28 139.398 2469.77 140.932 2471.98 143.023C2474.18 145.114 2475.92 147.83 2477.19 151.17C2478.46 154.489 2479.1 158.523 2479.1 163.273V166.886H2437.48V159.25H2469.11C2469.11 156.568 2468.57 154.193 2467.48 152.125C2466.38 150.034 2464.85 148.386 2462.87 147.182C2460.92 145.977 2458.62 145.375 2455.99 145.375C2453.12 145.375 2450.62 146.08 2448.49 147.489C2446.37 148.875 2444.74 150.693 2443.58 152.943C2442.44 155.17 2441.87 157.591 2441.87 160.205V166.17C2441.87 169.67 2442.49 172.648 2443.71 175.102C2444.96 177.557 2446.7 179.432 2448.93 180.727C2451.16 182 2453.76 182.636 2456.74 182.636C2458.67 182.636 2460.43 182.364 2462.02 181.818C2463.61 181.25 2464.99 180.409 2466.15 179.295C2467.3 178.182 2468.19 176.807 2468.8 175.17L2478.45 176.909C2477.68 179.75 2476.29 182.239 2474.29 184.375C2472.32 186.489 2469.83 188.136 2466.83 189.318C2463.85 190.477 2460.45 191.057 2456.63 191.057ZM2498.4 120.182V190H2488.2V120.182H2498.4Z" />
    <path fill="#B3B3B3"
        d="M1893 149.5C1890.24 149.5 1888 151.739 1888 154.5C1888 157.261 1890.24 159.5 1893 159.5V149.5ZM2089.54 158.036C2091.49 156.083 2091.49 152.917 2089.54 150.964L2057.72 119.145C2055.76 117.192 2052.6 117.192 2050.64 119.145C2048.69 121.097 2048.69 124.263 2050.64 126.216L2078.93 154.5L2050.64 182.784C2048.69 184.737 2048.69 187.903 2050.64 189.855C2052.6 191.808 2055.76 191.808 2057.72 189.855L2089.54 158.036ZM1893 159.5H2086V149.5H1893V159.5Z" />
    <path fill="#B3B3B3"
        d="M1486.5 309C1486.5 306.239 1484.26 304 1481.5 304C1478.74 304 1476.5 306.239 1476.5 309L1486.5 309ZM1481.5 497L1486.5 497L1486.5 497L1481.5 497ZM1135.73 560C1132.97 560 1130.73 562.239 1130.73 565C1130.73 567.761 1132.97 570 1135.73 570V560ZM580.731 570C583.493 570 585.731 567.761 585.731 565C585.731 562.239 583.493 560 580.731 560V570ZM238.498 309.464C236.546 307.512 233.38 307.512 231.427 309.464L199.608 341.284C197.655 343.237 197.655 346.403 199.608 348.355C201.56 350.308 204.726 350.308 206.679 348.355L234.963 320.071L263.247 348.355C265.2 350.308 268.366 350.308 270.318 348.355C272.271 346.403 272.271 343.237 270.318 341.284L238.498 309.464ZM1481.5 541L1476.5 541L1481.5 541ZM1143.98 570C1146.74 570 1148.98 567.761 1148.98 565C1148.98 562.239 1146.74 560 1143.98 560V570ZM1154.29 560C1151.53 560 1149.29 562.239 1149.29 565C1149.29 567.761 1151.53 570 1154.29 570V560ZM1170.8 570C1173.56 570 1175.8 567.761 1175.8 565C1175.8 562.239 1173.56 560 1170.8 560V570ZM1181.11 560C1178.35 560 1176.11 562.239 1176.11 565C1176.11 567.761 1178.35 570 1181.11 570V560ZM1197.61 570C1200.37 570 1202.61 567.761 1202.61 565C1202.61 562.239 1200.37 560 1197.61 560V570ZM1207.92 560C1205.16 560 1202.92 562.239 1202.92 565C1202.92 567.761 1205.16 570 1207.92 570V560ZM1224.42 570C1227.19 570 1229.42 567.761 1229.42 565C1229.42 562.239 1227.19 560 1224.42 560V570ZM1234.74 560C1231.98 560 1229.74 562.239 1229.74 565C1229.74 567.761 1231.98 570 1234.74 570V560ZM1251.24 570C1254 570 1256.24 567.761 1256.24 565C1256.24 562.239 1254 560 1251.24 560V570ZM1261.55 560C1258.79 560 1256.55 562.239 1256.55 565C1256.55 567.761 1258.79 570 1261.55 570V560ZM1278.05 570C1280.81 570 1283.05 567.761 1283.05 565C1283.05 562.239 1280.81 560 1278.05 560V570ZM1288.37 560C1285.6 560 1283.37 562.239 1283.37 565C1283.37 567.761 1285.6 570 1288.37 570V560ZM1304.87 570C1307.63 570 1309.87 567.761 1309.87 565C1309.87 562.239 1307.63 560 1304.87 560V570ZM1315.18 560C1312.42 560 1310.18 562.239 1310.18 565C1310.18 567.761 1312.42 570 1315.18 570V560ZM1331.68 570C1334.44 570 1336.68 567.761 1336.68 565C1336.68 562.239 1334.44 560 1331.68 560V570ZM1341.99 560C1339.23 560 1336.99 562.239 1336.99 565C1336.99 567.761 1339.23 570 1341.99 570V560ZM1358.49 570C1361.26 570 1363.49 567.761 1363.49 565C1363.49 562.239 1361.26 560 1358.49 560V570ZM1368.81 560C1366.05 560 1363.81 562.239 1363.81 565C1363.81 567.761 1366.05 570 1368.81 570V560ZM1385.31 570C1388.07 570 1390.31 567.761 1390.31 565C1390.31 562.239 1388.07 560 1385.31 560V570ZM1395.62 560C1392.86 560 1390.62 562.239 1390.62 565C1390.62 567.761 1392.86 570 1395.62 570V560ZM1412.12 570C1414.88 570 1417.12 567.761 1417.12 565C1417.12 562.239 1414.88 560 1412.12 560V570ZM1422.44 560C1419.67 560 1417.44 562.239 1417.44 565C1417.44 567.761 1419.67 570 1422.44 570V560ZM1438.94 570C1441.7 570 1443.94 567.761 1443.94 565C1443.94 562.239 1441.7 560 1438.94 560V570ZM1449.25 560C1446.49 560 1444.25 562.239 1444.25 565C1444.25 567.761 1446.49 570 1449.25 570V560ZM1470.98 566.681C1473.43 565.395 1474.37 562.372 1473.08 559.928C1471.8 557.484 1468.77 556.545 1466.33 557.83L1470.98 566.681ZM1474.33 549.828C1473.04 552.272 1473.98 555.296 1476.43 556.581C1478.87 557.866 1481.89 556.927 1483.18 554.483L1474.33 549.828ZM1486.5 534.231C1486.5 531.469 1484.26 529.231 1481.5 529.231C1478.74 529.231 1476.5 531.469 1476.5 534.231L1486.5 534.231ZM1476.5 525.769C1476.5 528.531 1478.74 530.769 1481.5 530.769C1484.26 530.769 1486.5 528.531 1486.5 525.769L1476.5 525.769ZM1486.5 512.231C1486.5 509.469 1484.26 507.231 1481.5 507.231C1478.74 507.231 1476.5 509.469 1476.5 512.231L1486.5 512.231ZM1476.5 503.769C1476.5 506.531 1478.74 508.769 1481.5 508.769C1484.26 508.769 1486.5 506.531 1486.5 503.769L1476.5 503.769ZM1486.5 488.736C1486.5 485.975 1484.26 483.736 1481.5 483.736C1478.74 483.736 1476.5 485.975 1476.5 488.736L1486.5 488.736ZM1476.5 478.407C1476.5 481.168 1478.74 483.407 1481.5 483.407C1484.26 483.407 1486.5 481.168 1486.5 478.407L1476.5 478.407ZM1486.5 461.879C1486.5 459.118 1484.26 456.879 1481.5 456.879C1478.74 456.879 1476.5 459.118 1476.5 461.879L1486.5 461.879ZM1476.5 451.549C1476.5 454.311 1478.74 456.549 1481.5 456.549C1484.26 456.549 1486.5 454.311 1486.5 451.549L1476.5 451.549ZM1486.5 435.022C1486.5 432.261 1484.26 430.022 1481.5 430.022C1478.74 430.022 1476.5 432.261 1476.5 435.022L1486.5 435.022ZM1476.5 424.692C1476.5 427.454 1478.74 429.692 1481.5 429.692C1484.26 429.692 1486.5 427.454 1486.5 424.692L1476.5 424.692ZM1486.5 408.165C1486.5 405.403 1484.26 403.165 1481.5 403.165C1478.74 403.165 1476.5 405.403 1476.5 408.165L1486.5 408.165ZM1476.5 397.835C1476.5 400.597 1478.74 402.835 1481.5 402.835C1484.26 402.835 1486.5 400.597 1486.5 397.835L1476.5 397.835ZM1486.5 381.308C1486.5 378.546 1484.26 376.308 1481.5 376.308C1478.74 376.308 1476.5 378.546 1476.5 381.308L1486.5 381.308ZM1476.5 370.978C1476.5 373.739 1478.74 375.978 1481.5 375.978C1484.26 375.978 1486.5 373.739 1486.5 370.978L1476.5 370.978ZM1486.5 354.451C1486.5 351.689 1484.26 349.451 1481.5 349.451C1478.74 349.451 1476.5 351.689 1476.5 354.451L1486.5 354.451ZM1476.5 344.121C1476.5 346.882 1478.74 349.121 1481.5 349.121C1484.26 349.121 1486.5 346.882 1486.5 344.121L1476.5 344.121ZM1486.5 327.593C1486.5 324.832 1484.26 322.593 1481.5 322.593C1478.74 322.593 1476.5 324.832 1476.5 327.593L1486.5 327.593ZM1476.5 317.264C1476.5 320.025 1478.74 322.264 1481.5 322.264C1484.26 322.264 1486.5 320.025 1486.5 317.264L1476.5 317.264ZM229.963 320.795C229.963 323.556 232.201 325.795 234.963 325.795C237.724 325.795 239.963 323.556 239.963 320.795H229.963ZM239.963 330.538C239.963 327.777 237.724 325.538 234.963 325.538C232.201 325.538 229.963 327.777 229.963 330.538H239.963ZM229.963 346.128C229.963 348.89 232.201 351.128 234.963 351.128C237.724 351.128 239.963 348.89 239.963 346.128H229.963ZM239.963 355.872C239.963 353.11 237.724 350.872 234.963 350.872C232.201 350.872 229.963 353.11 229.963 355.872H239.963ZM229.963 371.462C229.963 374.223 232.201 376.462 234.963 376.462C237.724 376.462 239.963 374.223 239.963 371.462H229.963ZM239.963 381.205C239.963 378.444 237.724 376.205 234.963 376.205C232.201 376.205 229.963 378.444 229.963 381.205H239.963ZM229.963 396.795C229.963 399.556 232.201 401.795 234.963 401.795C237.724 401.795 239.963 399.556 239.963 396.795H229.963ZM239.963 406.538C239.963 403.777 237.724 401.538 234.963 401.538C232.201 401.538 229.963 403.777 229.963 406.538H239.963ZM229.963 422.128C229.963 424.89 232.201 427.128 234.963 427.128C237.724 427.128 239.963 424.89 239.963 422.128H229.963ZM239.963 431.872C239.963 429.11 237.724 426.872 234.963 426.872C232.201 426.872 229.963 429.11 229.963 431.872H239.963ZM229.963 447.462C229.963 450.223 232.201 452.462 234.963 452.462C237.724 452.462 239.963 450.223 239.963 447.462H229.963ZM239.963 457.205C239.963 454.444 237.724 452.205 234.963 452.205C232.201 452.205 229.963 454.444 229.963 457.205H239.963ZM229.963 472.795C229.963 475.556 232.201 477.795 234.963 477.795C237.724 477.795 239.963 475.556 239.963 472.795H229.963ZM239.963 482.538C239.963 479.777 237.724 477.538 234.963 477.538C232.201 477.538 229.963 479.777 229.963 482.538H239.963ZM229.963 498.128C229.963 500.89 232.201 503.128 234.963 503.128C237.724 503.128 239.963 500.89 239.963 498.128H229.963ZM239.963 507.872C239.963 505.11 237.724 502.872 234.963 502.872C232.201 502.872 229.963 505.11 229.963 507.872H239.963ZM229.963 523.462C229.963 526.223 232.201 528.462 234.963 528.462C237.724 528.462 239.963 526.223 239.963 523.462H229.963ZM239.963 533.205C239.963 530.444 237.724 528.205 234.963 528.205C232.201 528.205 229.963 530.444 229.963 533.205H239.963ZM233.282 554.483C234.568 556.927 237.591 557.866 240.035 556.581C242.479 555.296 243.418 552.272 242.133 549.828L233.282 554.483ZM250.135 557.83C247.691 556.545 244.667 557.484 243.382 559.928C242.097 562.372 243.036 565.395 245.48 566.681L250.135 557.83ZM267.213 570C269.975 570 272.213 567.761 272.213 565C272.213 562.239 269.975 560 267.213 560V570ZM277.526 560C274.765 560 272.526 562.239 272.526 565C272.526 567.761 274.765 570 277.526 570V560ZM294.027 570C296.789 570 299.027 567.761 299.027 565C299.027 562.239 296.789 560 294.027 560V570ZM304.34 560C301.579 560 299.34 562.239 299.34 565C299.34 567.761 301.579 570 304.34 570V560ZM320.841 570C323.603 570 325.841 567.761 325.841 565C325.841 562.239 323.603 560 320.841 560V570ZM331.154 560C328.393 560 326.154 562.239 326.154 565C326.154 567.761 328.393 570 331.154 570V560ZM347.655 570C350.417 570 352.655 567.761 352.655 565C352.655 562.239 350.417 560 347.655 560V570ZM357.969 560C355.207 560 352.969 562.239 352.969 565C352.969 567.761 355.207 570 357.969 570V560ZM374.469 570C377.231 570 379.469 567.761 379.469 565C379.469 562.239 377.231 560 374.469 560V570ZM384.783 560C382.021 560 379.783 562.239 379.783 565C379.783 567.761 382.021 570 384.783 570V560ZM401.284 570C404.045 570 406.284 567.761 406.284 565C406.284 562.239 404.045 560 401.284 560V570ZM411.597 560C408.835 560 406.597 562.239 406.597 565C406.597 567.761 408.835 570 411.597 570V560ZM428.098 570C430.859 570 433.098 567.761 433.098 565C433.098 562.239 430.859 560 428.098 560V570ZM438.411 560C435.649 560 433.411 562.239 433.411 565C433.411 567.761 435.649 570 438.411 570V560ZM454.912 570C457.673 570 459.912 567.761 459.912 565C459.912 562.239 457.673 560 454.912 560V570ZM465.225 560C462.463 560 460.225 562.239 460.225 565C460.225 567.761 462.463 570 465.225 570V560ZM481.726 570C484.487 570 486.726 567.761 486.726 565C486.726 562.239 484.487 560 481.726 560V570ZM492.039 560C489.277 560 487.039 562.239 487.039 565C487.039 567.761 489.277 570 492.039 570V560ZM508.54 570C511.301 570 513.54 567.761 513.54 565C513.54 562.239 511.301 560 508.54 560V570ZM518.853 560C516.091 560 513.853 562.239 513.853 565C513.853 567.761 516.091 570 518.853 570V560ZM535.354 570C538.115 570 540.354 567.761 540.354 565C540.354 562.239 538.115 560 535.354 560V570ZM545.667 560C542.905 560 540.667 562.239 540.667 565C540.667 567.761 542.905 570 545.667 570V560ZM562.168 570C564.929 570 567.168 567.761 567.168 565C567.168 562.239 564.929 560 562.168 560V570ZM572.481 560C569.719 560 567.481 562.239 567.481 565C567.481 567.761 569.719 570 572.481 570V560ZM1135.73 570H1143.98V560H1135.73V570ZM1154.29 570H1170.8V560H1154.29V570ZM1181.11 570H1197.61V560H1181.11V570ZM1207.92 570H1224.42V560H1207.92V570ZM1234.74 570H1251.24V560H1234.74V570ZM1261.55 570H1278.05V560H1261.55V570ZM1288.37 570H1304.87V560H1288.37V570ZM1315.18 570H1331.68V560H1315.18V570ZM1341.99 570H1358.49V560H1341.99V570ZM1368.81 570H1385.31V560H1368.81V570ZM1395.62 570H1412.12V560H1395.62V570ZM1422.44 570H1438.94V560H1422.44V570ZM1449.25 570H1457.5V560H1449.25V570ZM1457.5 570C1462.36 570 1466.95 568.802 1470.98 566.681L1466.33 557.83C1463.7 559.214 1460.7 560 1457.5 560V570ZM1483.18 554.483C1485.3 550.45 1486.5 545.857 1486.5 541L1476.5 541C1476.5 544.197 1475.71 547.196 1474.33 549.828L1483.18 554.483ZM1486.5 541L1486.5 534.231L1476.5 534.231L1476.5 541L1486.5 541ZM1486.5 525.769L1486.5 512.231L1476.5 512.231L1476.5 525.769L1486.5 525.769ZM1486.5 503.769L1486.5 497L1476.5 497L1476.5 503.769L1486.5 503.769ZM1486.5 497L1486.5 488.736L1476.5 488.736L1476.5 497L1486.5 497ZM1486.5 478.407L1486.5 461.879L1476.5 461.879L1476.5 478.407L1486.5 478.407ZM1486.5 451.549L1486.5 435.022L1476.5 435.022L1476.5 451.549L1486.5 451.549ZM1486.5 424.692L1486.5 408.165L1476.5 408.165L1476.5 424.692L1486.5 424.692ZM1486.5 397.835L1486.5 381.308L1476.5 381.308L1476.5 397.835L1486.5 397.835ZM1486.5 370.978L1486.5 354.451L1476.5 354.451L1476.5 370.978L1486.5 370.978ZM1486.5 344.121L1486.5 327.593L1476.5 327.593L1476.5 344.121L1486.5 344.121ZM1486.5 317.264L1486.5 309L1476.5 309L1476.5 317.264L1486.5 317.264ZM229.963 313V320.795H239.963V313H229.963ZM229.963 330.538V346.128H239.963V330.538H229.963ZM229.963 355.872V371.462H239.963V355.872H229.963ZM229.963 381.205V396.795H239.963V381.205H229.963ZM229.963 406.538V422.128H239.963V406.538H229.963ZM229.963 431.872V447.462H239.963V431.872H229.963ZM229.963 457.205V472.795H239.963V457.205H229.963ZM229.963 482.538V498.128H239.963V482.538H229.963ZM229.963 507.872V523.462H239.963V507.872H229.963ZM229.963 533.205V541H239.963V533.205H229.963ZM229.963 541C229.963 545.857 231.161 550.45 233.282 554.483L242.133 549.828C240.748 547.196 239.963 544.197 239.963 541H229.963ZM245.48 566.681C249.513 568.802 254.106 570 258.963 570V560C255.766 560 252.767 559.214 250.135 557.83L245.48 566.681ZM258.963 570H267.213V560H258.963V570ZM277.526 570H294.027V560H277.526V570ZM304.34 570H320.841V560H304.34V570ZM331.154 570H347.655V560H331.154V570ZM357.969 570H374.469V560H357.969V570ZM384.783 570H401.284V560H384.783V570ZM411.597 570H428.098V560H411.597V570ZM438.411 570H454.912V560H438.411V570ZM465.225 570H481.726V560H465.225V570ZM492.039 570H508.54V560H492.039V570ZM518.853 570H535.354V560H518.853V570ZM545.667 570H562.168V560H545.667V570ZM572.481 570H580.731V560H572.481V570Z" />
    <path fill="#000"
        d="M659.253 561.017L651.555 562.381C651.233 561.396 650.721 560.458 650.021 559.568C649.339 558.678 648.411 557.949 647.236 557.381C646.062 556.812 644.594 556.528 642.833 556.528C640.428 556.528 638.42 557.068 636.81 558.148C635.2 559.208 634.396 560.581 634.396 562.267C634.396 563.725 634.935 564.9 636.015 565.79C637.094 566.68 638.837 567.409 641.242 567.977L648.174 569.568C652.189 570.496 655.182 571.926 657.151 573.858C659.121 575.79 660.106 578.299 660.106 581.386C660.106 584 659.348 586.33 657.833 588.375C656.337 590.402 654.244 591.992 651.555 593.148C648.884 594.303 645.788 594.881 642.265 594.881C637.378 594.881 633.392 593.839 630.305 591.756C627.217 589.653 625.324 586.67 624.623 582.807L632.833 581.557C633.344 583.697 634.396 585.316 635.986 586.415C637.577 587.494 639.651 588.034 642.208 588.034C644.992 588.034 647.217 587.456 648.884 586.301C650.551 585.127 651.384 583.697 651.384 582.011C651.384 580.648 650.873 579.502 649.85 578.574C648.846 577.646 647.303 576.945 645.219 576.472L637.833 574.852C633.761 573.924 630.75 572.447 628.799 570.42C626.867 568.394 625.901 565.828 625.901 562.722C625.901 560.146 626.621 557.892 628.06 555.96C629.5 554.028 631.488 552.523 634.026 551.443C636.564 550.345 639.471 549.795 642.748 549.795C647.464 549.795 651.176 550.818 653.884 552.864C656.592 554.89 658.382 557.608 659.253 561.017ZM688.935 550.364V557.182H665.099V550.364H688.935ZM671.491 539.909H679.986V581.188C679.986 582.835 680.232 584.076 680.724 584.909C681.217 585.723 681.851 586.282 682.628 586.585C683.423 586.869 684.285 587.011 685.213 587.011C685.895 587.011 686.491 586.964 687.003 586.869C687.514 586.775 687.912 586.699 688.196 586.642L689.73 593.659C689.238 593.848 688.537 594.038 687.628 594.227C686.719 594.436 685.582 594.549 684.219 594.568C681.984 594.606 679.9 594.208 677.969 593.375C676.037 592.542 674.474 591.254 673.281 589.511C672.088 587.769 671.491 585.581 671.491 582.949V539.909ZM710.15 594.966C707.385 594.966 704.885 594.455 702.65 593.432C700.415 592.39 698.644 590.884 697.337 588.915C696.049 586.945 695.405 584.53 695.405 581.67C695.405 579.208 695.879 577.182 696.826 575.591C697.773 574 699.051 572.741 700.661 571.812C702.271 570.884 704.07 570.184 706.059 569.71C708.047 569.237 710.074 568.877 712.138 568.631C714.752 568.328 716.873 568.081 718.502 567.892C720.131 567.684 721.315 567.352 722.053 566.898C722.792 566.443 723.161 565.705 723.161 564.682V564.483C723.161 562.002 722.46 560.08 721.059 558.716C719.676 557.352 717.612 556.67 714.866 556.67C712.006 556.67 709.752 557.305 708.104 558.574C706.475 559.824 705.349 561.216 704.724 562.75L696.741 560.932C697.688 558.28 699.07 556.14 700.888 554.511C702.725 552.864 704.837 551.67 707.224 550.932C709.61 550.174 712.119 549.795 714.752 549.795C716.494 549.795 718.341 550.004 720.292 550.42C722.261 550.818 724.099 551.557 725.803 552.636C727.527 553.716 728.938 555.259 730.036 557.267C731.135 559.256 731.684 561.841 731.684 565.023V594H723.388V588.034H723.047C722.498 589.133 721.674 590.212 720.576 591.273C719.477 592.333 718.066 593.214 716.343 593.915C714.619 594.616 712.555 594.966 710.15 594.966ZM711.996 588.148C714.345 588.148 716.352 587.684 718.019 586.756C719.705 585.828 720.983 584.616 721.854 583.119C722.744 581.604 723.19 579.985 723.19 578.261V572.636C722.886 572.939 722.299 573.223 721.428 573.489C720.576 573.735 719.6 573.953 718.502 574.142C717.404 574.312 716.333 574.473 715.292 574.625C714.25 574.758 713.379 574.871 712.678 574.966C711.03 575.174 709.525 575.525 708.161 576.017C706.816 576.509 705.737 577.22 704.922 578.148C704.127 579.057 703.729 580.269 703.729 581.784C703.729 583.886 704.506 585.477 706.059 586.557C707.612 587.617 709.591 588.148 711.996 588.148ZM762.487 550.364V557.182H738.652V550.364H762.487ZM745.044 539.909H753.538V581.188C753.538 582.835 753.784 584.076 754.277 584.909C754.769 585.723 755.404 586.282 756.18 586.585C756.976 586.869 757.837 587.011 758.765 587.011C759.447 587.011 760.044 586.964 760.555 586.869C761.067 586.775 761.464 586.699 761.748 586.642L763.283 593.659C762.79 593.848 762.089 594.038 761.18 594.227C760.271 594.436 759.135 594.549 757.771 594.568C755.536 594.606 753.453 594.208 751.521 593.375C749.589 592.542 748.027 591.254 746.834 589.511C745.64 587.769 745.044 585.581 745.044 582.949V539.909ZM789.341 594.881C785.042 594.881 781.34 593.962 778.233 592.125C775.146 590.269 772.76 587.665 771.074 584.312C769.408 580.941 768.574 576.992 768.574 572.466C768.574 567.996 769.408 564.057 771.074 560.648C772.76 557.239 775.108 554.578 778.12 552.665C781.15 550.752 784.692 549.795 788.745 549.795C791.207 549.795 793.593 550.203 795.904 551.017C798.215 551.831 800.288 553.11 802.126 554.852C803.963 556.595 805.412 558.858 806.472 561.642C807.533 564.407 808.063 567.769 808.063 571.727V574.739H773.376V568.375H799.739C799.739 566.14 799.285 564.161 798.376 562.438C797.466 560.695 796.188 559.322 794.54 558.318C792.912 557.314 790.999 556.812 788.802 556.812C786.415 556.812 784.332 557.4 782.552 558.574C780.79 559.729 779.427 561.244 778.461 563.119C777.514 564.975 777.04 566.992 777.04 569.17V574.142C777.04 577.059 777.552 579.54 778.574 581.585C779.616 583.631 781.065 585.193 782.921 586.273C784.777 587.333 786.946 587.864 789.427 587.864C791.037 587.864 792.504 587.636 793.83 587.182C795.156 586.708 796.302 586.008 797.268 585.08C798.233 584.152 798.972 583.006 799.483 581.642L807.523 583.091C806.879 585.458 805.724 587.532 804.057 589.312C802.41 591.074 800.336 592.447 797.836 593.432C795.355 594.398 792.523 594.881 789.341 594.881ZM864.542 575.903V550.364H873.064V594H864.712V586.443H864.258C863.254 588.773 861.644 590.714 859.428 592.267C857.231 593.801 854.494 594.568 851.218 594.568C848.415 594.568 845.934 593.953 843.775 592.722C841.634 591.472 839.949 589.625 838.718 587.182C837.506 584.739 836.9 581.718 836.9 578.119V550.364H845.394V577.097C845.394 580.07 846.218 582.437 847.866 584.199C849.513 585.96 851.653 586.841 854.286 586.841C855.877 586.841 857.458 586.443 859.03 585.648C860.621 584.852 861.937 583.65 862.979 582.04C864.04 580.43 864.561 578.384 864.542 575.903ZM883.598 610.364V550.364H891.893V557.438H892.603C893.096 556.528 893.806 555.477 894.734 554.284C895.662 553.091 896.95 552.049 898.598 551.159C900.245 550.25 902.423 549.795 905.132 549.795C908.655 549.795 911.798 550.686 914.564 552.466C917.329 554.246 919.497 556.812 921.069 560.165C922.66 563.517 923.456 567.551 923.456 572.267C923.456 576.983 922.67 581.027 921.098 584.398C919.526 587.75 917.367 590.335 914.62 592.153C911.874 593.953 908.74 594.852 905.217 594.852C902.566 594.852 900.397 594.407 898.711 593.517C897.045 592.627 895.738 591.585 894.791 590.392C893.844 589.199 893.115 588.138 892.603 587.21H892.092V610.364H883.598ZM891.922 572.182C891.922 575.25 892.367 577.939 893.257 580.25C894.147 582.561 895.435 584.369 897.12 585.676C898.806 586.964 900.87 587.608 903.314 587.608C905.852 587.608 907.973 586.936 909.677 585.591C911.382 584.227 912.67 582.381 913.541 580.051C914.431 577.722 914.876 575.098 914.876 572.182C914.876 569.303 914.441 566.718 913.569 564.426C912.717 562.134 911.429 560.326 909.706 559C908.001 557.674 905.87 557.011 903.314 557.011C900.852 557.011 898.768 557.646 897.064 558.915C895.378 560.184 894.1 561.955 893.228 564.227C892.357 566.5 891.922 569.152 891.922 572.182ZM948.428 594.852C944.905 594.852 941.761 593.953 938.996 592.153C936.25 590.335 934.091 587.75 932.519 584.398C930.966 581.027 930.189 576.983 930.189 572.267C930.189 567.551 930.975 563.517 932.547 560.165C934.138 556.812 936.316 554.246 939.081 552.466C941.847 550.686 944.981 549.795 948.485 549.795C951.193 549.795 953.371 550.25 955.019 551.159C956.686 552.049 957.973 553.091 958.883 554.284C959.811 555.477 960.53 556.528 961.042 557.438H961.553V535.818H970.047V594H961.752V587.21H961.042C960.53 588.138 959.792 589.199 958.826 590.392C957.879 591.585 956.572 592.627 954.905 593.517C953.239 594.407 951.079 594.852 948.428 594.852ZM950.303 587.608C952.746 587.608 954.811 586.964 956.496 585.676C958.201 584.369 959.489 582.561 960.36 580.25C961.25 577.939 961.695 575.25 961.695 572.182C961.695 569.152 961.259 566.5 960.388 564.227C959.517 561.955 958.239 560.184 956.553 558.915C954.867 557.646 952.784 557.011 950.303 557.011C947.746 557.011 945.615 557.674 943.911 559C942.206 560.326 940.918 562.134 940.047 564.426C939.195 566.718 938.769 569.303 938.769 572.182C938.769 575.098 939.204 577.722 940.076 580.051C940.947 582.381 942.235 584.227 943.939 585.591C945.663 586.936 947.784 587.608 950.303 587.608ZM993.99 594.966C991.225 594.966 988.725 594.455 986.49 593.432C984.255 592.39 982.484 590.884 981.177 588.915C979.889 586.945 979.245 584.53 979.245 581.67C979.245 579.208 979.719 577.182 980.666 575.591C981.613 574 982.891 572.741 984.501 571.812C986.111 570.884 987.91 570.184 989.899 569.71C991.887 569.237 993.914 568.877 995.978 568.631C998.592 568.328 1000.71 568.081 1002.34 567.892C1003.97 567.684 1005.15 567.352 1005.89 566.898C1006.63 566.443 1007 565.705 1007 564.682V564.483C1007 562.002 1006.3 560.08 1004.9 558.716C1003.52 557.352 1001.45 556.67 998.706 556.67C995.846 556.67 993.592 557.305 991.944 558.574C990.315 559.824 989.189 561.216 988.564 562.75L980.581 560.932C981.528 558.28 982.91 556.14 984.728 554.511C986.565 552.864 988.677 551.67 991.064 550.932C993.45 550.174 995.959 549.795 998.592 549.795C1000.33 549.795 1002.18 550.004 1004.13 550.42C1006.1 550.818 1007.94 551.557 1009.64 552.636C1011.37 553.716 1012.78 555.259 1013.88 557.267C1014.97 559.256 1015.52 561.841 1015.52 565.023V594H1007.23V588.034H1006.89C1006.34 589.133 1005.51 590.212 1004.42 591.273C1003.32 592.333 1001.91 593.214 1000.18 593.915C998.459 594.616 996.395 594.966 993.99 594.966ZM995.836 588.148C998.185 588.148 1000.19 587.684 1001.86 586.756C1003.54 585.828 1004.82 584.616 1005.69 583.119C1006.58 581.604 1007.03 579.985 1007.03 578.261V572.636C1006.73 572.939 1006.14 573.223 1005.27 573.489C1004.42 573.735 1003.44 573.953 1002.34 574.142C1001.24 574.312 1000.17 574.473 999.132 574.625C998.09 574.758 997.219 574.871 996.518 574.966C994.87 575.174 993.365 575.525 992.001 576.017C990.656 576.509 989.577 577.22 988.762 578.148C987.967 579.057 987.569 580.269 987.569 581.784C987.569 583.886 988.346 585.477 989.899 586.557C991.452 587.617 993.431 588.148 995.836 588.148ZM1046.33 550.364V557.182H1022.49V550.364H1046.33ZM1028.88 539.909H1037.38V581.188C1037.38 582.835 1037.62 584.076 1038.12 584.909C1038.61 585.723 1039.24 586.282 1040.02 586.585C1040.82 586.869 1041.68 587.011 1042.61 587.011C1043.29 587.011 1043.88 586.964 1044.4 586.869C1044.91 586.775 1045.3 586.699 1045.59 586.642L1047.12 593.659C1046.63 593.848 1045.93 594.038 1045.02 594.227C1044.11 594.436 1042.97 594.549 1041.61 594.568C1039.38 594.606 1037.29 594.208 1035.36 593.375C1033.43 592.542 1031.87 591.254 1030.67 589.511C1029.48 587.769 1028.88 585.581 1028.88 582.949V539.909ZM1073.18 594.881C1068.88 594.881 1065.18 593.962 1062.07 592.125C1058.99 590.269 1056.6 587.665 1054.91 584.312C1053.25 580.941 1052.41 576.992 1052.41 572.466C1052.41 567.996 1053.25 564.057 1054.91 560.648C1056.6 557.239 1058.95 554.578 1061.96 552.665C1064.99 550.752 1068.53 549.795 1072.58 549.795C1075.05 549.795 1077.43 550.203 1079.74 551.017C1082.05 551.831 1084.13 553.11 1085.97 554.852C1087.8 556.595 1089.25 558.858 1090.31 561.642C1091.37 564.407 1091.9 567.769 1091.9 571.727V574.739H1057.22V568.375H1083.58C1083.58 566.14 1083.12 564.161 1082.22 562.438C1081.31 560.695 1080.03 559.322 1078.38 558.318C1076.75 557.314 1074.84 556.812 1072.64 556.812C1070.26 556.812 1068.17 557.4 1066.39 558.574C1064.63 559.729 1063.27 561.244 1062.3 563.119C1061.35 564.975 1060.88 566.992 1060.88 569.17V574.142C1060.88 577.059 1061.39 579.54 1062.41 581.585C1063.46 583.631 1064.9 585.193 1066.76 586.273C1068.62 587.333 1070.79 587.864 1073.27 587.864C1074.88 587.864 1076.34 587.636 1077.67 587.182C1079 586.708 1080.14 586.008 1081.11 585.08C1082.07 584.152 1082.81 583.006 1083.32 581.642L1091.36 583.091C1090.72 585.458 1089.56 587.532 1087.9 589.312C1086.25 591.074 1084.18 592.447 1081.68 593.432C1079.19 594.398 1076.36 594.881 1073.18 594.881Z" />
</svg>
