<svg width="2645" height="968" viewBox="0 0 2645 968" fill="none" xmlns="http://www.w3.org/2000/svg">
    <rect y="335" width="469.926" height="309.463" rx="80" fill="#9747FF"/>
    <path d="M138.751 455.182L158.183 512.045H158.967L178.399 455.182H189.785L164.66 525H152.489L127.364 455.182H138.751ZM196.841 525V472.636H207.034V525H196.841ZM201.989 464.557C200.216 464.557 198.693 463.966 197.421 462.784C196.171 461.58 195.546 460.148 195.546 458.489C195.546 456.807 196.171 455.375 197.421 454.193C198.693 452.989 200.216 452.386 201.989 452.386C203.762 452.386 205.273 452.989 206.523 454.193C207.796 455.375 208.432 456.807 208.432 458.489C208.432 460.148 207.796 461.58 206.523 462.784C205.273 463.966 203.762 464.557 201.989 464.557ZM241.108 526.057C235.948 526.057 231.505 524.955 227.778 522.75C224.073 520.523 221.21 517.398 219.187 513.375C217.187 509.33 216.187 504.591 216.187 499.159C216.187 493.795 217.187 489.068 219.187 484.977C221.21 480.886 224.028 477.693 227.642 475.398C231.278 473.102 235.528 471.955 240.392 471.955C243.346 471.955 246.21 472.443 248.983 473.42C251.755 474.398 254.244 475.932 256.448 478.023C258.653 480.114 260.392 482.83 261.664 486.17C262.937 489.489 263.573 493.523 263.573 498.273V501.886H221.948V494.25H253.585C253.585 491.568 253.039 489.193 251.948 487.125C250.858 485.034 249.323 483.386 247.346 482.182C245.392 480.977 243.096 480.375 240.46 480.375C237.596 480.375 235.096 481.08 232.96 482.489C230.846 483.875 229.21 485.693 228.051 487.943C226.914 490.17 226.346 492.591 226.346 495.205V501.17C226.346 504.67 226.96 507.648 228.187 510.102C229.437 512.557 231.176 514.432 233.403 515.727C235.63 517 238.233 517.636 241.21 517.636C243.142 517.636 244.903 517.364 246.494 516.818C248.085 516.25 249.46 515.409 250.619 514.295C251.778 513.182 252.664 511.807 253.278 510.17L262.926 511.909C262.153 514.75 260.767 517.239 258.767 519.375C256.789 521.489 254.301 523.136 251.301 524.318C248.323 525.477 244.926 526.057 241.108 526.057ZM283.934 525L268.525 472.636H279.059L289.32 511.091H289.831L300.127 472.636H310.661L320.888 510.92H321.4L331.593 472.636H342.127L326.752 525H316.354L305.718 487.193H304.934L294.297 525H283.934Z" fill="white"/>
    <rect x="1074" y="335" width="815" height="309" rx="80" fill="#9747FF"/>
    <path d="M1248.64 455.182L1268.07 512.045H1268.85L1288.28 455.182H1299.67L1274.55 525H1262.37L1237.25 455.182H1248.64ZM1306.73 525V472.636H1316.92V525H1306.73ZM1311.87 464.557C1310.1 464.557 1308.58 463.966 1307.31 462.784C1306.06 461.58 1305.43 460.148 1305.43 458.489C1305.43 456.807 1306.06 455.375 1307.31 454.193C1308.58 452.989 1310.1 452.386 1311.87 452.386C1313.65 452.386 1315.16 452.989 1316.41 454.193C1317.68 455.375 1318.32 456.807 1318.32 458.489C1318.32 460.148 1317.68 461.58 1316.41 462.784C1315.16 463.966 1313.65 464.557 1311.87 464.557ZM1350.99 526.057C1345.83 526.057 1341.39 524.955 1337.66 522.75C1333.96 520.523 1331.09 517.398 1329.07 513.375C1327.07 509.33 1326.07 504.591 1326.07 499.159C1326.07 493.795 1327.07 489.068 1329.07 484.977C1331.09 480.886 1333.91 477.693 1337.53 475.398C1341.16 473.102 1345.41 471.955 1350.28 471.955C1353.23 471.955 1356.09 472.443 1358.87 473.42C1361.64 474.398 1364.13 475.932 1366.33 478.023C1368.54 480.114 1370.28 482.83 1371.55 486.17C1372.82 489.489 1373.46 493.523 1373.46 498.273V501.886H1331.83V494.25H1363.47C1363.47 491.568 1362.92 489.193 1361.83 487.125C1360.74 485.034 1359.21 483.386 1357.23 482.182C1355.28 480.977 1352.98 480.375 1350.34 480.375C1347.48 480.375 1344.98 481.08 1342.84 482.489C1340.73 483.875 1339.09 485.693 1337.94 487.943C1336.8 490.17 1336.23 492.591 1336.23 495.205V501.17C1336.23 504.67 1336.84 507.648 1338.07 510.102C1339.32 512.557 1341.06 514.432 1343.29 515.727C1345.52 517 1348.12 517.636 1351.09 517.636C1353.03 517.636 1354.79 517.364 1356.38 516.818C1357.97 516.25 1359.34 515.409 1360.5 514.295C1361.66 513.182 1362.55 511.807 1363.16 510.17L1372.81 511.909C1372.04 514.75 1370.65 517.239 1368.65 519.375C1366.67 521.489 1364.19 523.136 1361.19 524.318C1358.21 525.477 1354.81 526.057 1350.99 526.057ZM1393.82 525L1378.41 472.636H1388.94L1399.21 511.091H1399.72L1410.01 472.636H1420.55L1430.77 510.92H1431.28L1441.48 472.636H1452.01L1436.64 525H1426.24L1415.6 487.193H1414.82L1404.18 525H1393.82ZM1460.3 455.182H1473.08L1495.31 509.455H1496.12L1518.35 455.182H1531.14V525H1521.11V474.477H1520.47L1499.88 524.898H1491.56L1470.97 474.443H1470.32V525H1460.3V455.182ZM1565.48 526.057C1560.57 526.057 1556.29 524.932 1552.63 522.682C1548.97 520.432 1546.13 517.284 1544.11 513.239C1542.08 509.193 1541.07 504.466 1541.07 499.057C1541.07 493.625 1542.08 488.875 1544.11 484.807C1546.13 480.739 1548.97 477.58 1552.63 475.33C1556.29 473.08 1560.57 471.955 1565.48 471.955C1570.39 471.955 1574.68 473.08 1578.33 475.33C1581.99 477.58 1584.83 480.739 1586.86 484.807C1588.88 488.875 1589.89 493.625 1589.89 499.057C1589.89 504.466 1588.88 509.193 1586.86 513.239C1584.83 517.284 1581.99 520.432 1578.33 522.682C1574.68 524.932 1570.39 526.057 1565.48 526.057ZM1565.52 517.5C1568.7 517.5 1571.33 516.659 1573.43 514.977C1575.52 513.295 1577.06 511.057 1578.06 508.261C1579.08 505.466 1579.6 502.386 1579.6 499.023C1579.6 495.682 1579.08 492.614 1578.06 489.818C1577.06 487 1575.52 484.739 1573.43 483.034C1571.33 481.33 1568.7 480.477 1565.52 480.477C1562.31 480.477 1559.65 481.33 1557.54 483.034C1555.45 484.739 1553.89 487 1552.87 489.818C1551.87 492.614 1551.37 495.682 1551.37 499.023C1551.37 502.386 1551.87 505.466 1552.87 508.261C1553.89 511.057 1555.45 513.295 1557.54 514.977C1559.65 516.659 1562.31 517.5 1565.52 517.5ZM1618.66 526.023C1614.44 526.023 1610.66 524.943 1607.35 522.784C1604.05 520.602 1601.46 517.5 1599.57 513.477C1597.71 509.432 1596.78 504.58 1596.78 498.92C1596.78 493.261 1597.72 488.42 1599.61 484.398C1601.52 480.375 1604.13 477.295 1607.45 475.159C1610.77 473.023 1614.53 471.955 1618.73 471.955C1621.98 471.955 1624.6 472.5 1626.57 473.591C1628.57 474.659 1630.12 475.909 1631.21 477.341C1632.32 478.773 1633.19 480.034 1633.8 481.125H1634.41V455.182H1644.61V525H1634.65V516.852H1633.8C1633.19 517.966 1632.3 519.239 1631.14 520.67C1630 522.102 1628.44 523.352 1626.44 524.42C1624.44 525.489 1621.85 526.023 1618.66 526.023ZM1620.91 517.33C1623.85 517.33 1626.32 516.557 1628.35 515.011C1630.39 513.443 1631.94 511.273 1632.98 508.5C1634.05 505.727 1634.58 502.5 1634.58 498.818C1634.58 495.182 1634.06 492 1633.02 489.273C1631.97 486.545 1630.44 484.42 1628.41 482.898C1626.39 481.375 1623.89 480.614 1620.91 480.614C1617.85 480.614 1615.29 481.409 1613.24 483C1611.2 484.591 1609.65 486.761 1608.61 489.511C1607.58 492.261 1607.07 495.364 1607.07 498.818C1607.07 502.318 1607.6 505.466 1608.64 508.261C1609.69 511.057 1611.23 513.273 1613.28 514.909C1615.35 516.523 1617.89 517.33 1620.91 517.33ZM1679.52 526.057C1674.36 526.057 1669.91 524.955 1666.19 522.75C1662.48 520.523 1659.62 517.398 1657.59 513.375C1655.59 509.33 1654.59 504.591 1654.59 499.159C1654.59 493.795 1655.59 489.068 1657.59 484.977C1659.62 480.886 1662.44 477.693 1666.05 475.398C1669.69 473.102 1673.94 471.955 1678.8 471.955C1681.75 471.955 1684.62 472.443 1687.39 473.42C1690.16 474.398 1692.65 475.932 1694.86 478.023C1697.06 480.114 1698.8 482.83 1700.07 486.17C1701.34 489.489 1701.98 493.523 1701.98 498.273V501.886H1660.36V494.25H1691.99C1691.99 491.568 1691.45 489.193 1690.36 487.125C1689.27 485.034 1687.73 483.386 1685.75 482.182C1683.8 480.977 1681.5 480.375 1678.87 480.375C1676 480.375 1673.5 481.08 1671.37 482.489C1669.25 483.875 1667.62 485.693 1666.46 487.943C1665.32 490.17 1664.75 492.591 1664.75 495.205V501.17C1664.75 504.67 1665.37 507.648 1666.59 510.102C1667.84 512.557 1669.58 514.432 1671.81 515.727C1674.04 517 1676.64 517.636 1679.62 517.636C1681.55 517.636 1683.31 517.364 1684.9 516.818C1686.49 516.25 1687.87 515.409 1689.03 514.295C1690.19 513.182 1691.07 511.807 1691.69 510.17L1701.33 511.909C1700.56 514.75 1699.17 517.239 1697.17 519.375C1695.2 521.489 1692.71 523.136 1689.71 524.318C1686.73 525.477 1683.33 526.057 1679.52 526.057ZM1721.28 455.182V525H1711.08V455.182H1721.28Z" fill="white"/>
    <path d="M473.926 484.5C471.164 484.5 468.926 486.739 468.926 489.5C468.926 492.261 471.164 494.5 473.926 494.5V484.5ZM565.85 494.5C568.611 494.5 570.85 492.261 570.85 489.5C570.85 486.739 568.611 484.5 565.85 484.5V494.5ZM933.85 484.5C931.088 484.5 928.85 486.739 928.85 489.5C928.85 492.261 931.088 494.5 933.85 494.5V484.5ZM1073.54 493.036C1075.49 491.083 1075.49 487.917 1073.54 485.964L1041.72 454.145C1039.76 452.192 1036.6 452.192 1034.64 454.145C1032.69 456.097 1032.69 459.263 1034.64 461.216L1062.93 489.5L1034.64 517.784C1032.69 519.737 1032.69 522.903 1034.64 524.855C1036.6 526.808 1039.76 526.808 1041.72 524.855L1073.54 493.036ZM473.926 494.5H565.85V484.5H473.926V494.5ZM933.85 494.5H1070V484.5H933.85V494.5Z" fill="#B3B3B3"/>
    <path d="M611.872 518.5V474.864H620.082V481.795H620.536C621.332 479.447 622.733 477.6 624.741 476.256C626.768 474.892 629.059 474.21 631.616 474.21C632.146 474.21 632.771 474.229 633.491 474.267C634.23 474.305 634.807 474.352 635.224 474.409V482.534C634.883 482.439 634.277 482.335 633.406 482.222C632.535 482.089 631.663 482.023 630.792 482.023C628.785 482.023 626.995 482.449 625.423 483.301C623.87 484.134 622.639 485.299 621.73 486.795C620.821 488.273 620.366 489.958 620.366 491.852V518.5H611.872ZM658.939 519.381C654.64 519.381 650.937 518.462 647.831 516.625C644.744 514.769 642.358 512.165 640.672 508.812C639.005 505.441 638.172 501.492 638.172 496.966C638.172 492.496 639.005 488.557 640.672 485.148C642.358 481.739 644.706 479.078 647.718 477.165C650.748 475.252 654.29 474.295 658.343 474.295C660.805 474.295 663.191 474.703 665.502 475.517C667.812 476.331 669.886 477.61 671.723 479.352C673.56 481.095 675.009 483.358 676.07 486.142C677.13 488.907 677.661 492.269 677.661 496.227V499.239H642.973V492.875H669.337C669.337 490.64 668.882 488.661 667.973 486.938C667.064 485.195 665.786 483.822 664.138 482.818C662.509 481.814 660.596 481.312 658.399 481.312C656.013 481.312 653.93 481.9 652.149 483.074C650.388 484.229 649.024 485.744 648.058 487.619C647.112 489.475 646.638 491.492 646.638 493.67V498.642C646.638 501.559 647.149 504.04 648.172 506.085C649.214 508.131 650.663 509.693 652.519 510.773C654.375 511.833 656.543 512.364 659.024 512.364C660.634 512.364 662.102 512.136 663.428 511.682C664.754 511.208 665.899 510.508 666.865 509.58C667.831 508.652 668.57 507.506 669.081 506.142L677.121 507.591C676.477 509.958 675.322 512.032 673.655 513.812C672.007 515.574 669.933 516.947 667.433 517.932C664.952 518.898 662.121 519.381 658.939 519.381ZM715.666 534.864V511.71H715.154C714.643 512.638 713.904 513.699 712.938 514.892C711.991 516.085 710.685 517.127 709.018 518.017C707.351 518.907 705.192 519.352 702.541 519.352C699.018 519.352 695.874 518.453 693.109 516.653C690.363 514.835 688.204 512.25 686.632 508.898C685.079 505.527 684.302 501.483 684.302 496.767C684.302 492.051 685.088 488.017 686.66 484.665C688.251 481.312 690.429 478.746 693.194 476.966C695.959 475.186 699.094 474.295 702.598 474.295C705.306 474.295 707.484 474.75 709.132 475.659C710.798 476.549 712.086 477.591 712.995 478.784C713.923 479.977 714.643 481.028 715.154 481.938H715.865V474.864H724.16V534.864H715.666ZM704.416 512.108C706.859 512.108 708.923 511.464 710.609 510.176C712.313 508.869 713.601 507.061 714.473 504.75C715.363 502.439 715.808 499.75 715.808 496.682C715.808 493.652 715.372 491 714.501 488.727C713.63 486.455 712.351 484.684 710.666 483.415C708.98 482.146 706.897 481.511 704.416 481.511C701.859 481.511 699.728 482.174 698.024 483.5C696.319 484.826 695.031 486.634 694.16 488.926C693.308 491.218 692.882 493.803 692.882 496.682C692.882 499.598 693.317 502.222 694.188 504.551C695.06 506.881 696.348 508.727 698.052 510.091C699.776 511.436 701.897 512.108 704.416 512.108ZM762.343 500.403V474.864H770.865V518.5H762.513V510.943H762.058C761.055 513.273 759.445 515.214 757.229 516.767C755.032 518.301 752.295 519.068 749.019 519.068C746.216 519.068 743.735 518.453 741.575 517.222C739.435 515.972 737.75 514.125 736.519 511.682C735.307 509.239 734.7 506.218 734.7 502.619V474.864H743.195V501.597C743.195 504.57 744.019 506.937 745.666 508.699C747.314 510.46 749.454 511.341 752.087 511.341C753.678 511.341 755.259 510.943 756.831 510.148C758.422 509.352 759.738 508.15 760.78 506.54C761.841 504.93 762.361 502.884 762.343 500.403ZM800.205 519.381C795.906 519.381 792.204 518.462 789.097 516.625C786.01 514.769 783.624 512.165 781.938 508.812C780.272 505.441 779.438 501.492 779.438 496.966C779.438 492.496 780.272 488.557 781.938 485.148C783.624 481.739 785.972 479.078 788.984 477.165C792.014 475.252 795.556 474.295 799.609 474.295C802.071 474.295 804.457 474.703 806.768 475.517C809.079 476.331 811.152 477.61 812.989 479.352C814.827 481.095 816.275 483.358 817.336 486.142C818.397 488.907 818.927 492.269 818.927 496.227V499.239H784.239V492.875H810.603C810.603 490.64 810.149 488.661 809.239 486.938C808.33 485.195 807.052 483.822 805.404 482.818C803.775 481.814 801.863 481.312 799.666 481.312C797.279 481.312 795.196 481.9 793.416 483.074C791.654 484.229 790.291 485.744 789.325 487.619C788.378 489.475 787.904 491.492 787.904 493.67V498.642C787.904 501.559 788.416 504.04 789.438 506.085C790.48 508.131 791.929 509.693 793.785 510.773C795.641 511.833 797.81 512.364 800.291 512.364C801.9 512.364 803.368 512.136 804.694 511.682C806.02 511.208 807.166 510.508 808.132 509.58C809.097 508.652 809.836 507.506 810.347 506.142L818.387 507.591C817.743 509.958 816.588 512.032 814.921 513.812C813.274 515.574 811.2 516.947 808.7 517.932C806.219 518.898 803.387 519.381 800.205 519.381ZM860.171 485.517L852.472 486.881C852.15 485.896 851.638 484.958 850.938 484.068C850.256 483.178 849.328 482.449 848.154 481.881C846.979 481.312 845.511 481.028 843.75 481.028C841.345 481.028 839.337 481.568 837.727 482.648C836.118 483.708 835.313 485.081 835.313 486.767C835.313 488.225 835.852 489.4 836.932 490.29C838.011 491.18 839.754 491.909 842.159 492.477L849.091 494.068C853.106 494.996 856.099 496.426 858.068 498.358C860.038 500.29 861.023 502.799 861.023 505.886C861.023 508.5 860.265 510.83 858.75 512.875C857.254 514.902 855.161 516.492 852.472 517.648C849.801 518.803 846.705 519.381 843.182 519.381C838.296 519.381 834.309 518.339 831.222 516.256C828.135 514.153 826.241 511.17 825.54 507.307L833.75 506.057C834.261 508.197 835.313 509.816 836.904 510.915C838.494 511.994 840.568 512.534 843.125 512.534C845.909 512.534 848.135 511.956 849.801 510.801C851.468 509.627 852.301 508.197 852.301 506.511C852.301 505.148 851.79 504.002 850.767 503.074C849.763 502.146 848.22 501.445 846.136 500.972L838.75 499.352C834.678 498.424 831.667 496.947 829.716 494.92C827.784 492.894 826.818 490.328 826.818 487.222C826.818 484.646 827.538 482.392 828.977 480.46C830.417 478.528 832.405 477.023 834.943 475.943C837.481 474.845 840.388 474.295 843.665 474.295C848.381 474.295 852.093 475.318 854.801 477.364C857.51 479.39 859.299 482.108 860.171 485.517ZM889.852 474.864V481.682H866.016V474.864H889.852ZM872.408 464.409H880.903V505.688C880.903 507.335 881.149 508.576 881.641 509.409C882.134 510.223 882.768 510.782 883.545 511.085C884.34 511.369 885.202 511.511 886.13 511.511C886.812 511.511 887.408 511.464 887.92 511.369C888.431 511.275 888.829 511.199 889.113 511.142L890.647 518.159C890.155 518.348 889.454 518.538 888.545 518.727C887.636 518.936 886.499 519.049 885.136 519.068C882.901 519.106 880.818 518.708 878.886 517.875C876.954 517.042 875.391 515.754 874.198 514.011C873.005 512.269 872.408 510.081 872.408 507.449V464.409Z" fill="black"/>
    <rect x="2090" y="335" width="555" height="309" rx="80" fill="#9747FF"/>
    <path d="M2237.41 455.182H2250.2L2272.43 509.455H2273.24L2295.47 455.182H2308.26V525H2298.23V474.477H2297.59L2276.99 524.898H2268.68L2248.09 474.443H2247.44V525H2237.41V455.182ZM2342.6 526.057C2337.69 526.057 2333.41 524.932 2329.75 522.682C2326.09 520.432 2323.25 517.284 2321.23 513.239C2319.2 509.193 2318.19 504.466 2318.19 499.057C2318.19 493.625 2319.2 488.875 2321.23 484.807C2323.25 480.739 2326.09 477.58 2329.75 475.33C2333.41 473.08 2337.69 471.955 2342.6 471.955C2347.51 471.955 2351.79 473.08 2355.45 475.33C2359.11 477.58 2361.95 480.739 2363.98 484.807C2366 488.875 2367.01 493.625 2367.01 499.057C2367.01 504.466 2366 509.193 2363.98 513.239C2361.95 517.284 2359.11 520.432 2355.45 522.682C2351.79 524.932 2347.51 526.057 2342.6 526.057ZM2342.64 517.5C2345.82 517.5 2348.45 516.659 2350.54 514.977C2352.64 513.295 2354.18 511.057 2355.18 508.261C2356.2 505.466 2356.72 502.386 2356.72 499.023C2356.72 495.682 2356.2 492.614 2355.18 489.818C2354.18 487 2352.64 484.739 2350.54 483.034C2348.45 481.33 2345.82 480.477 2342.64 480.477C2339.43 480.477 2336.77 481.33 2334.66 483.034C2332.57 484.739 2331.01 487 2329.99 489.818C2328.99 492.614 2328.49 495.682 2328.49 499.023C2328.49 502.386 2328.99 505.466 2329.99 508.261C2331.01 511.057 2332.57 513.295 2334.66 514.977C2336.77 516.659 2339.43 517.5 2342.64 517.5ZM2395.78 526.023C2391.56 526.023 2387.78 524.943 2384.46 522.784C2381.17 520.602 2378.58 517.5 2376.69 513.477C2374.83 509.432 2373.9 504.58 2373.9 498.92C2373.9 493.261 2374.84 488.42 2376.73 484.398C2378.63 480.375 2381.25 477.295 2384.57 475.159C2387.88 473.023 2391.65 471.955 2395.85 471.955C2399.1 471.955 2401.71 472.5 2403.69 473.591C2405.69 474.659 2407.24 475.909 2408.33 477.341C2409.44 478.773 2410.31 480.034 2410.92 481.125H2411.53V455.182H2421.73V525H2411.77V516.852H2410.92C2410.31 517.966 2409.42 519.239 2408.26 520.67C2407.12 522.102 2405.56 523.352 2403.56 524.42C2401.56 525.489 2398.96 526.023 2395.78 526.023ZM2398.03 517.33C2400.96 517.33 2403.44 516.557 2405.46 515.011C2407.51 513.443 2409.06 511.273 2410.1 508.5C2411.17 505.727 2411.7 502.5 2411.7 498.818C2411.7 495.182 2411.18 492 2410.13 489.273C2409.09 486.545 2407.56 484.42 2405.53 482.898C2403.51 481.375 2401.01 480.614 2398.03 480.614C2394.96 480.614 2392.41 481.409 2390.36 483C2388.32 484.591 2386.77 486.761 2385.73 489.511C2384.7 492.261 2384.19 495.364 2384.19 498.818C2384.19 502.318 2384.71 505.466 2385.76 508.261C2386.81 511.057 2388.35 513.273 2390.4 514.909C2392.46 516.523 2395.01 517.33 2398.03 517.33ZM2456.63 526.057C2451.48 526.057 2447.03 524.955 2443.3 522.75C2439.6 520.523 2436.74 517.398 2434.71 513.375C2432.71 509.33 2431.71 504.591 2431.71 499.159C2431.71 493.795 2432.71 489.068 2434.71 484.977C2436.74 480.886 2439.55 477.693 2443.17 475.398C2446.8 473.102 2451.05 471.955 2455.92 471.955C2458.87 471.955 2461.74 472.443 2464.51 473.42C2467.28 474.398 2469.77 475.932 2471.98 478.023C2474.18 480.114 2475.92 482.83 2477.19 486.17C2478.46 489.489 2479.1 493.523 2479.1 498.273V501.886H2437.48V494.25H2469.11C2469.11 491.568 2468.57 489.193 2467.48 487.125C2466.38 485.034 2464.85 483.386 2462.87 482.182C2460.92 480.977 2458.62 480.375 2455.99 480.375C2453.12 480.375 2450.62 481.08 2448.49 482.489C2446.37 483.875 2444.74 485.693 2443.58 487.943C2442.44 490.17 2441.87 492.591 2441.87 495.205V501.17C2441.87 504.67 2442.49 507.648 2443.71 510.102C2444.96 512.557 2446.7 514.432 2448.93 515.727C2451.16 517 2453.76 517.636 2456.74 517.636C2458.67 517.636 2460.43 517.364 2462.02 516.818C2463.61 516.25 2464.99 515.409 2466.15 514.295C2467.3 513.182 2468.19 511.807 2468.8 510.17L2478.45 511.909C2477.68 514.75 2476.29 517.239 2474.29 519.375C2472.32 521.489 2469.83 523.136 2466.83 524.318C2463.85 525.477 2460.45 526.057 2456.63 526.057ZM2498.4 455.182V525H2488.2V455.182H2498.4Z" fill="white"/>
    <path d="M1893 484.5C1890.24 484.5 1888 486.739 1888 489.5C1888 492.261 1890.24 494.5 1893 494.5V484.5ZM2089.54 493.036C2091.49 491.083 2091.49 487.917 2089.54 485.964L2057.72 454.145C2055.76 452.192 2052.6 452.192 2050.64 454.145C2048.69 456.097 2048.69 459.263 2050.64 461.216L2078.93 489.5L2050.64 517.784C2048.69 519.737 2048.69 522.903 2050.64 524.855C2052.6 526.808 2055.76 526.808 2057.72 524.855L2089.54 493.036ZM1893 494.5H2086V484.5H1893V494.5Z" fill="#B3B3B3"/>
    <path d="M1486.5 644C1486.5 641.239 1484.26 639 1481.5 639C1478.74 639 1476.5 641.239 1476.5 644L1486.5 644ZM1481.5 832L1486.5 832L1486.5 832L1481.5 832ZM1135.73 895C1132.97 895 1130.73 897.239 1130.73 900C1130.73 902.761 1132.97 905 1135.73 905V895ZM580.732 905C583.493 905 585.732 902.761 585.732 900C585.732 897.239 583.493 895 580.732 895V905ZM238.499 644.464C236.546 642.512 233.38 642.512 231.428 644.464L199.608 676.284C197.655 678.237 197.655 681.403 199.608 683.355C201.561 685.308 204.726 685.308 206.679 683.355L234.963 655.071L263.248 683.355C265.2 685.308 268.366 685.308 270.319 683.355C272.271 681.403 272.271 678.237 270.319 676.284L238.499 644.464ZM1481.5 876L1476.5 876L1481.5 876ZM1143.98 905C1146.74 905 1148.98 902.761 1148.98 900C1148.98 897.239 1146.74 895 1143.98 895V905ZM1154.3 895C1151.53 895 1149.3 897.239 1149.3 900C1149.3 902.761 1151.53 905 1154.3 905V895ZM1170.8 905C1173.56 905 1175.8 902.761 1175.8 900C1175.8 897.239 1173.56 895 1170.8 895V905ZM1181.11 895C1178.35 895 1176.11 897.239 1176.11 900C1176.11 902.761 1178.35 905 1181.11 905V895ZM1197.61 905C1200.37 905 1202.61 902.761 1202.61 900C1202.61 897.239 1200.37 895 1197.61 895V905ZM1207.92 895C1205.16 895 1202.92 897.239 1202.92 900C1202.92 902.761 1205.16 905 1207.92 905V895ZM1224.42 905C1227.19 905 1229.42 902.761 1229.42 900C1229.42 897.239 1227.19 895 1224.42 895V905ZM1234.74 895C1231.98 895 1229.74 897.239 1229.74 900C1229.74 902.761 1231.98 905 1234.74 905V895ZM1251.24 905C1254 905 1256.24 902.761 1256.24 900C1256.24 897.239 1254 895 1251.24 895V905ZM1261.55 895C1258.79 895 1256.55 897.239 1256.55 900C1256.55 902.761 1258.79 905 1261.55 905V895ZM1278.05 905C1280.81 905 1283.05 902.761 1283.05 900C1283.05 897.239 1280.81 895 1278.05 895V905ZM1288.37 895C1285.6 895 1283.37 897.239 1283.37 900C1283.37 902.761 1285.6 905 1288.37 905V895ZM1304.87 905C1307.63 905 1309.87 902.761 1309.87 900C1309.87 897.239 1307.63 895 1304.87 895V905ZM1315.18 895C1312.42 895 1310.18 897.239 1310.18 900C1310.18 902.761 1312.42 905 1315.18 905V895ZM1331.68 905C1334.44 905 1336.68 902.761 1336.68 900C1336.68 897.239 1334.44 895 1331.68 895V905ZM1341.99 895C1339.23 895 1336.99 897.239 1336.99 900C1336.99 902.761 1339.23 905 1341.99 905V895ZM1358.49 905C1361.26 905 1363.49 902.761 1363.49 900C1363.49 897.239 1361.26 895 1358.49 895V905ZM1368.81 895C1366.05 895 1363.81 897.239 1363.81 900C1363.81 902.761 1366.05 905 1368.81 905V895ZM1385.31 905C1388.07 905 1390.31 902.761 1390.31 900C1390.31 897.239 1388.07 895 1385.31 895V905ZM1395.62 895C1392.86 895 1390.62 897.239 1390.62 900C1390.62 902.761 1392.86 905 1395.62 905V895ZM1412.12 905C1414.88 905 1417.12 902.761 1417.12 900C1417.12 897.239 1414.88 895 1412.12 895V905ZM1422.44 895C1419.67 895 1417.44 897.239 1417.44 900C1417.44 902.761 1419.67 905 1422.44 905V895ZM1438.94 905C1441.7 905 1443.94 902.761 1443.94 900C1443.94 897.239 1441.7 895 1438.94 895V905ZM1449.25 895C1446.49 895 1444.25 897.239 1444.25 900C1444.25 902.761 1446.49 905 1449.25 905V895ZM1470.98 901.681C1473.43 900.395 1474.37 897.372 1473.08 894.928C1471.8 892.484 1468.77 891.545 1466.33 892.83L1470.98 901.681ZM1474.33 884.828C1473.04 887.272 1473.98 890.296 1476.43 891.581C1478.87 892.866 1481.9 891.927 1483.18 889.483L1474.33 884.828ZM1486.5 869.231C1486.5 866.469 1484.26 864.231 1481.5 864.231C1478.74 864.231 1476.5 866.469 1476.5 869.231L1486.5 869.231ZM1476.5 860.769C1476.5 863.531 1478.74 865.769 1481.5 865.769C1484.26 865.769 1486.5 863.531 1486.5 860.769L1476.5 860.769ZM1486.5 847.231C1486.5 844.469 1484.26 842.231 1481.5 842.231C1478.74 842.231 1476.5 844.469 1476.5 847.231L1486.5 847.231ZM1476.5 838.769C1476.5 841.531 1478.74 843.769 1481.5 843.769C1484.26 843.769 1486.5 841.531 1486.5 838.769L1476.5 838.769ZM1486.5 823.736C1486.5 820.975 1484.26 818.736 1481.5 818.736C1478.74 818.736 1476.5 820.975 1476.5 823.736L1486.5 823.736ZM1476.5 813.407C1476.5 816.168 1478.74 818.407 1481.5 818.407C1484.26 818.407 1486.5 816.168 1486.5 813.407L1476.5 813.407ZM1486.5 796.879C1486.5 794.118 1484.26 791.879 1481.5 791.879C1478.74 791.879 1476.5 794.118 1476.5 796.879L1486.5 796.879ZM1476.5 786.549C1476.5 789.311 1478.74 791.549 1481.5 791.549C1484.26 791.549 1486.5 789.311 1486.5 786.549L1476.5 786.549ZM1486.5 770.022C1486.5 767.261 1484.26 765.022 1481.5 765.022C1478.74 765.022 1476.5 767.261 1476.5 770.022L1486.5 770.022ZM1476.5 759.692C1476.5 762.454 1478.74 764.692 1481.5 764.692C1484.26 764.692 1486.5 762.454 1486.5 759.692L1476.5 759.692ZM1486.5 743.165C1486.5 740.403 1484.26 738.165 1481.5 738.165C1478.74 738.165 1476.5 740.403 1476.5 743.165L1486.5 743.165ZM1476.5 732.835C1476.5 735.597 1478.74 737.835 1481.5 737.835C1484.26 737.835 1486.5 735.597 1486.5 732.835L1476.5 732.835ZM1486.5 716.308C1486.5 713.546 1484.26 711.308 1481.5 711.308C1478.74 711.308 1476.5 713.546 1476.5 716.308L1486.5 716.308ZM1476.5 705.978C1476.5 708.739 1478.74 710.978 1481.5 710.978C1484.26 710.978 1486.5 708.739 1486.5 705.978L1476.5 705.978ZM1486.5 689.451C1486.5 686.689 1484.26 684.451 1481.5 684.451C1478.74 684.451 1476.5 686.689 1476.5 689.451L1486.5 689.451ZM1476.5 679.121C1476.5 681.882 1478.74 684.121 1481.5 684.121C1484.26 684.121 1486.5 681.882 1486.5 679.121L1476.5 679.121ZM1486.5 662.593C1486.5 659.832 1484.26 657.593 1481.5 657.593C1478.74 657.593 1476.5 659.832 1476.5 662.593L1486.5 662.593ZM1476.5 652.264C1476.5 655.025 1478.74 657.264 1481.5 657.264C1484.26 657.264 1486.5 655.025 1486.5 652.264L1476.5 652.264ZM229.963 655.795C229.963 658.556 232.202 660.795 234.963 660.795C237.725 660.795 239.963 658.556 239.963 655.795H229.963ZM239.963 665.538C239.963 662.777 237.725 660.538 234.963 660.538C232.202 660.538 229.963 662.777 229.963 665.538H239.963ZM229.963 681.128C229.963 683.89 232.202 686.128 234.963 686.128C237.725 686.128 239.963 683.89 239.963 681.128H229.963ZM239.963 690.872C239.963 688.11 237.725 685.872 234.963 685.872C232.202 685.872 229.963 688.11 229.963 690.872H239.963ZM229.963 706.462C229.963 709.223 232.202 711.462 234.963 711.462C237.725 711.462 239.963 709.223 239.963 706.462H229.963ZM239.963 716.205C239.963 713.444 237.725 711.205 234.963 711.205C232.202 711.205 229.963 713.444 229.963 716.205H239.963ZM229.963 731.795C229.963 734.556 232.202 736.795 234.963 736.795C237.725 736.795 239.963 734.556 239.963 731.795H229.963ZM239.963 741.538C239.963 738.777 237.725 736.538 234.963 736.538C232.202 736.538 229.963 738.777 229.963 741.538H239.963ZM229.963 757.128C229.963 759.89 232.202 762.128 234.963 762.128C237.725 762.128 239.963 759.89 239.963 757.128H229.963ZM239.963 766.872C239.963 764.11 237.725 761.872 234.963 761.872C232.202 761.872 229.963 764.11 229.963 766.872H239.963ZM229.963 782.462C229.963 785.223 232.202 787.462 234.963 787.462C237.725 787.462 239.963 785.223 239.963 782.462H229.963ZM239.963 792.205C239.963 789.444 237.725 787.205 234.963 787.205C232.202 787.205 229.963 789.444 229.963 792.205H239.963ZM229.963 807.795C229.963 810.556 232.202 812.795 234.963 812.795C237.725 812.795 239.963 810.556 239.963 807.795H229.963ZM239.963 817.538C239.963 814.777 237.725 812.538 234.963 812.538C232.202 812.538 229.963 814.777 229.963 817.538H239.963ZM229.963 833.128C229.963 835.89 232.202 838.128 234.963 838.128C237.725 838.128 239.963 835.89 239.963 833.128H229.963ZM239.963 842.872C239.963 840.11 237.725 837.872 234.963 837.872C232.202 837.872 229.963 840.11 229.963 842.872H239.963ZM229.963 858.462C229.963 861.223 232.202 863.462 234.963 863.462C237.725 863.462 239.963 861.223 239.963 858.462H229.963ZM239.963 868.205C239.963 865.444 237.725 863.205 234.963 863.205C232.202 863.205 229.963 865.444 229.963 868.205H239.963ZM233.283 889.483C234.568 891.927 237.591 892.866 240.035 891.581C242.479 890.296 243.419 887.272 242.133 884.828L233.283 889.483ZM250.135 892.83C247.691 891.545 244.668 892.484 243.382 894.928C242.097 897.372 243.036 900.395 245.48 901.681L250.135 892.83ZM267.214 905C269.975 905 272.214 902.761 272.214 900C272.214 897.239 269.975 895 267.214 895V905ZM277.527 895C274.765 895 272.527 897.239 272.527 900C272.527 902.761 274.765 905 277.527 905V895ZM294.028 905C296.789 905 299.028 902.761 299.028 900C299.028 897.239 296.789 895 294.028 895V905ZM304.341 895C301.58 895 299.341 897.239 299.341 900C299.341 902.761 301.58 905 304.341 905V895ZM320.842 905C323.603 905 325.842 902.761 325.842 900C325.842 897.239 323.603 895 320.842 895V905ZM331.155 895C328.394 895 326.155 897.239 326.155 900C326.155 902.761 328.394 905 331.155 905V895ZM347.656 905C350.417 905 352.656 902.761 352.656 900C352.656 897.239 350.417 895 347.656 895V905ZM357.969 895C355.208 895 352.969 897.239 352.969 900C352.969 902.761 355.208 905 357.969 905V895ZM374.47 905C377.231 905 379.47 902.761 379.47 900C379.47 897.239 377.231 895 374.47 895V905ZM384.783 895C382.022 895 379.783 897.239 379.783 900C379.783 902.761 382.022 905 384.783 905V895ZM401.284 905C404.045 905 406.284 902.761 406.284 900C406.284 897.239 404.045 895 401.284 895V905ZM411.597 895C408.836 895 406.597 897.239 406.597 900C406.597 902.761 408.836 905 411.597 905V895ZM428.098 905C430.859 905 433.098 902.761 433.098 900C433.098 897.239 430.859 895 428.098 895V905ZM438.411 895C435.65 895 433.411 897.239 433.411 900C433.411 902.761 435.65 905 438.411 905V895ZM454.912 905C457.673 905 459.912 902.761 459.912 900C459.912 897.239 457.673 895 454.912 895V905ZM465.225 895C462.464 895 460.225 897.239 460.225 900C460.225 902.761 462.464 905 465.225 905V895ZM481.726 905C484.488 905 486.726 902.761 486.726 900C486.726 897.239 484.488 895 481.726 895V905ZM492.039 895C489.278 895 487.039 897.239 487.039 900C487.039 902.761 489.278 905 492.039 905V895ZM508.54 905C511.302 905 513.54 902.761 513.54 900C513.54 897.239 511.302 895 508.54 895V905ZM518.853 895C516.092 895 513.853 897.239 513.853 900C513.853 902.761 516.092 905 518.853 905V895ZM535.354 905C538.116 905 540.354 902.761 540.354 900C540.354 897.239 538.116 895 535.354 895V905ZM545.667 895C542.906 895 540.667 897.239 540.667 900C540.667 902.761 542.906 905 545.667 905V895ZM562.168 905C564.93 905 567.168 902.761 567.168 900C567.168 897.239 564.93 895 562.168 895V905ZM572.481 895C569.72 895 567.481 897.239 567.481 900C567.481 902.761 569.72 905 572.481 905V895ZM1135.73 905H1143.98V895H1135.73V905ZM1154.3 905H1170.8V895H1154.3V905ZM1181.11 905H1197.61V895H1181.11V905ZM1207.92 905H1224.42V895H1207.92V905ZM1234.74 905H1251.24V895H1234.74V905ZM1261.55 905H1278.05V895H1261.55V905ZM1288.37 905H1304.87V895H1288.37V905ZM1315.18 905H1331.68V895H1315.18V905ZM1341.99 905H1358.49V895H1341.99V905ZM1368.81 905H1385.31V895H1368.81V905ZM1395.62 905H1412.12V895H1395.62V905ZM1422.44 905H1438.94V895H1422.44V905ZM1449.25 905H1457.5V895H1449.25V905ZM1457.5 905C1462.36 905 1466.95 903.802 1470.98 901.681L1466.33 892.83C1463.7 894.214 1460.7 895 1457.5 895V905ZM1483.18 889.483C1485.3 885.45 1486.5 880.857 1486.5 876L1476.5 876C1476.5 879.197 1475.71 882.196 1474.33 884.828L1483.18 889.483ZM1486.5 876L1486.5 869.231L1476.5 869.231L1476.5 876L1486.5 876ZM1486.5 860.769L1486.5 847.231L1476.5 847.231L1476.5 860.769L1486.5 860.769ZM1486.5 838.769L1486.5 832L1476.5 832L1476.5 838.769L1486.5 838.769ZM1486.5 832L1486.5 823.736L1476.5 823.736L1476.5 832L1486.5 832ZM1486.5 813.407L1486.5 796.879L1476.5 796.879L1476.5 813.407L1486.5 813.407ZM1486.5 786.549L1486.5 770.022L1476.5 770.022L1476.5 786.549L1486.5 786.549ZM1486.5 759.692L1486.5 743.165L1476.5 743.165L1476.5 759.692L1486.5 759.692ZM1486.5 732.835L1486.5 716.308L1476.5 716.308L1476.5 732.835L1486.5 732.835ZM1486.5 705.978L1486.5 689.451L1476.5 689.451L1476.5 705.978L1486.5 705.978ZM1486.5 679.121L1486.5 662.593L1476.5 662.593L1476.5 679.121L1486.5 679.121ZM1486.5 652.264L1486.5 644L1476.5 644L1476.5 652.264L1486.5 652.264ZM229.963 648V655.795H239.963V648H229.963ZM229.963 665.538V681.128H239.963V665.538H229.963ZM229.963 690.872V706.462H239.963V690.872H229.963ZM229.963 716.205V731.795H239.963V716.205H229.963ZM229.963 741.538V757.128H239.963V741.538H229.963ZM229.963 766.872V782.462H239.963V766.872H229.963ZM229.963 792.205V807.795H239.963V792.205H229.963ZM229.963 817.538V833.128H239.963V817.538H229.963ZM229.963 842.872V858.462H239.963V842.872H229.963ZM229.963 868.205V876H239.963V868.205H229.963ZM229.963 876C229.963 880.857 231.162 885.45 233.283 889.483L242.133 884.828C240.749 882.196 239.963 879.197 239.963 876H229.963ZM245.48 901.681C249.514 903.802 254.106 905 258.963 905V895C255.766 895 252.768 894.214 250.135 892.83L245.48 901.681ZM258.963 905H267.214V895H258.963V905ZM277.527 905H294.028V895H277.527V905ZM304.341 905H320.842V895H304.341V905ZM331.155 905H347.656V895H331.155V905ZM357.969 905H374.47V895H357.969V905ZM384.783 905H401.284V895H384.783V905ZM411.597 905H428.098V895H411.597V905ZM438.411 905H454.912V895H438.411V905ZM465.225 905H481.726V895H465.225V905ZM492.039 905H508.54V895H492.039V905ZM518.853 905H535.354V895H518.853V905ZM545.667 905H562.168V895H545.667V905ZM572.481 905H580.732V895H572.481V905Z" fill="#B3B3B3"/>
    <path d="M659.254 896.017L651.556 897.381C651.234 896.396 650.722 895.458 650.022 894.568C649.34 893.678 648.412 892.949 647.237 892.381C646.063 891.812 644.595 891.528 642.834 891.528C640.429 891.528 638.421 892.068 636.811 893.148C635.201 894.208 634.397 895.581 634.397 897.267C634.397 898.725 634.936 899.9 636.016 900.79C637.095 901.68 638.838 902.409 641.243 902.977L648.175 904.568C652.19 905.496 655.182 906.926 657.152 908.858C659.122 910.79 660.107 913.299 660.107 916.386C660.107 919 659.349 921.33 657.834 923.375C656.338 925.402 654.245 926.992 651.556 928.148C648.885 929.303 645.789 929.881 642.266 929.881C637.379 929.881 633.393 928.839 630.306 926.756C627.218 924.653 625.325 921.67 624.624 917.807L632.834 916.557C633.345 918.697 634.397 920.316 635.987 921.415C637.578 922.494 639.652 923.034 642.209 923.034C644.993 923.034 647.218 922.456 648.885 921.301C650.552 920.127 651.385 918.697 651.385 917.011C651.385 915.648 650.874 914.502 649.851 913.574C648.847 912.646 647.304 911.945 645.22 911.472L637.834 909.852C633.762 908.924 630.751 907.447 628.8 905.42C626.868 903.394 625.902 900.828 625.902 897.722C625.902 895.146 626.622 892.892 628.061 890.96C629.501 889.028 631.489 887.523 634.027 886.443C636.565 885.345 639.472 884.795 642.749 884.795C647.465 884.795 651.177 885.818 653.885 887.864C656.593 889.89 658.383 892.608 659.254 896.017ZM688.936 885.364V892.182H665.1V885.364H688.936ZM671.492 874.909H679.987V916.188C679.987 917.835 680.233 919.076 680.725 919.909C681.218 920.723 681.852 921.282 682.629 921.585C683.424 921.869 684.286 922.011 685.214 922.011C685.896 922.011 686.492 921.964 687.004 921.869C687.515 921.775 687.913 921.699 688.197 921.642L689.731 928.659C689.239 928.848 688.538 929.038 687.629 929.227C686.72 929.436 685.583 929.549 684.22 929.568C681.985 929.606 679.901 929.208 677.97 928.375C676.038 927.542 674.475 926.254 673.282 924.511C672.089 922.769 671.492 920.581 671.492 917.949V874.909ZM710.151 929.966C707.386 929.966 704.886 929.455 702.651 928.432C700.416 927.39 698.645 925.884 697.338 923.915C696.05 921.945 695.406 919.53 695.406 916.67C695.406 914.208 695.88 912.182 696.827 910.591C697.774 909 699.052 907.741 700.662 906.812C702.272 905.884 704.071 905.184 706.06 904.71C708.048 904.237 710.075 903.877 712.139 903.631C714.753 903.328 716.874 903.081 718.503 902.892C720.132 902.684 721.315 902.352 722.054 901.898C722.793 901.443 723.162 900.705 723.162 899.682V899.483C723.162 897.002 722.461 895.08 721.06 893.716C719.677 892.352 717.613 891.67 714.867 891.67C712.007 891.67 709.753 892.305 708.105 893.574C706.476 894.824 705.35 896.216 704.725 897.75L696.742 895.932C697.689 893.28 699.071 891.14 700.889 889.511C702.726 887.864 704.838 886.67 707.225 885.932C709.611 885.174 712.12 884.795 714.753 884.795C716.495 884.795 718.342 885.004 720.293 885.42C722.262 885.818 724.1 886.557 725.804 887.636C727.528 888.716 728.939 890.259 730.037 892.267C731.136 894.256 731.685 896.841 731.685 900.023V929H723.389V923.034H723.048C722.499 924.133 721.675 925.212 720.577 926.273C719.478 927.333 718.067 928.214 716.344 928.915C714.62 929.616 712.556 929.966 710.151 929.966ZM711.997 923.148C714.346 923.148 716.353 922.684 718.02 921.756C719.706 920.828 720.984 919.616 721.855 918.119C722.745 916.604 723.19 914.985 723.19 913.261V907.636C722.887 907.939 722.3 908.223 721.429 908.489C720.577 908.735 719.601 908.953 718.503 909.142C717.404 909.312 716.334 909.473 715.293 909.625C714.251 909.758 713.38 909.871 712.679 909.966C711.031 910.174 709.526 910.525 708.162 911.017C706.817 911.509 705.738 912.22 704.923 913.148C704.128 914.057 703.73 915.269 703.73 916.784C703.73 918.886 704.507 920.477 706.06 921.557C707.613 922.617 709.592 923.148 711.997 923.148ZM762.488 885.364V892.182H738.653V885.364H762.488ZM745.045 874.909H753.539V916.188C753.539 917.835 753.785 919.076 754.278 919.909C754.77 920.723 755.405 921.282 756.181 921.585C756.977 921.869 757.838 922.011 758.766 922.011C759.448 922.011 760.045 921.964 760.556 921.869C761.068 921.775 761.465 921.699 761.749 921.642L763.283 928.659C762.791 928.848 762.09 929.038 761.181 929.227C760.272 929.436 759.136 929.549 757.772 929.568C755.537 929.606 753.454 929.208 751.522 928.375C749.59 927.542 748.028 926.254 746.835 924.511C745.641 922.769 745.045 920.581 745.045 917.949V874.909ZM789.342 929.881C785.043 929.881 781.341 928.962 778.234 927.125C775.147 925.269 772.761 922.665 771.075 919.312C769.409 915.941 768.575 911.992 768.575 907.466C768.575 902.996 769.409 899.057 771.075 895.648C772.761 892.239 775.109 889.578 778.121 887.665C781.151 885.752 784.693 884.795 788.746 884.795C791.208 884.795 793.594 885.203 795.905 886.017C798.216 886.831 800.289 888.11 802.127 889.852C803.964 891.595 805.412 893.858 806.473 896.642C807.534 899.407 808.064 902.769 808.064 906.727V909.739H773.377V903.375H799.74C799.74 901.14 799.286 899.161 798.377 897.438C797.467 895.695 796.189 894.322 794.541 893.318C792.912 892.314 791 891.812 788.803 891.812C786.416 891.812 784.333 892.4 782.553 893.574C780.791 894.729 779.428 896.244 778.462 898.119C777.515 899.975 777.041 901.992 777.041 904.17V909.142C777.041 912.059 777.553 914.54 778.575 916.585C779.617 918.631 781.066 920.193 782.922 921.273C784.778 922.333 786.947 922.864 789.428 922.864C791.037 922.864 792.505 922.636 793.831 922.182C795.157 921.708 796.303 921.008 797.269 920.08C798.234 919.152 798.973 918.006 799.484 916.642L807.524 918.091C806.88 920.458 805.725 922.532 804.058 924.312C802.411 926.074 800.337 927.447 797.837 928.432C795.356 929.398 792.524 929.881 789.342 929.881ZM864.543 910.903V885.364H873.065V929H864.713V921.443H864.259C863.255 923.773 861.645 925.714 859.429 927.267C857.232 928.801 854.495 929.568 851.219 929.568C848.416 929.568 845.935 928.953 843.776 927.722C841.635 926.472 839.95 924.625 838.719 922.182C837.507 919.739 836.901 916.718 836.901 913.119V885.364H845.395V912.097C845.395 915.07 846.219 917.437 847.867 919.199C849.514 920.96 851.654 921.841 854.287 921.841C855.878 921.841 857.459 921.443 859.031 920.648C860.622 919.852 861.938 918.65 862.98 917.04C864.041 915.43 864.562 913.384 864.543 910.903ZM883.599 945.364V885.364H891.894V892.438H892.604C893.097 891.528 893.807 890.477 894.735 889.284C895.663 888.091 896.951 887.049 898.599 886.159C900.246 885.25 902.424 884.795 905.133 884.795C908.656 884.795 911.799 885.686 914.565 887.466C917.33 889.246 919.498 891.812 921.07 895.165C922.661 898.517 923.457 902.551 923.457 907.267C923.457 911.983 922.671 916.027 921.099 919.398C919.527 922.75 917.368 925.335 914.621 927.153C911.875 928.953 908.741 929.852 905.218 929.852C902.567 929.852 900.398 929.407 898.712 928.517C897.046 927.627 895.739 926.585 894.792 925.392C893.845 924.199 893.116 923.138 892.604 922.21H892.093V945.364H883.599ZM891.923 907.182C891.923 910.25 892.368 912.939 893.258 915.25C894.148 917.561 895.436 919.369 897.121 920.676C898.807 921.964 900.871 922.608 903.315 922.608C905.853 922.608 907.974 921.936 909.678 920.591C911.383 919.227 912.671 917.381 913.542 915.051C914.432 912.722 914.877 910.098 914.877 907.182C914.877 904.303 914.442 901.718 913.57 899.426C912.718 897.134 911.43 895.326 909.707 894C908.002 892.674 905.871 892.011 903.315 892.011C900.853 892.011 898.769 892.646 897.065 893.915C895.379 895.184 894.101 896.955 893.229 899.227C892.358 901.5 891.923 904.152 891.923 907.182ZM948.429 929.852C944.906 929.852 941.762 928.953 938.997 927.153C936.251 925.335 934.092 922.75 932.52 919.398C930.967 916.027 930.19 911.983 930.19 907.267C930.19 902.551 930.976 898.517 932.548 895.165C934.139 891.812 936.317 889.246 939.082 887.466C941.847 885.686 944.982 884.795 948.486 884.795C951.194 884.795 953.372 885.25 955.02 886.159C956.687 887.049 957.974 888.091 958.883 889.284C959.812 890.477 960.531 891.528 961.043 892.438H961.554V870.818H970.048V929H961.753V922.21H961.043C960.531 923.138 959.793 924.199 958.827 925.392C957.88 926.585 956.573 927.627 954.906 928.517C953.24 929.407 951.08 929.852 948.429 929.852ZM950.304 922.608C952.747 922.608 954.812 921.964 956.497 920.676C958.202 919.369 959.49 917.561 960.361 915.25C961.251 912.939 961.696 910.25 961.696 907.182C961.696 904.152 961.26 901.5 960.389 899.227C959.518 896.955 958.24 895.184 956.554 893.915C954.868 892.646 952.785 892.011 950.304 892.011C947.747 892.011 945.616 892.674 943.912 894C942.207 895.326 940.919 897.134 940.048 899.426C939.196 901.718 938.77 904.303 938.77 907.182C938.77 910.098 939.205 912.722 940.077 915.051C940.948 917.381 942.236 919.227 943.94 920.591C945.664 921.936 947.785 922.608 950.304 922.608ZM993.991 929.966C991.226 929.966 988.726 929.455 986.491 928.432C984.256 927.39 982.485 925.884 981.178 923.915C979.89 921.945 979.246 919.53 979.246 916.67C979.246 914.208 979.72 912.182 980.667 910.591C981.614 909 982.892 907.741 984.502 906.812C986.112 905.884 987.911 905.184 989.9 904.71C991.888 904.237 993.915 903.877 995.979 903.631C998.593 903.328 1000.71 903.081 1002.34 902.892C1003.97 902.684 1005.16 902.352 1005.89 901.898C1006.63 901.443 1007 900.705 1007 899.682V899.483C1007 897.002 1006.3 895.08 1004.9 893.716C1003.52 892.352 1001.45 891.67 998.707 891.67C995.847 891.67 993.593 892.305 991.945 893.574C990.316 894.824 989.19 896.216 988.565 897.75L980.582 895.932C981.529 893.28 982.911 891.14 984.729 889.511C986.566 887.864 988.678 886.67 991.065 885.932C993.451 885.174 995.96 884.795 998.593 884.795C1000.34 884.795 1002.18 885.004 1004.13 885.42C1006.1 885.818 1007.94 886.557 1009.64 887.636C1011.37 888.716 1012.78 890.259 1013.88 892.267C1014.98 894.256 1015.52 896.841 1015.52 900.023V929H1007.23V923.034H1006.89C1006.34 924.133 1005.52 925.212 1004.42 926.273C1003.32 927.333 1001.91 928.214 1000.18 928.915C998.46 929.616 996.396 929.966 993.991 929.966ZM995.837 923.148C998.186 923.148 1000.19 922.684 1001.86 921.756C1003.55 920.828 1004.82 919.616 1005.7 918.119C1006.59 916.604 1007.03 914.985 1007.03 913.261V907.636C1006.73 907.939 1006.14 908.223 1005.27 908.489C1004.42 908.735 1003.44 908.953 1002.34 909.142C1001.24 909.312 1000.17 909.473 999.133 909.625C998.091 909.758 997.22 909.871 996.519 909.966C994.871 910.174 993.366 910.525 992.002 911.017C990.657 911.509 989.578 912.22 988.763 913.148C987.968 914.057 987.57 915.269 987.57 916.784C987.57 918.886 988.347 920.477 989.9 921.557C991.453 922.617 993.432 923.148 995.837 923.148ZM1046.33 885.364V892.182H1022.49V885.364H1046.33ZM1028.88 874.909H1037.38V916.188C1037.38 917.835 1037.63 919.076 1038.12 919.909C1038.61 920.723 1039.24 921.282 1040.02 921.585C1040.82 921.869 1041.68 922.011 1042.61 922.011C1043.29 922.011 1043.88 921.964 1044.4 921.869C1044.91 921.775 1045.31 921.699 1045.59 921.642L1047.12 928.659C1046.63 928.848 1045.93 929.038 1045.02 929.227C1044.11 929.436 1042.98 929.549 1041.61 929.568C1039.38 929.606 1037.29 929.208 1035.36 928.375C1033.43 927.542 1031.87 926.254 1030.67 924.511C1029.48 922.769 1028.88 920.581 1028.88 917.949V874.909ZM1073.18 929.881C1068.88 929.881 1065.18 928.962 1062.07 927.125C1058.99 925.269 1056.6 922.665 1054.92 919.312C1053.25 915.941 1052.42 911.992 1052.42 907.466C1052.42 902.996 1053.25 899.057 1054.92 895.648C1056.6 892.239 1058.95 889.578 1061.96 887.665C1064.99 885.752 1068.53 884.795 1072.59 884.795C1075.05 884.795 1077.43 885.203 1079.74 886.017C1082.06 886.831 1084.13 888.11 1085.97 889.852C1087.8 891.595 1089.25 893.858 1090.31 896.642C1091.37 899.407 1091.9 902.769 1091.9 906.727V909.739H1057.22V903.375H1083.58C1083.58 901.14 1083.13 899.161 1082.22 897.438C1081.31 895.695 1080.03 894.322 1078.38 893.318C1076.75 892.314 1074.84 891.812 1072.64 891.812C1070.26 891.812 1068.17 892.4 1066.39 893.574C1064.63 894.729 1063.27 896.244 1062.3 898.119C1061.35 899.975 1060.88 901.992 1060.88 904.17V909.142C1060.88 912.059 1061.39 914.54 1062.42 916.585C1063.46 918.631 1064.91 920.193 1066.76 921.273C1068.62 922.333 1070.79 922.864 1073.27 922.864C1074.88 922.864 1076.35 922.636 1077.67 922.182C1079 921.708 1080.14 921.008 1081.11 920.08C1082.07 919.152 1082.81 918.006 1083.32 916.642L1091.36 918.091C1090.72 920.458 1089.56 922.532 1087.9 924.312C1086.25 926.074 1084.18 927.447 1081.68 928.432C1079.2 929.398 1076.36 929.881 1073.18 929.881Z" fill="black"/>
    <path d="M229.963 331C229.963 333.761 232.201 336 234.963 336C237.724 336 239.963 333.761 239.963 331H229.963ZM580.731 73C583.493 73 585.731 70.7614 585.731 68C585.731 65.2386 583.493 63 580.731 63V73ZM1135.73 63C1132.97 63 1130.73 65.2386 1130.73 68C1130.73 70.7614 1132.97 73 1135.73 73V63ZM1477.96 338.536C1479.92 340.488 1483.08 340.488 1485.04 338.536L1516.86 306.716C1518.81 304.763 1518.81 301.597 1516.86 299.645C1514.9 297.692 1511.74 297.692 1509.78 299.645L1481.5 327.929L1453.22 299.645C1451.26 297.692 1448.1 297.692 1446.14 299.645C1444.19 301.597 1444.19 304.763 1446.14 306.716L1477.96 338.536ZM239.963 322.829C239.963 320.068 237.724 317.829 234.963 317.829C232.201 317.829 229.963 320.068 229.963 322.829H239.963ZM229.963 312.615C229.963 315.377 232.201 317.615 234.963 317.615C237.724 317.615 239.963 315.377 239.963 312.615H229.963ZM239.963 296.274C239.963 293.512 237.724 291.274 234.963 291.274C232.201 291.274 229.963 293.512 229.963 296.274H239.963ZM229.963 286.06C229.963 288.821 232.201 291.06 234.963 291.06C237.724 291.06 239.963 288.821 239.963 286.06H229.963ZM239.963 269.718C239.963 266.957 237.724 264.718 234.963 264.718C232.201 264.718 229.963 266.957 229.963 269.718H239.963ZM229.963 259.504C229.963 262.266 232.201 264.504 234.963 264.504C237.724 264.504 239.963 262.266 239.963 259.504H229.963ZM239.963 243.162C239.963 240.401 237.724 238.162 234.963 238.162C232.201 238.162 229.963 240.401 229.963 243.162H239.963ZM229.963 232.949C229.963 235.71 232.201 237.949 234.963 237.949C237.724 237.949 239.963 235.71 239.963 232.949H229.963ZM239.963 216.607C239.963 213.845 237.724 211.607 234.963 211.607C232.201 211.607 229.963 213.845 229.963 216.607H239.963ZM229.963 206.393C229.963 209.155 232.201 211.393 234.963 211.393C237.724 211.393 239.963 209.155 239.963 206.393H229.963ZM239.963 190.051C239.963 187.29 237.724 185.051 234.963 185.051C232.201 185.051 229.963 187.29 229.963 190.051H239.963ZM229.963 179.838C229.963 182.599 232.201 184.838 234.963 184.838C237.724 184.838 239.963 182.599 239.963 179.838H229.963ZM239.963 163.496C239.963 160.734 237.724 158.496 234.963 158.496C232.201 158.496 229.963 160.734 229.963 163.496H239.963ZM229.963 153.282C229.963 156.043 232.201 158.282 234.963 158.282C237.724 158.282 239.963 156.043 239.963 153.282H229.963ZM239.963 136.94C239.963 134.179 237.724 131.94 234.963 131.94C232.201 131.94 229.963 134.179 229.963 136.94H239.963ZM229.963 126.727C229.963 129.488 232.201 131.727 234.963 131.727C237.724 131.727 239.963 129.488 239.963 126.727H229.963ZM239.963 110.385C239.963 107.623 237.724 105.385 234.963 105.385C232.201 105.385 229.963 107.623 229.963 110.385H239.963ZM229.963 100.171C229.963 102.932 232.201 105.171 234.963 105.171C237.724 105.171 239.963 102.932 239.963 100.171H229.963ZM242.133 83.1718C243.418 80.7278 242.479 77.7045 240.035 76.4191C237.591 75.1338 234.568 76.073 233.282 78.5171L242.133 83.1718ZM245.48 66.3194C243.036 67.6048 242.097 70.6281 243.382 73.0721C244.667 75.5161 247.691 76.4554 250.135 75.17L245.48 66.3194ZM267.213 73C269.975 73 272.213 70.7614 272.213 68C272.213 65.2386 269.975 63 267.213 63V73ZM277.526 63C274.765 63 272.526 65.2386 272.526 68C272.526 70.7614 274.765 73 277.526 73V63ZM294.027 73C296.789 73 299.027 70.7614 299.027 68C299.027 65.2386 296.789 63 294.027 63V73ZM304.34 63C301.579 63 299.34 65.2386 299.34 68C299.34 70.7614 301.579 73 304.34 73V63ZM320.841 73C323.603 73 325.841 70.7614 325.841 68C325.841 65.2386 323.603 63 320.841 63V73ZM331.155 63C328.393 63 326.155 65.2386 326.155 68C326.155 70.7614 328.393 73 331.155 73V63ZM347.655 73C350.417 73 352.655 70.7614 352.655 68C352.655 65.2386 350.417 63 347.655 63V73ZM357.969 63C355.207 63 352.969 65.2386 352.969 68C352.969 70.7614 355.207 73 357.969 73V63ZM374.47 73C377.231 73 379.47 70.7614 379.47 68C379.47 65.2386 377.231 63 374.47 63V73ZM384.783 63C382.021 63 379.783 65.2386 379.783 68C379.783 70.7614 382.021 73 384.783 73V63ZM401.284 73C404.045 73 406.284 70.7614 406.284 68C406.284 65.2386 404.045 63 401.284 63V73ZM411.597 63C408.835 63 406.597 65.2386 406.597 68C406.597 70.7614 408.835 73 411.597 73V63ZM428.098 73C430.859 73 433.098 70.7614 433.098 68C433.098 65.2386 430.859 63 428.098 63V73ZM438.411 63C435.649 63 433.411 65.2386 433.411 68C433.411 70.7614 435.649 73 438.411 73V63ZM454.912 73C457.673 73 459.912 70.7614 459.912 68C459.912 65.2386 457.673 63 454.912 63V73ZM465.225 63C462.463 63 460.225 65.2386 460.225 68C460.225 70.7614 462.463 73 465.225 73V63ZM481.726 73C484.487 73 486.726 70.7614 486.726 68C486.726 65.2386 484.487 63 481.726 63V73ZM492.039 63C489.277 63 487.039 65.2386 487.039 68C487.039 70.7614 489.277 73 492.039 73V63ZM508.54 73C511.301 73 513.54 70.7614 513.54 68C513.54 65.2386 511.301 63 508.54 63V73ZM518.853 63C516.091 63 513.853 65.2386 513.853 68C513.853 70.7614 516.091 73 518.853 73V63ZM535.354 73C538.115 73 540.354 70.7614 540.354 68C540.354 65.2386 538.115 63 535.354 63V73ZM545.667 63C542.905 63 540.667 65.2386 540.667 68C540.667 70.7614 542.905 73 545.667 73V63ZM562.168 73C564.929 73 567.168 70.7614 567.168 68C567.168 65.2386 564.929 63 562.168 63V73ZM572.481 63C569.719 63 567.481 65.2386 567.481 68C567.481 70.7614 569.719 73 572.481 73V63ZM1143.98 73C1146.74 73 1148.98 70.7614 1148.98 68C1148.98 65.2386 1146.74 63 1143.98 63V73ZM1154.29 63C1151.53 63 1149.29 65.2386 1149.29 68C1149.29 70.7614 1151.53 73 1154.29 73V63ZM1170.8 73C1173.56 73 1175.8 70.7614 1175.8 68C1175.8 65.2386 1173.56 63 1170.8 63V73ZM1181.11 63C1178.35 63 1176.11 65.2386 1176.11 68C1176.11 70.7614 1178.35 73 1181.11 73V63ZM1197.61 73C1200.37 73 1202.61 70.7614 1202.61 68C1202.61 65.2386 1200.37 63 1197.61 63V73ZM1207.92 63C1205.16 63 1202.92 65.2386 1202.92 68C1202.92 70.7614 1205.16 73 1207.92 73V63ZM1224.42 73C1227.19 73 1229.42 70.7614 1229.42 68C1229.42 65.2386 1227.19 63 1224.42 63V73ZM1234.74 63C1231.98 63 1229.74 65.2386 1229.74 68C1229.74 70.7614 1231.98 73 1234.74 73V63ZM1251.24 73C1254 73 1256.24 70.7614 1256.24 68C1256.24 65.2386 1254 63 1251.24 63V73ZM1261.55 63C1258.79 63 1256.55 65.2386 1256.55 68C1256.55 70.7614 1258.79 73 1261.55 73V63ZM1278.05 73C1280.81 73 1283.05 70.7614 1283.05 68C1283.05 65.2386 1280.81 63 1278.05 63V73ZM1288.37 63C1285.6 63 1283.37 65.2386 1283.37 68C1283.37 70.7614 1285.6 73 1288.37 73V63ZM1304.87 73C1307.63 73 1309.87 70.7614 1309.87 68C1309.87 65.2386 1307.63 63 1304.87 63V73ZM1315.18 63C1312.42 63 1310.18 65.2386 1310.18 68C1310.18 70.7614 1312.42 73 1315.18 73V63ZM1331.68 73C1334.44 73 1336.68 70.7614 1336.68 68C1336.68 65.2386 1334.44 63 1331.68 63V73ZM1341.99 63C1339.23 63 1336.99 65.2386 1336.99 68C1336.99 70.7614 1339.23 73 1341.99 73V63ZM1358.49 73C1361.26 73 1363.49 70.7614 1363.49 68C1363.49 65.2386 1361.26 63 1358.49 63V73ZM1368.81 63C1366.05 63 1363.81 65.2386 1363.81 68C1363.81 70.7614 1366.05 73 1368.81 73V63ZM1385.31 73C1388.07 73 1390.31 70.7614 1390.31 68C1390.31 65.2386 1388.07 63 1385.31 63V73ZM1395.62 63C1392.86 63 1390.62 65.2386 1390.62 68C1390.62 70.7614 1392.86 73 1395.62 73V63ZM1412.12 73C1414.88 73 1417.12 70.7614 1417.12 68C1417.12 65.2386 1414.88 63 1412.12 63V73ZM1422.44 63C1419.67 63 1417.44 65.2386 1417.44 68C1417.44 70.7614 1419.67 73 1422.44 73V63ZM1438.94 73C1441.7 73 1443.94 70.7614 1443.94 68C1443.94 65.2386 1441.7 63 1438.94 63V73ZM1449.25 63C1446.49 63 1444.25 65.2386 1444.25 68C1444.25 70.7614 1446.49 73 1449.25 73V63ZM1466.33 75.17C1468.77 76.4554 1471.8 75.5161 1473.08 73.0721C1474.37 70.6281 1473.43 67.6048 1470.98 66.3194L1466.33 75.17ZM1483.18 78.5171C1481.89 76.073 1478.87 75.1338 1476.43 76.4191C1473.98 77.7045 1473.04 80.7278 1474.33 83.1718L1483.18 78.5171ZM1476.5 100.308C1476.5 103.069 1478.74 105.308 1481.5 105.308C1484.26 105.308 1486.5 103.069 1486.5 100.308H1476.5ZM1486.5 110.692C1486.5 107.931 1484.26 105.692 1481.5 105.692C1478.74 105.692 1476.5 107.931 1476.5 110.692H1486.5ZM1476.5 127.308C1476.5 130.069 1478.74 132.308 1481.5 132.308C1484.26 132.308 1486.5 130.069 1486.5 127.308H1476.5ZM1486.5 137.692C1486.5 134.931 1484.26 132.692 1481.5 132.692C1478.74 132.692 1476.5 134.931 1476.5 137.692H1486.5ZM1476.5 154.308C1476.5 157.069 1478.74 159.308 1481.5 159.308C1484.26 159.308 1486.5 157.069 1486.5 154.308H1476.5ZM1486.5 164.692C1486.5 161.931 1484.26 159.692 1481.5 159.692C1478.74 159.692 1476.5 161.931 1476.5 164.692H1486.5ZM1476.5 181.308C1476.5 184.069 1478.74 186.308 1481.5 186.308C1484.26 186.308 1486.5 184.069 1486.5 181.308H1476.5ZM1486.5 191.692C1486.5 188.931 1484.26 186.692 1481.5 186.692C1478.74 186.692 1476.5 188.931 1476.5 191.692H1486.5ZM1476.5 208.308C1476.5 211.069 1478.74 213.308 1481.5 213.308C1484.26 213.308 1486.5 211.069 1486.5 208.308H1476.5ZM1486.5 218.692C1486.5 215.931 1484.26 213.692 1481.5 213.692C1478.74 213.692 1476.5 215.931 1476.5 218.692H1486.5ZM1476.5 235.308C1476.5 238.069 1478.74 240.308 1481.5 240.308C1484.26 240.308 1486.5 238.069 1486.5 235.308H1476.5ZM1486.5 245.692C1486.5 242.931 1484.26 240.692 1481.5 240.692C1478.74 240.692 1476.5 242.931 1476.5 245.692H1486.5ZM1476.5 262.308C1476.5 265.069 1478.74 267.308 1481.5 267.308C1484.26 267.308 1486.5 265.069 1486.5 262.308H1476.5ZM1486.5 272.692C1486.5 269.931 1484.26 267.692 1481.5 267.692C1478.74 267.692 1476.5 269.931 1476.5 272.692H1486.5ZM1476.5 289.308C1476.5 292.069 1478.74 294.308 1481.5 294.308C1484.26 294.308 1486.5 292.069 1486.5 289.308H1476.5ZM1486.5 299.692C1486.5 296.931 1484.26 294.692 1481.5 294.692C1478.74 294.692 1476.5 296.931 1476.5 299.692H1486.5ZM1476.5 316.308C1476.5 319.069 1478.74 321.308 1481.5 321.308C1484.26 321.308 1486.5 319.069 1486.5 316.308H1476.5ZM1486.5 326.692C1486.5 323.931 1484.26 321.692 1481.5 321.692C1478.74 321.692 1476.5 323.931 1476.5 326.692H1486.5ZM239.963 331V322.829H229.963V331H239.963ZM239.963 312.615V296.274H229.963V312.615H239.963ZM239.963 286.06V269.718H229.963V286.06H239.963ZM239.963 259.504V243.162H229.963V259.504H239.963ZM239.963 232.949V216.607H229.963V232.949H239.963ZM239.963 206.393V190.051H229.963V206.393H239.963ZM239.963 179.838V163.496H229.963V179.838H239.963ZM239.963 153.282V136.94H229.963V153.282H239.963ZM239.963 126.727V110.385H229.963V126.727H239.963ZM239.963 100.171V92H229.963V100.171H239.963ZM239.963 92C239.963 88.803 240.748 85.8042 242.133 83.1718L233.282 78.5171C231.161 82.5504 229.963 87.1426 229.963 92H239.963ZM250.135 75.17C252.767 73.7856 255.766 73 258.963 73V63C254.106 63 249.513 64.1982 245.48 66.3194L250.135 75.17ZM258.963 73H267.213V63H258.963V73ZM277.526 73H294.027V63H277.526V73ZM304.34 73H320.841V63H304.34V73ZM331.155 73H347.655V63H331.155V73ZM357.969 73H374.47V63H357.969V73ZM384.783 73H401.284V63H384.783V73ZM411.597 73H428.098V63H411.597V73ZM438.411 73H454.912V63H438.411V73ZM465.225 73H481.726V63H465.225V73ZM492.039 73H508.54V63H492.039V73ZM518.853 73H535.354V63H518.853V73ZM545.667 73H562.168V63H545.667V73ZM572.481 73H580.731V63H572.481V73ZM1135.73 73H1143.98V63H1135.73V73ZM1154.29 73H1170.8V63H1154.29V73ZM1181.11 73H1197.61V63H1181.11V73ZM1207.92 73H1224.42V63H1207.92V73ZM1234.74 73H1251.24V63H1234.74V73ZM1261.55 73H1278.05V63H1261.55V73ZM1288.37 73H1304.87V63H1288.37V73ZM1315.18 73H1331.68V63H1315.18V73ZM1341.99 73H1358.49V63H1341.99V73ZM1368.81 73H1385.31V63H1368.81V73ZM1395.62 73H1412.12V63H1395.62V73ZM1422.44 73H1438.94V63H1422.44V73ZM1449.25 73H1457.5V63H1449.25V73ZM1457.5 73C1460.7 73 1463.7 73.7856 1466.33 75.17L1470.98 66.3194C1466.95 64.1982 1462.36 63 1457.5 63V73ZM1474.33 83.1718C1475.71 85.8042 1476.5 88.803 1476.5 92H1486.5C1486.5 87.1426 1485.3 82.5504 1483.18 78.5171L1474.33 83.1718ZM1476.5 92V100.308H1486.5V92H1476.5ZM1476.5 110.692V127.308H1486.5V110.692H1476.5ZM1476.5 137.692V154.308H1486.5V137.692H1476.5ZM1476.5 164.692V181.308H1486.5V164.692H1476.5ZM1476.5 191.692V208.308H1486.5V191.692H1476.5ZM1476.5 218.692V235.308H1486.5V218.692H1476.5ZM1476.5 245.692V262.308H1486.5V245.692H1476.5ZM1476.5 272.692V289.308H1486.5V272.692H1476.5ZM1476.5 299.692V316.308H1486.5V299.692H1476.5ZM1476.5 326.692V335H1486.5V326.692H1476.5Z" fill="#B3B3B3"/>
    <path d="M659.254 64.017L651.555 65.3807C651.233 64.3958 650.722 63.4583 650.021 62.5682C649.339 61.678 648.411 60.9489 647.237 60.3807C646.063 59.8125 644.595 59.5284 642.834 59.5284C640.428 59.5284 638.421 60.0682 636.811 61.1477C635.201 62.2083 634.396 63.5814 634.396 65.267C634.396 66.7254 634.936 67.8996 636.015 68.7898C637.095 69.6799 638.837 70.4091 641.243 70.9773L648.174 72.5682C652.19 73.4962 655.182 74.9261 657.152 76.858C659.121 78.7898 660.106 81.2992 660.106 84.3864C660.106 87 659.349 89.3295 657.834 91.375C656.337 93.4015 654.245 94.9924 651.555 96.1477C648.885 97.303 645.788 97.8807 642.265 97.8807C637.379 97.8807 633.392 96.839 630.305 94.7557C627.218 92.6534 625.324 89.6705 624.623 85.8068L632.834 84.5568C633.345 86.697 634.396 88.3163 635.987 89.4148C637.578 90.4943 639.652 91.0341 642.209 91.0341C644.993 91.0341 647.218 90.4564 648.885 89.3011C650.551 88.1269 651.385 86.697 651.385 85.0114C651.385 83.6477 650.873 82.5019 649.851 81.5739C648.847 80.6458 647.303 79.9451 645.22 79.4716L637.834 77.8523C633.762 76.9242 630.75 75.447 628.799 73.4205C626.868 71.3939 625.902 68.8277 625.902 65.7216C625.902 63.1458 626.621 60.892 628.061 58.9602C629.5 57.0284 631.489 55.5227 634.027 54.4432C636.565 53.3447 639.472 52.7955 642.748 52.7955C647.464 52.7955 651.176 53.8182 653.885 55.8636C656.593 57.8902 658.383 60.608 659.254 64.017ZM688.935 53.3636V60.1818H665.1V53.3636H688.935ZM671.492 42.9091H679.986V84.1875C679.986 85.8352 680.232 87.0758 680.725 87.9091C681.217 88.7235 681.852 89.2822 682.628 89.5852C683.424 89.8693 684.285 90.0114 685.213 90.0114C685.895 90.0114 686.492 89.964 687.003 89.8693C687.515 89.7746 687.912 89.6989 688.196 89.642L689.731 96.6591C689.238 96.8485 688.537 97.0379 687.628 97.2273C686.719 97.4356 685.583 97.5492 684.219 97.5682C681.984 97.6061 679.901 97.2083 677.969 96.375C676.037 95.5417 674.475 94.2538 673.282 92.5114C672.088 90.7689 671.492 88.5814 671.492 85.9489V42.9091ZM710.15 97.9659C707.385 97.9659 704.885 97.4545 702.65 96.4318C700.415 95.3902 698.645 93.8845 697.338 91.9148C696.05 89.9451 695.406 87.5303 695.406 84.6705C695.406 82.2083 695.879 80.1818 696.826 78.5909C697.773 77 699.052 75.7405 700.662 74.8125C702.271 73.8845 704.071 73.1837 706.059 72.7102C708.048 72.2367 710.074 71.8769 712.139 71.6307C714.752 71.3277 716.874 71.0814 718.502 70.892C720.131 70.6837 721.315 70.3523 722.054 69.8977C722.792 69.4432 723.162 68.7045 723.162 67.6818V67.483C723.162 65.0019 722.461 63.0795 721.059 61.7159C719.677 60.3523 717.612 59.6705 714.866 59.6705C712.006 59.6705 709.752 60.3049 708.105 61.5739C706.476 62.8239 705.349 64.2159 704.724 65.75L696.741 63.9318C697.688 61.2803 699.071 59.1402 700.889 57.5114C702.726 55.8636 704.838 54.6705 707.224 53.9318C709.61 53.1742 712.12 52.7955 714.752 52.7955C716.495 52.7955 718.342 53.0038 720.292 53.4205C722.262 53.8182 724.099 54.5568 725.804 55.6364C727.527 56.7159 728.938 58.2595 730.037 60.267C731.135 62.2557 731.684 64.8409 731.684 68.0227V97H723.389V91.0341H723.048C722.499 92.1326 721.675 93.2121 720.576 94.2727C719.478 95.3333 718.067 96.214 716.343 96.9148C714.62 97.6155 712.556 97.9659 710.15 97.9659ZM711.997 91.1477C714.345 91.1477 716.353 90.6837 718.02 89.7557C719.705 88.8277 720.984 87.6155 721.855 86.1193C722.745 84.6042 723.19 82.9848 723.19 81.2614V75.6364C722.887 75.9394 722.3 76.2235 721.429 76.4886C720.576 76.7348 719.601 76.9527 718.502 77.142C717.404 77.3125 716.334 77.4735 715.292 77.625C714.251 77.7576 713.379 77.8712 712.679 77.9659C711.031 78.1742 709.525 78.5246 708.162 79.017C706.817 79.5095 705.737 80.2197 704.923 81.1477C704.127 82.0568 703.73 83.2689 703.73 84.7841C703.73 86.8864 704.506 88.4773 706.059 89.5568C707.612 90.6174 709.592 91.1477 711.997 91.1477ZM762.488 53.3636V60.1818H738.652V53.3636H762.488ZM745.044 42.9091H753.539V84.1875C753.539 85.8352 753.785 87.0758 754.277 87.9091C754.77 88.7235 755.404 89.2822 756.181 89.5852C756.976 89.8693 757.838 90.0114 758.766 90.0114C759.448 90.0114 760.044 89.964 760.556 89.8693C761.067 89.7746 761.465 89.6989 761.749 89.642L763.283 96.6591C762.791 96.8485 762.09 97.0379 761.181 97.2273C760.272 97.4356 759.135 97.5492 757.772 97.5682C755.537 97.6061 753.453 97.2083 751.522 96.375C749.59 95.5417 748.027 94.2538 746.834 92.5114C745.641 90.7689 745.044 88.5814 745.044 85.9489V42.9091ZM789.342 97.8807C785.043 97.8807 781.34 96.9621 778.234 95.125C775.147 93.2689 772.76 90.6648 771.075 87.3125C769.408 83.9413 768.575 79.9924 768.575 75.4659C768.575 70.9962 769.408 67.0568 771.075 63.6477C772.76 60.2386 775.109 57.5777 778.12 55.6648C781.151 53.7519 784.692 52.7955 788.745 52.7955C791.207 52.7955 793.594 53.2027 795.904 54.017C798.215 54.8314 800.289 56.1098 802.126 57.8523C803.963 59.5947 805.412 61.858 806.473 64.642C807.533 67.4072 808.064 70.7689 808.064 74.7273V77.7386H773.376V71.375H799.74C799.74 69.1402 799.285 67.161 798.376 65.4375C797.467 63.6951 796.189 62.322 794.541 61.3182C792.912 60.3144 790.999 59.8125 788.802 59.8125C786.416 59.8125 784.332 60.3996 782.552 61.5739C780.791 62.7292 779.427 64.2443 778.461 66.1193C777.514 67.9754 777.041 69.9924 777.041 72.1705V77.142C777.041 80.0587 777.552 82.5398 778.575 84.5852C779.617 86.6307 781.065 88.1932 782.921 89.2727C784.778 90.3333 786.946 90.8636 789.427 90.8636C791.037 90.8636 792.505 90.6364 793.831 90.1818C795.156 89.7083 796.302 89.0076 797.268 88.0795C798.234 87.1515 798.973 86.0057 799.484 84.642L807.524 86.0909C806.88 88.4583 805.724 90.5322 804.058 92.3125C802.41 94.0739 800.336 95.447 797.836 96.4318C795.355 97.3977 792.524 97.8807 789.342 97.8807ZM864.542 78.9034V53.3636H873.065V97H864.713V89.4432H864.258C863.254 91.7727 861.644 93.714 859.429 95.267C857.232 96.8011 854.495 97.5682 851.218 97.5682C848.415 97.5682 845.934 96.9527 843.775 95.7216C841.635 94.4716 839.949 92.625 838.718 90.1818C837.506 87.7386 836.9 84.7178 836.9 81.1193V53.3636H845.394V80.0966C845.394 83.0701 846.218 85.4375 847.866 87.1989C849.514 88.9602 851.654 89.8409 854.286 89.8409C855.877 89.8409 857.459 89.4432 859.031 88.6477C860.622 87.8523 861.938 86.6496 862.98 85.0398C864.04 83.4299 864.561 81.3845 864.542 78.9034ZM883.598 113.364V53.3636H891.894V60.4375H892.604C893.096 59.5284 893.807 58.4773 894.735 57.2841C895.663 56.0909 896.951 55.0492 898.598 54.1591C900.246 53.25 902.424 52.7955 905.132 52.7955C908.655 52.7955 911.799 53.6856 914.564 55.4659C917.329 57.2462 919.498 59.8125 921.07 63.1648C922.661 66.517 923.456 70.5511 923.456 75.267C923.456 79.983 922.67 84.0265 921.098 87.3977C919.526 90.75 917.367 93.3352 914.621 95.1534C911.875 96.9527 908.74 97.8523 905.218 97.8523C902.566 97.8523 900.397 97.4072 898.712 96.517C897.045 95.6269 895.738 94.5852 894.791 93.392C893.844 92.1989 893.115 91.1383 892.604 90.2102H892.093V113.364H883.598ZM891.922 75.1818C891.922 78.25 892.367 80.9394 893.257 83.25C894.147 85.5606 895.435 87.3693 897.121 88.6761C898.807 89.964 900.871 90.608 903.314 90.608C905.852 90.608 907.973 89.9356 909.678 88.5909C911.382 87.2273 912.67 85.3807 913.541 83.0511C914.432 80.7216 914.877 78.0985 914.877 75.1818C914.877 72.303 914.441 69.7178 913.57 67.4261C912.718 65.1345 911.43 63.3258 909.706 62C908.002 60.6742 905.871 60.0114 903.314 60.0114C900.852 60.0114 898.769 60.6458 897.064 61.9148C895.379 63.1837 894.1 64.9545 893.229 67.2273C892.358 69.5 891.922 72.1515 891.922 75.1818ZM948.428 97.8523C944.906 97.8523 941.762 96.9527 938.997 95.1534C936.25 93.3352 934.091 90.75 932.519 87.3977C930.966 84.0265 930.19 79.983 930.19 75.267C930.19 70.5511 930.976 66.517 932.548 63.1648C934.139 59.8125 936.317 57.2462 939.082 55.4659C941.847 53.6856 944.981 52.7955 948.485 52.7955C951.194 52.7955 953.372 53.25 955.019 54.1591C956.686 55.0492 957.974 56.0909 958.883 57.2841C959.811 58.4773 960.531 59.5284 961.042 60.4375H961.553V38.8182H970.048V97H961.752V90.2102H961.042C960.531 91.1383 959.792 92.1989 958.826 93.392C957.879 94.5852 956.572 95.6269 954.906 96.517C953.239 97.4072 951.08 97.8523 948.428 97.8523ZM950.303 90.608C952.747 90.608 954.811 89.964 956.497 88.6761C958.201 87.3693 959.489 85.5606 960.36 83.25C961.25 80.9394 961.695 78.25 961.695 75.1818C961.695 72.1515 961.26 69.5 960.389 67.2273C959.517 64.9545 958.239 63.1837 956.553 61.9148C954.868 60.6458 952.785 60.0114 950.303 60.0114C947.747 60.0114 945.616 60.6742 943.911 62C942.207 63.3258 940.919 65.1345 940.048 67.4261C939.195 69.7178 938.769 72.303 938.769 75.1818C938.769 78.0985 939.205 80.7216 940.076 83.0511C940.947 85.3807 942.235 87.2273 943.94 88.5909C945.663 89.9356 947.785 90.608 950.303 90.608ZM993.99 97.9659C991.225 97.9659 988.725 97.4545 986.49 96.4318C984.255 95.3902 982.485 93.8845 981.178 91.9148C979.89 89.9451 979.246 87.5303 979.246 84.6705C979.246 82.2083 979.719 80.1818 980.666 78.5909C981.613 77 982.892 75.7405 984.502 74.8125C986.111 73.8845 987.911 73.1837 989.899 72.7102C991.888 72.2367 993.914 71.8769 995.979 71.6307C998.592 71.3277 1000.71 71.0814 1002.34 70.892C1003.97 70.6837 1005.15 70.3523 1005.89 69.8977C1006.63 69.4432 1007 68.7045 1007 67.6818V67.483C1007 65.0019 1006.3 63.0795 1004.9 61.7159C1003.52 60.3523 1001.45 59.6705 998.706 59.6705C995.846 59.6705 993.592 60.3049 991.945 61.5739C990.316 62.8239 989.189 64.2159 988.564 65.75L980.581 63.9318C981.528 61.2803 982.911 59.1402 984.729 57.5114C986.566 55.8636 988.678 54.6705 991.064 53.9318C993.45 53.1742 995.96 52.7955 998.592 52.7955C1000.33 52.7955 1002.18 53.0038 1004.13 53.4205C1006.1 53.8182 1007.94 54.5568 1009.64 55.6364C1011.37 56.7159 1012.78 58.2595 1013.88 60.267C1014.98 62.2557 1015.52 64.8409 1015.52 68.0227V97H1007.23V91.0341H1006.89C1006.34 92.1326 1005.51 93.2121 1004.42 94.2727C1003.32 95.3333 1001.91 96.214 1000.18 96.9148C998.46 97.6155 996.396 97.9659 993.99 97.9659ZM995.837 91.1477C998.185 91.1477 1000.19 90.6837 1001.86 89.7557C1003.55 88.8277 1004.82 87.6155 1005.69 86.1193C1006.58 84.6042 1007.03 82.9848 1007.03 81.2614V75.6364C1006.73 75.9394 1006.14 76.2235 1005.27 76.4886C1004.42 76.7348 1003.44 76.9527 1002.34 77.142C1001.24 77.3125 1000.17 77.4735 999.132 77.625C998.091 77.7576 997.219 77.8712 996.519 77.9659C994.871 78.1742 993.365 78.5246 992.002 79.017C990.657 79.5095 989.577 80.2197 988.763 81.1477C987.967 82.0568 987.57 83.2689 987.57 84.7841C987.57 86.8864 988.346 88.4773 989.899 89.5568C991.452 90.6174 993.431 91.1477 995.837 91.1477ZM1046.33 53.3636V60.1818H1022.49V53.3636H1046.33ZM1028.88 42.9091H1037.38V84.1875C1037.38 85.8352 1037.62 87.0758 1038.12 87.9091C1038.61 88.7235 1039.24 89.2822 1040.02 89.5852C1040.82 89.8693 1041.68 90.0114 1042.61 90.0114C1043.29 90.0114 1043.88 89.964 1044.4 89.8693C1044.91 89.7746 1045.3 89.6989 1045.59 89.642L1047.12 96.6591C1046.63 96.8485 1045.93 97.0379 1045.02 97.2273C1044.11 97.4356 1042.98 97.5492 1041.61 97.5682C1039.38 97.6061 1037.29 97.2083 1035.36 96.375C1033.43 95.5417 1031.87 94.2538 1030.67 92.5114C1029.48 90.7689 1028.88 88.5814 1028.88 85.9489V42.9091ZM1073.18 97.8807C1068.88 97.8807 1065.18 96.9621 1062.07 95.125C1058.99 93.2689 1056.6 90.6648 1054.91 87.3125C1053.25 83.9413 1052.41 79.9924 1052.41 75.4659C1052.41 70.9962 1053.25 67.0568 1054.91 63.6477C1056.6 60.2386 1058.95 57.5777 1061.96 55.6648C1064.99 53.7519 1068.53 52.7955 1072.59 52.7955C1075.05 52.7955 1077.43 53.2027 1079.74 54.017C1082.06 54.8314 1084.13 56.1098 1085.97 57.8523C1087.8 59.5947 1089.25 61.858 1090.31 64.642C1091.37 67.4072 1091.9 70.7689 1091.9 74.7273V77.7386H1057.22V71.375H1083.58C1083.58 69.1402 1083.13 67.161 1082.22 65.4375C1081.31 63.6951 1080.03 62.322 1078.38 61.3182C1076.75 60.3144 1074.84 59.8125 1072.64 59.8125C1070.26 59.8125 1068.17 60.3996 1066.39 61.5739C1064.63 62.7292 1063.27 64.2443 1062.3 66.1193C1061.35 67.9754 1060.88 69.9924 1060.88 72.1705V77.142C1060.88 80.0587 1061.39 82.5398 1062.41 84.5852C1063.46 86.6307 1064.91 88.1932 1066.76 89.2727C1068.62 90.3333 1070.79 90.8636 1073.27 90.8636C1074.88 90.8636 1076.34 90.6364 1077.67 90.1818C1079 89.7083 1080.14 89.0076 1081.11 88.0795C1082.07 87.1515 1082.81 86.0057 1083.32 84.642L1091.36 86.0909C1090.72 88.4583 1089.56 90.5322 1087.9 92.3125C1086.25 94.0739 1084.18 95.447 1081.68 96.4318C1079.2 97.3977 1076.36 97.8807 1073.18 97.8807Z" fill="black"/>
</svg>
