<svg id="_레이어_1-2" xmlns="http://www.w3.org/2000/svg" xmlns:xlink="http://www.w3.org/1999/xlink"
    width="150" height="150" viewBox="0 0 150 150">
    <defs>
        <clipPath id="clip-path">
            <path id="패스_260" data-name="패스 260"
                d="M0,75C0,18.75,18.75,0,75,0s75,18.75,75,75-18.75,75-75,75S0,131.25,0,75"
                fill="none" />
        </clipPath>
    </defs>
    <g id="그룹_21285" data-name="그룹 21285">
        <path id="패스_246" data-name="패스 246"
            d="M0,75C0,18.75,18.75,0,75,0s75,18.75,75,75-18.75,75-75,75S0,131.25,0,75"
            fill="#ff8300" />
        <g id="그룹_21284" data-name="그룹 21284" clip-path="url(#clip-path)">
            <g id="그룹_21283" data-name="그룹 21283" transform="translate(5.568 7.919)">
                <g id="그룹_21278" data-name="그룹 21278" transform="translate(0 47.305)">
                    <path id="패스_247" data-name="패스 247"
                        d="M26.665,134.464a25.245,25.245,0,0,1-3.055-3.551,90.589,90.589,0,0,1-17.692-58.2C6.21,66.966,7.149,61,10.5,56.312c2.1-2.947,5.775-5.376,9.208-4.21a9.846,9.846,0,0,1,3.9,2.893,47.151,47.151,0,0,1,10.913,19.4c.14.507.378.993.551,1.5"
                        transform="translate(-5.107 -51.108)" fill="#fff" />
                    <path id="패스_248" data-name="패스 248"
                        d="M26.717,135.217a.67.67,0,0,1-.475-.194,27.163,27.163,0,0,1-3.141-3.638A91.9,91.9,0,0,1,5.268,72.727c.259-5.095,1.025-11.615,4.706-16.764,2.245-3.152,6.218-5.753,10.006-4.469a10.587,10.587,0,0,1,4.188,3.076A47.853,47.853,0,0,1,35.244,74.26c.076.27.184.529.291.82.086.216.173.432.248.648a.707.707,0,1,1-1.339.453c-.065-.194-.14-.389-.216-.572-.119-.3-.248-.626-.345-.961A46.57,46.57,0,0,0,23.133,55.543a9.6,9.6,0,0,0-3.616-2.709c-3.109-1.047-6.466,1.231-8.409,3.962C7.643,61.652,6.909,67.9,6.661,72.814a90.466,90.466,0,0,0,17.552,57.75,26.183,26.183,0,0,0,2.968,3.454.707.707,0,0,1-.486,1.22Z"
                        transform="translate(-5.159 -51.159)" />
                </g>
                <path id="패스_249" data-name="패스 249"
                    d="M29.4,77.662,44.674,73.69,148.83,83.718l16.494,5.9,12.219,17.5,16.688,56.563-1.306,3.832H156.7L21.66,108.61Z"
                    transform="translate(-3.848 -2.064)" fill="#fff" />
                <g id="그룹_21279" data-name="그룹 21279" transform="translate(28.639)">
                    <path id="패스_250" data-name="패스 250"
                        d="M156.335,94.843c-1.932-16.343-2-17.509-6.574-33.312s-11.949-31.1-23.467-42.854c-4.437-4.534-7.783-6.563-10.935-7.945-6.606-2.893-12.813-2.8-18.059-2.72A62.659,62.659,0,0,0,83.462,9.761C65.683,14.294,54.187,28.619,52.1,31.3c-7.621,9.8-10.622,20.24-16.634,41.127-1.414,4.922-2.44,9.057-3.12,11.917"
                        transform="translate(-31.637 -7.284)" fill="#fff" />
                    <path id="패스_251" data-name="패스 251"
                        d="M156.388,95.6a.7.7,0,0,1-.7-.626l-.151-1.317c-1.77-15-1.954-16.57-6.4-31.887C144.007,44.074,136.17,29.75,125.839,19.2c-4.674-4.782-8.042-6.617-10.719-7.783-6.466-2.828-12.478-2.742-17.757-2.655a61.828,61.828,0,0,0-13.677,1.727C67,14.745,55.762,27.861,52.707,31.779c-7.535,9.693-10.535,20.11-16.516,40.889-1.133,3.951-2.18,7.945-3.12,11.9a.7.7,0,0,1-1.36-.324c.939-3.972,1.986-7.988,3.13-11.949C40.876,51.339,43.9,40.825,51.6,30.926c3.12-4,14.616-17.422,31.736-21.794a63.307,63.307,0,0,1,14-1.77c5.171-.076,11.6-.184,18.351,2.774,2.8,1.22,6.315,3.141,11.151,8.1,10.492,10.719,18.448,25.237,23.64,43.156,4.469,15.425,4.652,17,6.444,32.114l.151,1.317a.7.7,0,0,1-.615.777h-.086Z"
                        transform="translate(-31.69 -7.336)" />
                </g>
                <g id="그룹_21280" data-name="그룹 21280" transform="translate(85.488 58.302)">
                    <path id="패스_252" data-name="패스 252"
                        d="M89.324,63.842a3.479,3.479,0,0,1,.065,3.389,2.551,2.551,0,0,1-4.426-.194,4.162,4.162,0,0,1,.076-3.292C86.161,60.668,87.953,61.208,89.324,63.842Z"
                        transform="translate(-84.331 -61.323)" />
                    <path id="패스_253" data-name="패스 253"
                        d="M87.243,68.766h-.119A2.921,2.921,0,0,1,84.7,67.212a4.413,4.413,0,0,1,.065-3.551c.669-1.835,1.522-2.267,2.116-2.31.939-.065,1.921.777,2.753,2.364a3.781,3.781,0,0,1,.043,3.713,2.911,2.911,0,0,1-2.429,1.339Zm-.27-6.779h-.054c-.583.043-1.133.712-1.565,1.889a3.791,3.791,0,0,0-.086,3.044,2.236,2.236,0,0,0,3.875.173,3.172,3.172,0,0,0-.076-3.076c-.68-1.3-1.436-2.029-2.083-2.029Z"
                        transform="translate(-84.354 -61.347)" />
                </g>
                <g id="그룹_21281" data-name="그룹 21281" transform="translate(63.543 58.302)">
                    <path id="패스_254" data-name="패스 254"
                        d="M68.984,63.842a3.479,3.479,0,0,1,.065,3.389,2.551,2.551,0,0,1-4.426-.194,4.162,4.162,0,0,1,.076-3.292C65.821,60.668,67.613,61.208,68.984,63.842Z"
                        transform="translate(-64.001 -61.323)" />
                    <path id="패스_255" data-name="패스 255"
                        d="M66.913,68.766h-.119a2.921,2.921,0,0,1-2.429-1.554,4.413,4.413,0,0,1,.065-3.551c.669-1.835,1.522-2.267,2.116-2.31.939-.065,1.921.777,2.753,2.364a3.781,3.781,0,0,1,.043,3.713,2.925,2.925,0,0,1-2.429,1.339Zm-.27-6.779h-.054c-.583.043-1.133.712-1.565,1.889a3.791,3.791,0,0,0-.086,3.044,2.236,2.236,0,0,0,3.875.173,3.172,3.172,0,0,0-.076-3.076c-.68-1.3-1.436-2.029-2.083-2.029Z"
                        transform="translate(-64.024 -61.347)" />
                </g>
                <path id="패스_256" data-name="패스 256"
                    d="M89.025,76.749a39.038,39.038,0,0,0-7.275-.734q-14.233-.5-28.465.205c-5.4.27-10.9.691-15.868,2.591s-9.38,5.548-10.557,10.255a6.859,6.859,0,0,0,.389,4.879c1.166,2.245,3.81,3.551,6.4,4.447,8.074,2.785,16.947,2.936,25.6,3.055,8.69.119,17.465.227,25.971-1.382,5.7-1.079,15.792-4.285,17.12-10.309,1.285-5.861-7.988-11.8-13.32-13.007Z"
                    transform="translate(-3.456 -1.896)" fill="#f80" />
                <path id="패스_257" data-name="패스 257"
                    d="M103.645,30.908a24.236,24.236,0,0,1-11.582-3.1,13.647,13.647,0,0,1-5.883-5.473,18.875,18.875,0,0,1-11.9.637,12.22,12.22,0,0,1-7.351-5.138c-1.738-2.925-1.446-6.768.691-8.938a.824.824,0,0,1,1.166,1.166,5.855,5.855,0,0,0-.453,6.93,10.522,10.522,0,0,0,6.38,4.393A17.256,17.256,0,0,0,85.554,20.8a7.315,7.315,0,0,1,.691-5.462A5.369,5.369,0,0,1,89.656,12.7a3.22,3.22,0,0,1,3.767,1.6,3.147,3.147,0,0,1-.13,2.407,8.149,8.149,0,0,1-2.645,3.12,17.93,17.93,0,0,1-2.968,1.846,12.246,12.246,0,0,0,5.16,4.7,22.278,22.278,0,0,0,11.852,2.861,17.03,17.03,0,0,0,10.989-4.7.824.824,0,0,1,1.166,1.166,18.682,18.682,0,0,1-12.057,5.171c-.389.022-.777.032-1.155.032ZM90.562,14.252a2.835,2.835,0,0,0-.529.054,3.68,3.68,0,0,0-2.342,1.857,5.642,5.642,0,0,0-.594,3.962,16.159,16.159,0,0,0,2.558-1.608,6.307,6.307,0,0,0,2.127-2.45,1.649,1.649,0,0,0,.119-1.155,1.39,1.39,0,0,0-1.349-.658Z"
                    transform="translate(-0.341 -7.231)" fill="#f80" />
                <g id="그룹_21282" data-name="그룹 21282" transform="translate(21.35 97.584)">
                    <path id="패스_258" data-name="패스 258"
                        d="M29.325,98.4a193.925,193.925,0,0,0-3.649,31.671c-.421,12.9.507,26.069,5.117,38.126s13.256,22.981,25.076,28.2c7.286,3.217,15.35,4.134,23.273,4.836,20.272,1.8,40.911,2.386,60.751-2.1S178.9,184.615,191.2,168.4a15.355,15.355,0,0,0,2.45-5.138"
                        transform="translate(-24.886 -97.685)" fill="#fff" />
                    <path id="패스_259" data-name="패스 259"
                        d="M105.856,203.332c-9.348,0-18.372-.615-26.727-1.36-8.182-.723-16.127-1.641-23.5-4.9-11.108-4.9-20.38-15.317-25.443-28.584-4.026-10.546-5.667-22.755-5.16-38.407A195.245,195.245,0,0,1,28.686,98.3a.7.7,0,1,1,1.382.281,193.8,193.8,0,0,0-3.638,31.552c-.5,15.458,1.112,27.494,5.073,37.856,4.933,12.921,13.936,23.046,24.7,27.8,7.168,3.163,14.994,4.07,23.057,4.782,18.232,1.619,39.67,2.634,60.535-2.083,21.632-4.89,39.713-15.706,50.9-30.462a14.546,14.546,0,0,0,2.332-4.9.7.7,0,0,1,1.349.378,15.641,15.641,0,0,1-2.569,5.376c-11.388,15.015-29.75,26.015-51.706,30.98a155.455,155.455,0,0,1-34.24,3.465Z"
                        transform="translate(-24.937 -97.737)" />
                </g>
            </g>
        </g>
    </g>
</svg>
