<svg xmlns="http://www.w3.org/2000/svg" xmlns:xlink="http://www.w3.org/1999/xlink" width="211.002" height="279" xmlns:v="https://vecta.io/nano"><defs><filter id="A" x="0" y="52.343" width="67" height="66.343" filterUnits="userSpaceOnUse"><feOffset/><feGaussianBlur stdDeviation="5" result="A"/><feFlood flood-color="#aaa" flood-opacity=".102"/><feComposite operator="in" in2="A"/><feComposite in="SourceGraphic"/></filter><filter id="B" x="43.001" y="0" width="84" height="82.343" filterUnits="userSpaceOnUse"><feOffset/><feGaussianBlur stdDeviation="5" result="A"/><feFlood flood-color="#aaa" flood-opacity=".102"/><feComposite operator="in" in2="A"/><feComposite in="SourceGraphic"/></filter><filter id="C" x="103.002" y="33" width="108" height="85.344" filterUnits="userSpaceOnUse"><feOffset/><feGaussianBlur stdDeviation="5" result="A"/><feFlood flood-color="#aaa" flood-opacity=".102"/><feComposite operator="in" in2="A"/><feComposite in="SourceGraphic"/></filter><path id="D" d="M41.481 43.594a2.39 2.39 0 0 1 1.018 2.1 1.75 1.75 0 0 1-2.813 1.154 2.87 2.87 0 0 1-.9-2.073c-.19-2.242 1.084-2.42 2.7-1.175z"/></defs><g transform="translate(-81.998 -79)"><g transform="translate(82 79)" filter="url(#A)"><path d="M14.582,36.344A14.583,14.583,0,0,1,8.388,8.56L8.3,1.41A1.368,1.368,0,0,1,10.7.476l5.8,6.707H22.42a14.58,14.58,0,1,1,0,29.161Z" transform="matrix(-1 0 0 -1 52 103.69)" fill="#fff"/></g><g transform="translate(82 79)" filter="url(#B)"><path d="M21,52.344a21,21,0,0,1-8.76-40.091L12.108,2.03a2,2,0,0,1,3.5-1.345l8.472,9.659H33a21,21,0,1,1,0,42Z" transform="matrix(-1 0 0 -1 112 67.34)" fill="#fff"/></g><rect width="146" height="34" rx="8" fill="#f9f9f9" x="82" y="190"/><g fill="#efefef"><path d="M90 207.166C90 198.792 92.792 196 101.166 196s11.166 2.792 11.166 11.166-2.791 11.166-11.166 11.166S90 215.541 90 207.166"/><rect width="80.275" height="3" rx="1.5" x="118" y="200.018"/><rect width="90.275" height="3" rx="1.5" x="118" y="206.018"/><rect width="34" height="3" rx="1.5" x="118" y="212.018"/><ellipse cx="186" cy="343" rx="55" ry="6"/></g><g transform="matrix(1 .017 -.017 1 124.214 214.152)"><path d="M37.554 126.756c-.885 2.536-6.263 2.263-14.633 1.841a3.87 3.87 0 0 1-2.7-1.022 3.57 3.57 0 0 1-.72-2.826c.226-1.591.98-3.06 2.143-4.17a9.22 9.22 0 0 1 7.455-2.412c5.1.658 9.387 5.9 8.448 8.588z" fill="#ff8300"/><path d="M96.298 57.763c2.419-.418 12.058-1.3 20.307 5.118 10.634 8.274 10.226 22.683 10.122 26.32a36.66 36.66 0 0 1-5.646 18.567c-5.084 7.914-11.867 11.306-15.739 13.176-4.9 2.366-10 3.554-20.374 4.828-8.915 1.1-15.764 1.316-18.937 1.485a129.3 129.3 0 0 1-21.269-.207c-8.582-.865-12.87-1.295-17.9-3.57-3.09-1.4-11.634-5.4-16.759-14.749-5.8-10.583-3.652-22.241-3.115-25.29.362-2.06 1.549-7.658 2.661-12.543l1.524-6.462" fill="#fff"/><path d="M55.781 128.081a109.56 109.56 0 0 1-11.059-.55c-8.623-.869-12.949-1.3-18.045-3.612-2.89-1.307-11.683-5.291-16.983-14.955-3.856-7.033-4.93-15.609-3.189-25.488l.021-.116c.371-2.106 1.566-7.74 2.665-12.564l1.528-6.466c.063-.261.326-.421.587-.358s.421.326.358.587l-1.524 6.454c-1.1 4.811-2.286 10.425-2.656 12.519l-.021.116c-1.7 9.66-.666 18.021 3.085 24.859 5.146 9.383 13.715 13.263 16.53 14.538 4.955 2.242 9.227 2.673 17.741 3.529 7.047.646 14.135.713 21.193.2l1.478-.07c3.639-.174 9.73-.463 17.425-1.411 10.484-1.291 15.4-2.453 20.219-4.782 3.643-1.762 10.426-5.043 15.543-13 3.457-5.5 5.381-11.825 5.571-18.319.416-14.711-5.175-22.22-9.939-25.923-8.656-6.735-18.795-5.217-19.923-5.022a.49.49 0 0 1-.562-.393.48.48 0 0 1 .4-.558c1.17-.2 11.7-1.775 20.689 5.213 4.938 3.843 10.738 11.6 10.309 26.713a37.36 37.36 0 0 1-5.721 18.811 36.84 36.84 0 0 1-15.934 13.354c-4.871 2.354-10.047 3.587-20.522 4.873-7.732.952-13.844 1.241-17.5 1.415l-1.474.07c-3.148.166-6.52.343-10.284.343z"/><path d="M82.132 127.268c-.683 2.387-5.659 2.424-13.408 2.478a3.56 3.56 0 0 1-2.544-.8c-.626-.701-.922-1.636-.815-2.569a6.6 6.6 0 0 1 1.758-3.963c1.749-1.835 4.223-2.796 6.752-2.623 4.745.335 8.977 4.952 8.253 7.476z" fill="#ff8300"/><path d="M9.854 64.433c-1.663 1.336-8.013 6.768-9.13 15.9-.294 2.387-1.4 11.447 5.014 17 4.9 4.245 11.091 3.752 12.845 3.529 2.1-.269 5.42-.691 6.979-3.293 1.572-2.627.36-5.837.12-6.5-.956-2.627-2.78-3.843-4.522-5.415-3.074-2.84-5.514-6.296-7.161-10.144" fill="#fff"/><path d="M16.267 101.488a16.42 16.42 0 0 1-10.843-3.79c-3.016-2.61-6.363-7.752-5.18-17.42 1.071-8.742 6.863-14.252 9.308-16.217.133-.125.324-.164.495-.102s.293.215.315.395-.059.358-.21.46c-2.35 1.891-7.927 7.19-8.953 15.58-.91 7.426.724 13.007 4.853 16.581 4.547 3.934 10.235 3.7 12.469 3.413 2.069-.265 5.188-.662 6.623-3.061.65-1.088 1.2-3.024.091-6.052a10.44 10.44 0 0 0-3.529-4.493l-.873-.765c-3.118-2.891-5.597-6.401-7.281-10.305-.109-.243.001-.528.244-.637s.528.001.637.244c1.629 3.782 4.028 7.184 7.045 9.987l.856.749c1.689 1.239 3.002 2.922 3.794 4.861 1.245 3.421.6 5.647-.157 6.917-1.675 2.8-5.217 3.256-7.331 3.525-.791.098-1.586.146-2.383.145z"/><rect width="31.648" height="46.339" rx="3" transform="matrix(.998027 -.062791 .062791 .998027 23.353 69.67)" fill="#ffe69f"/><path d="M29.356 116.199a3.8 3.8 0 0 1-3.781-3.554L23.081 73c-.13-2.089 1.456-3.888 3.545-4.021l24.984-1.572c2.089-.13 3.888 1.456 4.021 3.545l2.495 39.645a3.8 3.8 0 0 1-3.545 4.021l-24.985 1.569-.24.008zm22.5-47.832h-.182L26.69 69.939c-.748.047-1.446.39-1.942.953s-.746 1.299-.697 2.047l2.492 39.648c.1 1.557 1.443 2.738 3 2.639l24.984-1.572c.748-.047 1.446-.39 1.942-.953s.746-1.299.697-2.047L54.671 71.01a2.83 2.83 0 0 0-2.813-2.648zm2.7 45.772z"/><path d="M43.663 92.502c.141 2.222-1.254 3.206-3.037 3.318s-3.289-.687-3.43-2.912 1.332-5.039 2.925-5.142c1.647-.1 3.4 2.511 3.545 4.733z" fill="#f1d09f"/><circle cx="27.809" cy="74.199" r="1.055" fill="gray"/><g fill="#fff"><path d="M15.133 51.355l-3.6 11.9-1.789 2.09 1.334 3.321 3.442-3.4 74.748-4.092v-5.506l-61.65-7.041z"/><path d="M102.802 60.108c-1.372-11.22-1.414-12.018-4.662-22.87S89.663 15.887 81.502 7.815c-2.192-2.319-4.828-4.173-7.751-5.451C69.064.378 64.667.444 60.951.498c-3.304.045-6.593.447-9.81 1.2-12.607 3.119-20.754 12.949-22.233 14.79-5.405 6.727-7.533 13.9-11.8 28.235a173.64 173.64 0 0 0-2.213 8.183"/></g><path d="M102.786 60.593a.5.5 0 0 1-.5-.426l-.107-.894c-1.256-10.305-1.388-11.381-4.536-21.9-3.631-12.146-9.188-21.976-16.508-29.22-2.141-2.28-4.725-4.099-7.594-5.345C68.962.867 64.707.929 60.957.987a45.1 45.1 0 0 0-9.7 1.187C39.434 5.095 31.468 14.105 29.307 16.79c-5.343 6.652-7.47 13.809-11.708 28.074-.8 2.706-1.546 5.448-2.2 8.158a.5.5 0 0 1-.6.36c-.127-.027-.239-.104-.309-.213s-.093-.243-.063-.37c.662-2.726 1.41-5.486 2.217-8.2 4.271-14.38 6.415-21.6 11.878-28.4 2.208-2.751 10.362-11.96 22.5-14.96A46.37 46.37 0 0 1 60.94.019c3.665-.054 8.222-.124 13.006 1.907a23.97 23.97 0 0 1 7.906 5.556c7.441 7.36 13.074 17.326 16.756 29.625 3.169 10.591 3.3 11.679 4.566 22.05l.111.894c.014.129-.024.259-.106.36s-.201.165-.33.178h-.06z"/><use xlink:href="#D"/><path d="M40.768 47.429a1.99 1.99 0 0 1-1.225-.414 3.01 3.01 0 0 1-.985-2.226c-.116-1.336.294-1.849.654-2.048.571-.31 1.419-.07 2.4.683a2.6 2.6 0 0 1 1.1 2.3 2 2 0 0 1-1.208 1.568 1.96 1.96 0 0 1-.736.141zm-1-4.385c-.121-.004-.242.025-.348.083-.352.19-.5.769-.43 1.626-.004.726.292 1.421.819 1.92a1.53 1.53 0 0 0 2.462-1.009c.039-.751-.315-1.469-.935-1.895h0a2.89 2.89 0 0 0-1.572-.724z"/><use xlink:href="#D" x="14.122"/><path d="M54.891 47.429a1.99 1.99 0 0 1-1.225-.414 3.01 3.01 0 0 1-.985-2.226c-.116-1.336.294-1.849.654-2.048.567-.31 1.419-.07 2.4.683h0a2.6 2.6 0 0 1 1.1 2.3 2 2 0 0 1-1.208 1.568 1.96 1.96 0 0 1-.736.141zm-1-4.385c-.121-.004-.242.025-.348.083-.352.19-.5.769-.43 1.626-.004.726.292 1.421.819 1.92a1.53 1.53 0 0 0 2.462-1.009c.038-.75-.314-1.466-.931-1.895h0a2.89 2.89 0 0 0-1.569-.725z"/><path d="M66 15.62a16.64 16.64 0 0 1-7.947-2.126 9.37 9.37 0 0 1-4.042-3.761 13 13 0 0 1-8.166.439c-2.069-.491-3.873-1.753-5.043-3.529a5.18 5.18 0 0 1 .475-6.136.57.57 0 0 1 .972.235.57.57 0 0 1-.161.559 4.03 4.03 0 0 0-.31 4.762 7.24 7.24 0 0 0 4.377 3.016c2.459.671 5.07.53 7.443-.4a5.04 5.04 0 0 1 .475-3.753c.491-.906 1.341-1.564 2.342-1.812 1.015-.3 2.101.161 2.59 1.1.189.542.156 1.137-.091 1.655-.416.856-1.042 1.591-1.821 2.138-.637.489-1.32.914-2.04 1.27a8.37 8.37 0 0 0 3.545 3.223c2.478 1.397 5.296 2.077 8.138 1.965a11.7 11.7 0 0 0 7.542-3.223.57.57 0 0 1 .765.035.57.57 0 0 1 .035.765c-2.239 2.145-5.18 3.406-8.278 3.55l-.8.021zM57.023 4.185a1.48 1.48 0 0 0-.36.041c-.692.179-1.276.642-1.609 1.274-.464.825-.61 1.792-.41 2.718a11.4 11.4 0 0 0 1.758-1.1 4.35 4.35 0 0 0 1.465-1.692 1.13 1.13 0 0 0 .083-.794.95.95 0 0 0-.923-.451z" fill="#f80"/><ellipse cx="65.726" cy="50.081" rx="4.605" ry="2.358" fill="#ffdfe4" opacity=".3"/><path d="M53.479 50.747a26.84 26.84 0 0 0-5-.5q-9.772-.341-19.549.145c-3.704.022-7.382.624-10.9 1.784-3.415 1.308-6.44 3.812-7.252 7.04-.325 1.112-.231 2.305.265 3.353.8 1.54 2.62 2.438 4.4 3.05 5.546 1.912 11.643 2.016 17.591 2.1 5.968.079 12 .153 17.835-.952 3.92-.741 10.848-2.943 11.759-7.082.892-4.029-5.482-8.11-9.149-8.938z" fill="#f80"/><path d="M95.489 64.432C85.8 68.846 72.698 74.886 64.457 80.777a32.42 32.42 0 0 0-7.215 6.454c-1.849 2.474-2.838 5.448-2 8.266a5.51 5.51 0 0 0 1.949 2.6c1.342.958 2.908 1.554 4.547 1.729a49.25 49.25 0 0 0 21.182-1.171 31.96 31.96 0 0 0 16.242-11.473" fill="#fff"/><path d="M69.574 100.933a49.85 49.85 0 0 1-7.914-.625c-1.716-.201-3.354-.828-4.766-1.824a5.92 5.92 0 0 1-2.114-2.846c-.811-2.73-.074-5.817 2.077-8.692a32.95 32.95 0 0 1 7.323-6.561c8.514-6.09 22.112-12.287 31.115-16.391.241-.101.519.008.627.246s.007.519-.227.635c-8.965 4.087-22.514 10.264-30.953 16.3-2.673 1.751-5.07 3.891-7.112 6.35-1.965 2.623-2.648 5.407-1.924 7.84.342.947.962 1.769 1.779 2.358a9.4 9.4 0 0 0 4.327 1.634c6.986 1.126 14.133.734 20.954-1.15 6.393-1.981 11.995-5.937 16-11.3.155-.217.457-.267.674-.112s.267.457.112.674A32.63 32.63 0 0 1 83.07 99.124a47.97 47.97 0 0 1-13.496 1.809z"/></g><g fill="#ff8300"><path d="M173.963 113.181v-.038a4.28 4.28 0 0 0-.273-1.516 3.5 3.5 0 0 0-3.208-2.378 3.63 3.63 0 0 0-3.447 3.308c0 .022-.017.039-.039.039s-.039-.017-.039-.039a3.63 3.63 0 0 0-3.44-3.308 3.5 3.5 0 0 0-3.208 2.378 4.28 4.28 0 0 0-.274 1.516v.038c-.003.206.018.412.063.613.23 1.48 1.274 4.455 6.043 7.794l.01.006c.224.222.533.336.848.313.315.023.624-.091.848-.313l.01-.006c4.77-3.34 5.813-6.314 6.042-7.794a2.69 2.69 0 0 0 .063-.613"/><path d="M119.487 154.974l-9.985 3.909a.94.94 0 0 0-.077 1.714l3.492 1.741a.94.94 0 0 1 .421.421l1.744 3.5a.94.94 0 0 0 1.714-.082l3.907-9.988a.94.94 0 0 0-1.216-1.215" stroke="rgba(0,0,0,0)"/><path d="M119.487 154.974l-9.985 3.909a.94.94 0 0 0-.077 1.714l3.492 1.741a.94.94 0 0 1 .421.421l1.744 3.5a.94.94 0 0 0 1.714-.082l3.907-9.988a.94.94 0 0 0-1.216-1.215z" stroke="#ff8300" stroke-linejoin="round" stroke-width="1.5"/></g><path fill="none" stroke="#fff" stroke-linecap="round" stroke-linejoin="round" stroke-width="1.5" d="M112.267 163.409l3.663-3.663"/><g transform="translate(-36 -2)"><g transform="translate(118 81)" filter="url(#C)"><path d="M4928.107,6275.313l.172-13.2A21,21,0,0,1,4937,6222h36a21,21,0,1,1,0,42h-30.288l-11.1,12.658a1.954,1.954,0,0,1-1.486.686A2,2,0,0,1,4928.107,6275.313Z" transform="translate(-4798 -6174)" fill="#fff"/></g><g fill="#ff8300"><circle cx="261.5" cy="150.5" r="2.5"/><circle cx="275.5" cy="150.5" r="2.5"/><circle cx="289.5" cy="150.5" r="2.5"/></g></g></g></svg>