<svg xmlns="http://www.w3.org/2000/svg" xmlns:xlink="http://www.w3.org/1999/xlink" width="211.002" height="279" viewBox="0 0 211.002 279">
  <defs>
    <filter id="합치기_72" x="0" y="52.343" width="67" height="66.343" filterUnits="userSpaceOnUse">
      <feOffset input="SourceAlpha"/>
      <feGaussianBlur stdDeviation="5" result="blur"/>
      <feFlood flood-color="#aaa" flood-opacity="0.102"/>
      <feComposite operator="in" in2="blur"/>
      <feComposite in="SourceGraphic"/>
    </filter>
    <filter id="합치기_71" x="43.001" y="0" width="84" height="82.343" filterUnits="userSpaceOnUse">
      <feOffset input="SourceAlpha"/>
      <feGaussianBlur stdDeviation="5" result="blur-2"/>
      <feFlood flood-color="#aaa" flood-opacity="0.102"/>
      <feComposite operator="in" in2="blur-2"/>
      <feComposite in="SourceGraphic"/>
    </filter>
    <filter id="합치기_71-2" x="103.002" y="33" width="108" height="85.344" filterUnits="userSpaceOnUse">
      <feOffset input="SourceAlpha"/>
      <feGaussianBlur stdDeviation="5" result="blur-3"/>
      <feFlood flood-color="#aaa" flood-opacity="0.102"/>
      <feComposite operator="in" in2="blur-3"/>
      <feComposite in="SourceGraphic"/>
    </filter>
  </defs>
  <g id="그룹_21497" data-name="그룹 21497" transform="translate(-81.998 -79)">
    <g transform="matrix(1, 0, 0, 1, 82, 79)" filter="url(#합치기_72)">
      <path id="합치기_72-2" data-name="합치기 72" d="M14.582,36.344A14.583,14.583,0,0,1,8.388,8.56L8.3,1.41A1.368,1.368,0,0,1,10.7.476l5.8,6.707H22.42a14.58,14.58,0,1,1,0,29.161Z" transform="translate(52 103.69) rotate(180)" fill="#fff"/>
    </g>
    <g transform="matrix(1, 0, 0, 1, 82, 79)" filter="url(#합치기_71)">
      <path id="합치기_71-3" data-name="합치기 71" d="M21,52.344a21,21,0,0,1-8.76-40.091L12.108,2.03a2,2,0,0,1,3.5-1.345l8.472,9.659H33a21,21,0,1,1,0,42Z" transform="translate(112 67.34) rotate(180)" fill="#fff"/>
    </g>
    <rect id="사각형_24190" data-name="사각형 24190" width="146" height="34" rx="8" transform="translate(82 190)" fill="#f9f9f9"/>
    <g id="그룹_258" data-name="그룹 258" transform="translate(91 196.982)">
      <g id="그룹_259" data-name="그룹 259" transform="translate(0 0.036)">
        <path id="패스_31" data-name="패스 31" d="M0,11.166C0,2.792,2.792,0,11.166,0S22.332,2.792,22.332,11.166,19.541,22.332,11.166,22.332,0,19.541,0,11.166" transform="translate(-1 -1.018)" fill="#efefef"/>
      </g>
    </g>
    <g id="그룹_266" data-name="그룹 266" transform="translate(1 3)">
      <rect id="사각형_24192" data-name="사각형 24192" width="80.275" height="3" rx="1.5" transform="translate(117 197.018)" fill="#efefef"/>
      <rect id="사각형_24193" data-name="사각형 24193" width="90.275" height="3" rx="1.5" transform="translate(117 203.018)" fill="#efefef"/>
      <rect id="사각형_24194" data-name="사각형 24194" width="34" height="3" rx="1.5" transform="translate(117 209.018)" fill="#efefef"/>
    </g>
    <g id="그룹_21424" data-name="그룹 21424">
      <ellipse id="타원_31" data-name="타원 31" cx="55" cy="6" rx="55" ry="6" transform="translate(131 337)" fill="#efefef"/>
      <g id="_레이어_1-2" transform="matrix(1, 0.017, -0.017, 1, 124.214, 214.152)">
        <g id="그룹_21423" data-name="그룹 21423" transform="translate(0)">
          <path id="패스_341" data-name="패스 341" d="M64.813,294.116c-.885,2.536-6.263,2.263-14.633,1.841a3.87,3.87,0,0,1-2.7-1.022,3.569,3.569,0,0,1-.72-2.826,7.153,7.153,0,0,1,2.143-4.17,9.221,9.221,0,0,1,7.455-2.412c5.1.658,9.387,5.9,8.448,8.588Z" transform="translate(-27.259 -167.36)" fill="#ff8300"/>
          <g id="그룹_21414" data-name="그룹 21414" transform="translate(5.696 57)">
            <path id="패스_342" data-name="패스 342" d="M105.025,139.207c2.419-.418,12.058-1.3,20.307,5.118,10.634,8.274,10.226,22.683,10.122,26.32a36.66,36.66,0,0,1-5.646,18.567c-5.084,7.914-11.867,11.306-15.739,13.176-4.9,2.366-10,3.554-20.374,4.828-8.915,1.1-15.764,1.316-18.937,1.485a129.3,129.3,0,0,1-21.269-.207c-8.582-.865-12.87-1.295-17.9-3.57-3.09-1.4-11.634-5.4-16.759-14.749-5.8-10.583-3.652-22.241-3.115-25.29.362-2.06,1.549-7.658,2.661-12.543.62-2.718,1.158-4.956,1.524-6.462" transform="translate(-14.423 -138.444)" fill="#fff"/>
            <path id="패스_343" data-name="패스 343" d="M63.854,208.856a109.559,109.559,0,0,1-11.059-.55c-8.623-.869-12.949-1.3-18.045-3.612-2.89-1.307-11.683-5.291-16.983-14.955-3.856-7.033-4.93-15.609-3.189-25.488l.021-.116c.371-2.106,1.566-7.74,2.665-12.564.5-2.176,1.008-4.356,1.528-6.466a.486.486,0,0,1,.945.228c-.516,2.11-1.028,4.282-1.524,6.454-1.1,4.811-2.286,10.425-2.656,12.519l-.021.116c-1.7,9.66-.666,18.021,3.085,24.859,5.146,9.383,13.715,13.263,16.53,14.538,4.955,2.242,9.227,2.673,17.741,3.529a129.327,129.327,0,0,0,21.193.2c.429-.021.92-.045,1.478-.07,3.639-.174,9.73-.463,17.425-1.411,10.484-1.291,15.4-2.453,20.219-4.782,3.643-1.762,10.426-5.043,15.543-13a36.426,36.426,0,0,0,5.571-18.319c.416-14.711-5.175-22.22-9.939-25.923-8.656-6.735-18.795-5.217-19.923-5.022a.488.488,0,0,1-.562-.393.481.481,0,0,1,.4-.558c1.17-.2,11.7-1.775,20.689,5.213,4.938,3.843,10.738,11.6,10.309,26.713a37.362,37.362,0,0,1-5.721,18.811,36.84,36.84,0,0,1-15.934,13.354c-4.871,2.354-10.047,3.587-20.522,4.873-7.732.952-13.844,1.241-17.5,1.415-.554.025-1.045.05-1.474.07-3.148.166-6.52.343-10.284.343Z" transform="translate(-13.769 -137.775)"/>
          </g>
          <path id="패스_344" data-name="패스 344" d="M173.647,297c-.683,2.387-5.659,2.424-13.408,2.478a3.558,3.558,0,0,1-2.544-.8,3.294,3.294,0,0,1-.815-2.569,6.6,6.6,0,0,1,1.758-3.963,8.524,8.524,0,0,1,6.752-2.623c4.745.335,8.977,4.952,8.253,7.476Z" transform="translate(-91.515 -169.732)" fill="#ff8300"/>
          <g id="그룹_21415" data-name="그룹 21415" transform="translate(0 63.949)">
            <path id="패스_345" data-name="패스 345" d="M10.512,155.74c-1.663,1.336-8.013,6.768-9.13,15.9-.294,2.387-1.4,11.447,5.014,17,4.9,4.245,11.091,3.752,12.845,3.529,2.1-.269,5.42-.691,6.979-3.293,1.572-2.627.36-5.837.12-6.5-.956-2.627-2.78-3.843-4.522-5.415a29.737,29.737,0,0,1-7.161-10.144" transform="translate(-0.658 -155.256)" fill="#fff"/>
            <path id="패스_346" data-name="패스 346" d="M16.267,192.11a16.421,16.421,0,0,1-10.843-3.79C2.408,185.71-.939,180.568.244,170.9c1.071-8.742,6.863-14.252,9.308-16.217a.483.483,0,1,1,.6.753c-2.35,1.891-7.927,7.19-8.953,15.58-.91,7.426.724,13.007,4.853,16.581,4.547,3.934,10.235,3.7,12.469,3.413,2.069-.265,5.188-.662,6.623-3.061.65-1.088,1.2-3.024.091-6.052a10.439,10.439,0,0,0-3.529-4.493c-.29-.252-.583-.5-.873-.765a30.554,30.554,0,0,1-7.281-10.305.482.482,0,0,1,.881-.393,29.636,29.636,0,0,0,7.045,9.987c.285.256.571.5.856.749a11.353,11.353,0,0,1,3.794,4.861c1.245,3.421.6,5.647-.157,6.917-1.675,2.8-5.217,3.256-7.331,3.525a19.253,19.253,0,0,1-2.383.145Z" transform="translate(0 -154.571)"/>
          </g>
          <g id="그룹_21418" data-name="그룹 21418" transform="translate(23.073 67.399)">
            <g id="그룹_21417" data-name="그룹 21417">
              <g id="그룹_21416" data-name="그룹 21416">
                <rect id="사각형_24762" data-name="사각형 24762" width="31.648" height="46.339" rx="3" transform="translate(0.28 2.271) rotate(-3.6)" fill="#ffe69f"/>
                <path id="패스_347" data-name="패스 347" d="M61.585,211.712a3.8,3.8,0,0,1-3.781-3.554L55.31,168.513a3.793,3.793,0,0,1,3.545-4.021l24.984-1.572a3.793,3.793,0,0,1,4.021,3.545l2.495,39.645a3.8,3.8,0,0,1-3.545,4.021L61.825,211.7c-.079,0-.161.008-.24.008Zm22.5-47.832c-.062,0-.12,0-.182,0l-24.984,1.572a2.823,2.823,0,0,0-2.639,3L58.772,208.1a2.826,2.826,0,0,0,3,2.639l24.984-1.572a2.823,2.823,0,0,0,2.639-3L86.9,166.523a2.829,2.829,0,0,0-2.813-2.648Zm2.7,45.772Z" transform="translate(-55.302 -162.912)"/>
              </g>
              <path id="패스_348" data-name="패스 348" d="M95.9,216.873c.141,2.222-1.254,3.206-3.037,3.318s-3.289-.687-3.43-2.912,1.332-5.039,2.925-5.142c1.647-.1,3.4,2.511,3.545,4.733Z" transform="translate(-75.31 -191.77)" fill="#f1d09f"/>
            </g>
            <circle id="타원_195" data-name="타원 195" cx="1.055" cy="1.055" r="1.055" transform="translate(3.681 5.745)" fill="gray"/>
          </g>
          <path id="패스_349" data-name="패스 349" d="M28.659,120.255l-3.6,11.9-1.789,2.09,1.334,3.321,3.442-3.4,74.748-4.092v-5.506l-61.65-7.041Z" transform="translate(-13.526 -68.9)" fill="#fff"/>
          <g id="그룹_21419" data-name="그룹 21419" transform="translate(14.408)">
            <path id="패스_350" data-name="패스 350" d="M123.915,60.784c-1.372-11.22-1.414-12.018-4.662-22.87s-8.477-21.351-16.638-29.423A23.763,23.763,0,0,0,94.864,3.04c-4.687-1.986-9.084-1.92-12.8-1.866a45.775,45.775,0,0,0-9.81,1.2C59.647,5.493,51.5,15.323,50.021,17.164c-5.405,6.727-7.533,13.9-11.8,28.235-1,3.38-1.735,6.214-2.213,8.183" transform="translate(-35.521 -0.676)" fill="#fff"/>
            <path id="패스_351" data-name="패스 351" d="M123.206,60.588a.5.5,0,0,1-.5-.426l-.107-.894c-1.256-10.305-1.388-11.381-4.536-21.9-3.631-12.146-9.188-21.976-16.508-29.22a22.964,22.964,0,0,0-7.594-5.345C89.382.862,85.127.924,81.377.982a45.1,45.1,0,0,0-9.7,1.187C59.854,5.09,51.888,14.1,49.727,16.785c-5.343,6.652-7.47,13.809-11.708,28.074-.8,2.706-1.546,5.448-2.2,8.158a.5.5,0,0,1-.6.36.484.484,0,0,1-.372-.583c.662-2.726,1.41-5.486,2.217-8.2,4.271-14.38,6.415-21.6,11.878-28.4,2.208-2.751,10.362-11.96,22.5-14.96A46.371,46.371,0,0,1,81.36.014C85.025-.04,89.582-.11,94.366,1.921a23.968,23.968,0,0,1,7.906,5.556c7.441,7.36,13.074,17.326,16.756,29.625,3.169,10.591,3.3,11.679,4.566,22.05l.111.894a.487.487,0,0,1-.436.538h-.06Z" transform="translate(-34.828 0.005)"/>
          </g>
          <g id="그룹_21420" data-name="그룹 21420" transform="translate(38.54 42.61)">
            <path id="패스_352" data-name="패스 352" d="M95.831,104.284a2.39,2.39,0,0,1,1.018,2.1,1.75,1.75,0,0,1-2.813,1.154,2.871,2.871,0,0,1-.9-2.073c-.19-2.242,1.084-2.42,2.7-1.175Z" transform="translate(-92.89 -103.3)"/>
            <path id="패스_353" data-name="패스 353" d="M94.8,107.81a1.989,1.989,0,0,1-1.225-.414,3.008,3.008,0,0,1-.985-2.226c-.116-1.336.294-1.849.654-2.048.571-.31,1.419-.07,2.4.683a2.6,2.6,0,0,1,1.1,2.3,2,2,0,0,1-1.208,1.568,1.958,1.958,0,0,1-.736.141Zm-1-4.385a.675.675,0,0,0-.348.083c-.352.19-.5.769-.43,1.626a2.624,2.624,0,0,0,.819,1.92,1.531,1.531,0,0,0,2.462-1.009,2.163,2.163,0,0,0-.935-1.895h0a2.889,2.889,0,0,0-1.572-.724Z" transform="translate(-92.572 -102.991)"/>
          </g>
          <g id="그룹_21421" data-name="그룹 21421" transform="translate(52.662 42.61)">
            <path id="패스_354" data-name="패스 354" d="M129.751,104.284a2.39,2.39,0,0,1,1.018,2.1,1.75,1.75,0,0,1-2.813,1.154,2.871,2.871,0,0,1-.9-2.073c-.19-2.242,1.084-2.42,2.7-1.175Z" transform="translate(-126.81 -103.3)"/>
            <path id="패스_355" data-name="패스 355" d="M128.721,107.81a1.989,1.989,0,0,1-1.225-.414,3.008,3.008,0,0,1-.985-2.226c-.116-1.336.294-1.849.654-2.048.567-.31,1.419-.07,2.4.683h0a2.6,2.6,0,0,1,1.1,2.3,2,2,0,0,1-1.208,1.568,1.958,1.958,0,0,1-.736.141Zm-1-4.385a.675.675,0,0,0-.348.083c-.352.19-.5.769-.43,1.626a2.624,2.624,0,0,0,.819,1.92,1.531,1.531,0,0,0,2.462-1.009,2.175,2.175,0,0,0-.931-1.895h0A2.889,2.889,0,0,0,127.724,103.425Z" transform="translate(-126.492 -102.991)"/>
          </g>
          <path id="패스_356" data-name="패스 356" d="M121.907,16.094a16.639,16.639,0,0,1-7.947-2.126,9.368,9.368,0,0,1-4.042-3.761,13,13,0,0,1-8.166.439,8.345,8.345,0,0,1-5.043-3.529A5.182,5.182,0,0,1,97.184.981a.568.568,0,1,1,.811.794,4.031,4.031,0,0,0-.31,4.762,7.241,7.241,0,0,0,4.377,3.016,11.853,11.853,0,0,0,7.443-.4A5.04,5.04,0,0,1,109.98,5.4a3.667,3.667,0,0,1,2.342-1.812,2.214,2.214,0,0,1,2.59,1.1,2.176,2.176,0,0,1-.091,1.655A5.607,5.607,0,0,1,113,8.481a12.355,12.355,0,0,1-2.04,1.27,8.37,8.37,0,0,0,3.545,3.223,15.343,15.343,0,0,0,8.138,1.965,11.7,11.7,0,0,0,7.542-3.223.568.568,0,0,1,.8.8,12.827,12.827,0,0,1-8.278,3.55c-.265.017-.53.021-.8.021ZM112.93,4.659a1.478,1.478,0,0,0-.36.041,2.537,2.537,0,0,0-1.609,1.274,3.876,3.876,0,0,0-.41,2.718,11.4,11.4,0,0,0,1.758-1.1A4.352,4.352,0,0,0,113.774,5.9a1.13,1.13,0,0,0,.083-.794.951.951,0,0,0-.923-.451Z" transform="translate(-55.907 -0.474)" fill="#f80"/>
          <ellipse id="타원_196" data-name="타원 196" cx="4.605" cy="2.358" rx="4.605" ry="2.358" transform="translate(61.121 47.723)" fill="#ffdfe4" opacity="0.3"/>
          <path id="패스_357" data-name="패스 357" d="M68.559,121.766a26.838,26.838,0,0,0-5-.5q-9.772-.341-19.549.145a35.453,35.453,0,0,0-10.9,1.784c-3.415,1.308-6.44,3.812-7.252,7.04a4.734,4.734,0,0,0,.265,3.353c.8,1.54,2.62,2.438,4.4,3.05,5.546,1.912,11.643,2.016,17.591,2.1,5.968.079,12,.153,17.835-.952,3.92-.741,10.848-2.943,11.759-7.082C78.6,126.675,72.226,122.594,68.559,121.766Z" transform="translate(-15.08 -71.019)" fill="#f80"/>
          <g id="그룹_21422" data-name="그룹 21422" transform="translate(54.459 63.95)">
            <path id="패스_358" data-name="패스 358" d="M172.107,155.74c-9.689,4.414-22.791,10.454-31.032,16.345a32.421,32.421,0,0,0-7.215,6.454c-1.849,2.474-2.838,5.448-2,8.266a5.511,5.511,0,0,0,1.949,2.6,9.574,9.574,0,0,0,4.547,1.729,49.252,49.252,0,0,0,21.182-1.171A31.962,31.962,0,0,0,175.78,178.49" transform="translate(-131.077 -155.258)" fill="#fff"/>
            <path id="패스_359" data-name="패스 359" d="M145.509,191.558a49.848,49.848,0,0,1-7.914-.625,10.365,10.365,0,0,1-4.766-1.824,5.918,5.918,0,0,1-2.114-2.846c-.811-2.73-.074-5.817,2.077-8.692a32.948,32.948,0,0,1,7.323-6.561c8.514-6.09,22.112-12.287,31.115-16.391a.484.484,0,0,1,.4.881c-8.965,4.087-22.514,10.264-30.953,16.3a32.137,32.137,0,0,0-7.112,6.35c-1.965,2.623-2.648,5.407-1.924,7.84a5.007,5.007,0,0,0,1.779,2.358,9.4,9.4,0,0,0,4.327,1.634,49.266,49.266,0,0,0,20.954-1.15,31.674,31.674,0,0,0,16-11.3.483.483,0,0,1,.786.563,32.632,32.632,0,0,1-16.482,11.654A47.972,47.972,0,0,1,145.509,191.558Z" transform="translate(-130.394 -154.575)"/>
          </g>
        </g>
      </g>
    </g>
    <g id="그룹_262" data-name="그룹 262" transform="translate(160.035 109.249)">
      <g id="그룹_21426" data-name="그룹 21426" transform="translate(0 0)">
        <path id="패스_87" data-name="패스 87" d="M13.928,3.932c0-.023,0-.038,0-.038a4.281,4.281,0,0,0-.273-1.516A3.5,3.5,0,0,0,10.447,0,3.631,3.631,0,0,0,7,3.308a.039.039,0,0,1-.078,0A3.631,3.631,0,0,0,3.482,0,3.5,3.5,0,0,0,.274,2.378,4.281,4.281,0,0,0,0,3.894v.038a2.665,2.665,0,0,0,.063.613C.293,6.025,1.337,9,6.106,12.339l.01.006a1.094,1.094,0,0,0,.848.313,1.094,1.094,0,0,0,.848-.313l.01-.006c4.77-3.34,5.813-6.314,6.042-7.794a2.688,2.688,0,0,0,.063-.613" transform="translate(0 0)" fill="#ff8300"/>
      </g>
    </g>
    <g id="message_24_bottom.nav" transform="translate(106.998 153)">
      <rect id="사각형_24089" data-name="사각형 24089" width="16" height="16" fill="none"/>
      <g id="그룹_19940" data-name="그룹 19940" transform="translate(1.208 1.207)">
        <g id="그룹_21425" data-name="그룹 21425" transform="translate(0 0)">
          <path id="패스_179" data-name="패스 179" d="M11.331.817,1.346,4.726a.938.938,0,0,0-.077,1.714L4.761,8.181a.942.942,0,0,1,.421.421l1.744,3.5A.938.938,0,0,0,8.64,12.02l3.907-9.988A.938.938,0,0,0,11.331.817" transform="translate(-0.05 -0.05)" fill="#ff8300" stroke="rgba(0,0,0,0)" stroke-width="1"/>
          <path id="패스_180" data-name="패스 180" d="M11.331.817,1.346,4.726a.938.938,0,0,0-.077,1.714L4.761,8.181a.942.942,0,0,1,.421.421l1.744,3.5A.938.938,0,0,0,8.64,12.02l3.907-9.988A.938.938,0,0,0,11.331.817Z" transform="translate(-0.05 -0.05)" fill="#ff8300" stroke="#ff8300" stroke-linecap="round" stroke-linejoin="round" stroke-width="1.5"/>
          <line id="선_21" data-name="선 21" y1="3.663" x2="3.663" transform="translate(4.061 5.539)" fill="none" stroke="#fff" stroke-linecap="round" stroke-linejoin="round" stroke-width="1.5"/>
        </g>
      </g>
    </g>
    <g id="그룹_21496" data-name="그룹 21496" transform="translate(-36 -2)">
      <g transform="matrix(1, 0, 0, 1, 118, 81)" filter="url(#합치기_71-2)">
        <path id="합치기_71-4" data-name="합치기 71" d="M4928.107,6275.313l.172-13.2A21,21,0,0,1,4937,6222h36a21,21,0,1,1,0,42h-30.288l-11.1,12.658a1.954,1.954,0,0,1-1.486.686A2,2,0,0,1,4928.107,6275.313Z" transform="translate(-4798 -6174)" fill="#fff"/>
      </g>
      <g id="그룹_21442" data-name="그룹 21442" transform="translate(48)">
        <circle id="타원_28" data-name="타원 28" cx="2.5" cy="2.5" r="2.5" transform="translate(211 148)" fill="#ff8300"/>
        <circle id="타원_29" data-name="타원 29" cx="2.5" cy="2.5" r="2.5" transform="translate(225 148)" fill="#ff8300"/>
        <circle id="타원_30" data-name="타원 30" cx="2.5" cy="2.5" r="2.5" transform="translate(239 148)" fill="#ff8300"/>
      </g>
    </g>
  </g>
</svg>
