<svg xmlns="http://www.w3.org/2000/svg" xmlns:xlink="http://www.w3.org/1999/xlink" width="150" height="150">
    <defs>
        <clipPath id="A">
            <path d="M0,75C0,18.75,18.75,0,75,0s75,18.75,75,75-18.75,75-75,75S0,131.25,0,75" fill="none" />
        </clipPath>
        <path id="B"
            d="M96.049 68.74a3.48 3.48 0 0 1 .065 3.389 2.55 2.55 0 0 1-4.426-.194 4.16 4.16 0 0 1 .076-3.292c1.122-3.077 2.914-2.537 4.285.097z" />
    </defs>
    <path d="M0,75C0,18.75,18.75,0,75,0s75,18.75,75,75-18.75,75-75,75S0,131.25,0,75" fill="#ff8300" />
    <g clip-path="url(#A)">
        <path
            d="M27.126 138.58c-1.126-1.086-2.149-2.275-3.055-3.551a90.59 90.59 0 0 1-17.692-58.2c.292-5.747 1.231-11.713 4.582-16.401 2.1-2.947 5.775-5.376 9.208-4.21 1.521.624 2.862 1.618 3.9 2.893a47.15 47.15 0 0 1 10.913 19.4c.14.507.378.993.551 1.5"
            fill="#fff" />
        <path
            d="M27.126 139.282a.67.67 0 0 1-.475-.194c-1.152-1.117-2.204-2.335-3.141-3.638A91.9 91.9 0 0 1 5.677 76.792c.259-5.095 1.025-11.615 4.706-16.764 2.245-3.152 6.218-5.753 10.006-4.469 1.63.662 3.069 1.719 4.188 3.076 5.211 5.585 9.008 12.337 11.076 19.69.076.27.184.529.291.82.086.216.173.432.248.648.088.241.039.511-.129.706s-.428.282-.679.23-.455-.237-.531-.482a8.79 8.79 0 0 0-.216-.572c-.119-.3-.248-.626-.345-.961a46.57 46.57 0 0 0-10.75-19.105 9.6 9.6 0 0 0-3.616-2.709c-3.109-1.047-6.466 1.231-8.409 3.962-3.465 4.856-4.199 11.104-4.447 16.018-.933 20.692 5.263 41.077 17.552 57.75.887 1.235 1.88 2.391 2.968 3.454.21.199.277.506.17.775s-.367.445-.656.445z" />
        <g fill="#fff">
            <path
                d="M31.12 83.517l15.274-3.972L150.55 89.573l16.494 5.9 12.219 17.5 16.688 56.563-1.306 3.832H158.42L23.38 114.465z" />
            <path
                d="M158.905 95.478c-1.932-16.343-2-17.509-6.574-33.312s-11.949-31.1-23.467-42.854c-4.437-4.534-7.783-6.563-10.935-7.945-6.606-2.893-12.813-2.8-18.059-2.72a62.66 62.66 0 0 0-13.838 1.749C68.253 14.929 56.757 29.254 54.67 31.935c-7.621 9.8-10.622 20.24-16.634 41.127-1.414 4.922-2.44 9.057-3.12 11.917" />
        </g>
        <path
            d="M158.905 96.183a.7.7 0 0 1-.7-.626l-.151-1.317c-1.77-15-1.954-16.57-6.4-31.887-5.13-17.696-12.967-32.02-23.298-42.57-4.674-4.782-8.042-6.617-10.719-7.783-6.466-2.828-12.478-2.742-17.757-2.655a61.83 61.83 0 0 0-13.677 1.727c-16.686 4.256-27.924 17.372-30.979 21.29-7.535 9.693-10.535 20.11-16.516 40.889-1.133 3.951-2.18 7.945-3.12 11.9a.7.7 0 0 1-1.36-.324 252.94 252.94 0 0 1 3.13-11.949c6.035-20.956 9.059-31.47 16.759-41.369 3.12-4 14.616-17.422 31.736-21.794 4.586-1.11 9.282-1.704 14-1.77 5.171-.076 11.6-.184 18.351 2.774 2.8 1.22 6.315 3.141 11.151 8.1 10.492 10.719 18.448 25.237 23.64 43.156 4.469 15.425 4.652 17 6.444 32.114l.151 1.317a.7.7 0 0 1-.615.777h-.086z" />
        <use xlink:href="#B" />
        <path
            d="M93.945 73.64h-.119a2.92 2.92 0 0 1-2.424-1.554 4.41 4.41 0 0 1 .065-3.551c.669-1.835 1.522-2.267 2.116-2.31.939-.065 1.921.777 2.753 2.364a3.78 3.78 0 0 1 .043 3.713 2.91 2.91 0 0 1-2.429 1.339zm-.27-6.779h-.054c-.583.043-1.133.712-1.565 1.889a3.79 3.79 0 0 0-.086 3.044c.367.712 1.087 1.173 1.887 1.209s1.558-.359 1.988-1.036a3.17 3.17 0 0 0-.076-3.076c-.68-1.3-1.436-2.029-2.083-2.029zM74.094 68.74a3.48 3.48 0 0 1 .065 3.389 2.55 2.55 0 0 1-4.426-.194 4.16 4.16 0 0 1 .076-3.292c1.122-3.077 2.914-2.537 4.285.097z" />
        <path
            d="M72 73.64h-.119a2.92 2.92 0 0 1-2.429-1.554c-.477-1.141-.453-2.429.065-3.551.669-1.835 1.522-2.267 2.116-2.31.939-.065 1.921.777 2.753 2.364a3.78 3.78 0 0 1 .043 3.713c-.533.826-1.446 1.329-2.429 1.339zm-.27-6.779h-.054c-.583.043-1.133.712-1.565 1.889a3.79 3.79 0 0 0-.086 3.044c.367.712 1.087 1.173 1.887 1.209s1.558-.359 1.988-1.036a3.17 3.17 0 0 0-.076-3.076c-.68-1.3-1.436-2.029-2.083-2.029z" />
        <g fill="#f80">
            <path
                d="M91.137 82.772a39.04 39.04 0 0 0-7.275-.734q-14.233-.5-28.465.205c-5.4.27-10.9.691-15.868 2.591s-9.38 5.548-10.557 10.255a6.86 6.86 0 0 0 .389 4.879c1.166 2.245 3.81 3.551 6.4 4.447 8.074 2.785 16.947 2.936 25.6 3.055 8.69.119 17.465.227 25.971-1.382 5.7-1.079 15.792-4.285 17.12-10.309 1.285-5.861-7.988-11.8-13.32-13.007zm17.735-51.176c-4.059-.047-8.042-1.113-11.582-3.1a13.65 13.65 0 0 1-5.883-5.473c-3.794 1.492-7.969 1.715-11.9.637a12.22 12.22 0 0 1-7.351-5.138c-1.738-2.925-1.446-6.768.691-8.938.322-.322.844-.322 1.166 0s.322.844 0 1.166c-1.653 1.961-1.836 4.77-.453 6.93a10.52 10.52 0 0 0 6.38 4.393 17.26 17.26 0 0 0 10.841-.585c-.49-1.841-.242-3.801.691-5.462a5.37 5.37 0 0 1 3.411-2.638 3.22 3.22 0 0 1 3.767 1.6c.278.788.231 1.654-.13 2.407a8.15 8.15 0 0 1-2.645 3.12 17.93 17.93 0 0 1-2.968 1.846c1.228 2.034 3.02 3.667 5.16 4.7a22.28 22.28 0 0 0 11.852 2.861 17.03 17.03 0 0 0 10.989-4.7c.322-.322.844-.322 1.166 0s.322.844 0 1.166a18.68 18.68 0 0 1-12.057 5.171c-.389.022-.777.032-1.155.032zM95.789 14.94a2.76 2.76 0 0 0-.529.054 3.68 3.68 0 0 0-2.342 1.857 5.64 5.64 0 0 0-.594 3.962 16.16 16.16 0 0 0 2.558-1.608 6.3 6.3 0 0 0 2.127-2.45 1.65 1.65 0 0 0 .119-1.155 1.39 1.39 0 0 0-1.349-.658z" />
        </g>
        <path
            d="M31.357 106.218c-2.084 10.439-3.304 21.032-3.649 31.671-.421 12.9.507 26.069 5.117 38.126s13.256 22.981 25.076 28.2c7.286 3.217 15.35 4.134 23.273 4.836 20.272 1.8 40.911 2.386 60.751-2.1s39.007-14.518 51.307-30.733c1.13-1.545 1.961-3.288 2.45-5.138"
            fill="#fff" />
        <path
            d="M107.837 211.098c-9.348 0-18.372-.615-26.727-1.36-8.182-.723-16.127-1.641-23.5-4.9-11.108-4.9-20.38-15.317-25.443-28.584-4.026-10.546-5.667-22.755-5.16-38.407.349-10.676 1.573-21.305 3.66-31.781.078-.382.45-.628.832-.551s.628.45.551.832a193.8 193.8 0 0 0-3.638 31.552c-.5 15.458 1.112 27.494 5.073 37.856 4.933 12.921 13.936 23.046 24.7 27.8 7.168 3.163 14.994 4.07 23.057 4.782 18.232 1.619 39.67 2.634 60.535-2.083 21.632-4.89 39.713-15.706 50.9-30.462 1.078-1.473 1.869-3.135 2.332-4.9a.7.7 0 0 1 1.349.378 15.64 15.64 0 0 1-2.569 5.376c-11.388 15.015-29.75 26.015-51.706 30.98-11.25 2.419-22.734 3.581-34.24 3.465z" />
    </g>
</svg>
